<svg width="21" height="22" viewBox="0 0 21 22" fill="none" xmlns="http://www.w3.org/2000/svg">
<path d="M13.9281 2.24707H6.87265C3.80797 2.24707 1.98096 4.07318 1.98096 7.13632V14.1799C1.98096 17.2514 3.80797 19.0775 6.87265 19.0775H13.9197C16.9844 19.0775 18.8114 17.2514 18.8114 14.1883V7.13632C18.8198 4.07318 16.9928 2.24707 13.9281 2.24707ZM10.4004 13.9274C8.59863 13.9274 7.13365 12.4632 7.13365 10.6623C7.13365 8.86144 8.59863 7.39719 10.4004 7.39719C12.2021 7.39719 13.6671 8.86144 13.6671 10.6623C13.6671 12.4632 12.2021 13.9274 10.4004 13.9274ZM15.3847 6.35371C15.3426 6.45469 15.2837 6.54726 15.2079 6.63141C15.1237 6.70715 15.0311 6.76605 14.93 6.80813C14.829 6.8502 14.7196 6.87545 14.6101 6.87545C14.3828 6.87545 14.1723 6.7913 14.0123 6.63141C13.9365 6.54726 13.8776 6.45469 13.8355 6.35371C13.7934 6.25272 13.7682 6.14332 13.7682 6.03393C13.7682 5.92453 13.7934 5.81513 13.8355 5.71415C13.8776 5.60475 13.9365 5.5206 14.0123 5.43644C14.206 5.24289 14.5007 5.15033 14.7701 5.20923C14.829 5.21765 14.8795 5.23448 14.93 5.25972C14.9806 5.27656 15.0311 5.3018 15.0816 5.33546C15.1237 5.36071 15.1658 5.40278 15.2079 5.43644C15.2837 5.5206 15.3426 5.60475 15.3847 5.71415C15.4268 5.81513 15.452 5.92453 15.452 6.03393C15.452 6.14332 15.4268 6.25272 15.3847 6.35371Z" fill="#190F29"/>
</svg>
