<svg width="21" height="22" viewBox="0 0 21 22" fill="none" xmlns="http://www.w3.org/2000/svg">
<path d="M16.4242 5.84651C16.3014 5.7878 16.1818 5.72344 16.0658 5.65367C15.7288 5.44766 15.4197 5.20493 15.1454 4.9307C14.4589 4.20457 14.2026 3.46792 14.1081 2.95216H14.1119C14.033 2.52406 14.0657 2.24707 14.0706 2.24707H10.944V13.424C10.944 13.5741 10.944 13.7224 10.9372 13.869C10.9372 13.8872 10.9353 13.904 10.9341 13.9237C10.9341 13.9317 10.9341 13.9402 10.9323 13.9486C10.9323 13.9507 10.9323 13.9528 10.9323 13.9549C10.8993 14.3559 10.7602 14.7433 10.5273 15.083C10.2944 15.4227 9.97476 15.7042 9.59651 15.9029C9.2023 16.1103 8.75643 16.219 8.30288 16.2185C6.84616 16.2185 5.66554 15.1203 5.66554 13.7641C5.66554 12.408 6.84616 11.3098 8.30288 11.3098C8.57863 11.3096 8.85268 11.3497 9.11486 11.4287L9.11865 8.4856C8.32274 8.39056 7.51415 8.44904 6.7439 8.65735C5.97365 8.86567 5.25846 9.2193 4.64344 9.69594C4.10455 10.1288 3.6515 10.6453 3.30467 11.2222C3.17269 11.4325 2.67473 12.2779 2.61443 13.6498C2.57651 14.4286 2.82947 15.2353 2.95007 15.5688V15.5758C3.02592 15.7721 3.31984 16.4422 3.79884 17.007C4.18509 17.4601 4.64143 17.8581 5.15316 18.1882V18.1812L5.16075 18.1882C6.67436 19.1391 8.35256 19.0767 8.35256 19.0767C8.64307 19.0658 9.61624 19.0767 10.7214 18.5925C11.9471 18.0557 12.645 17.2559 12.645 17.2559C13.0908 16.7781 13.4453 16.2335 13.6932 15.6456C13.9762 14.958 14.0706 14.1333 14.0706 13.8038V7.87413C14.1085 7.89516 14.6137 8.20406 14.6137 8.20406C14.6137 8.20406 15.3415 8.63532 16.477 8.91616C17.2916 9.11601 18.3892 9.15809 18.3892 9.15809V6.28864C18.0046 6.3272 17.2237 6.21501 16.4242 5.84651Z" fill="#190F29"/>
</svg>
