<svg width="22" height="22" viewBox="0 0 22 22" fill="none" xmlns="http://www.w3.org/2000/svg">
<path fill-rule="evenodd" clip-rule="evenodd" d="M8.49162 13.4329V7.42029C10.5834 8.42467 12.2035 9.39493 14.1196 10.441C12.5393 11.3353 10.5834 12.3388 8.49162 13.4329ZM20.1493 4.42991C19.7885 3.94481 19.1735 3.5672 18.5188 3.44219C16.5943 3.06928 4.58829 3.06822 2.66487 3.44219C2.13982 3.54263 1.67229 3.78539 1.27066 4.16258C-0.421621 5.76533 0.108659 14.3604 0.516564 15.7526C0.688092 16.3553 0.909834 16.7899 1.18909 17.0752C1.54888 17.4523 2.0415 17.7121 2.60734 17.8285C4.19189 18.163 12.3552 18.35 18.4853 17.8787C19.0501 17.7783 19.55 17.5102 19.9443 17.117C21.509 15.5207 21.4023 6.44297 20.1493 4.42991Z" fill="#190F29"/>
</svg>
