<svg width="413" height="514" viewBox="0 0 413 514" fill="none" xmlns="http://www.w3.org/2000/svg">
<g clip-path="url(#clip0_1333_615)">
<path d="M193.739 93.7098C186.702 67.4477 202.287 40.4534 228.549 33.4165L346.762 1.74142C373.024 -5.2955 400.019 10.2896 407.055 36.5518C414.092 62.814 398.507 89.8082 372.245 96.8451L254.032 128.52C227.77 135.557 200.776 119.972 193.739 93.7098Z" fill="#3A88FF"/>
<path d="M223.032 203.034C215.996 176.772 231.581 149.778 257.843 142.741L350.218 117.989C376.48 110.952 403.474 126.538 410.511 152.8C417.548 179.062 401.963 206.056 375.701 213.093L283.326 237.845C257.064 244.882 230.069 229.297 223.032 203.034Z" fill="#D6DBC9"/>
<path d="M252.325 312.36C245.288 286.097 260.874 259.103 287.136 252.066L342.565 237.214C368.827 230.177 395.822 245.762 402.859 272.024C409.896 298.287 394.31 325.281 368.048 332.318L312.619 347.17C286.357 354.207 259.362 338.622 252.325 312.36Z" fill="#F6DDFE"/>
<path d="M3.59091 194.673C-10.3514 142.64 20.5276 89.1557 72.561 75.2134C124.594 61.2711 178.078 92.15 192.021 144.183L225.601 269.507C239.543 321.541 208.664 375.024 156.631 388.967C104.598 402.909 51.1136 372.03 37.1713 319.997L3.59091 194.673Z" fill="#FF6635"/>
<path d="M78.8931 477.089C71.889 450.95 87.4015 424.081 113.541 417.077L207.236 391.971C233.376 384.967 260.245 400.48 267.249 426.62C274.253 452.76 258.74 479.628 232.6 486.632L138.906 511.738C112.766 518.742 85.8973 503.229 78.8931 477.089Z" fill="#FFE366"/>
</g>
<defs>
<clipPath id="clip0_1333_615">
<rect width="413" height="514" fill="white"/>
</clipPath>
</defs>
</svg>
