<svg width="176" height="29" viewBox="0 0 176 29" fill="none" xmlns="http://www.w3.org/2000/svg">
<path d="M9.4078 28.25C11.5065 28.25 13.388 27.1881 14.5097 25.284V27.5176H18.1281V14.0057H10.3124V17.8871H13.3157C13.3157 21.4391 11.9769 23.8559 9.66109 23.8559C6.83875 23.8559 5.97034 19.8645 5.97034 14.4817C5.97034 9.09887 6.80257 5.14414 9.51636 5.14414C11.5788 5.14414 12.7005 7.37783 12.592 10.6002H18.0196C18.0196 4.59487 14.8716 0.75 9.62491 0.75C2.71379 0.75 0 7.37783 0 14.4817C0 21.5856 2.71379 28.25 9.4078 28.25Z" fill="#030712"/>
<path d="M25.5435 27.5176V16.9351C25.5435 13.4198 27.4613 12.248 29.1619 12.248C30.2474 12.248 31.0797 12.5776 31.8757 13.0902L32.527 7.96371C32.0566 7.59754 31.0797 7.30459 30.1027 7.30459C27.9679 7.30459 26.3396 8.76931 25.5435 10.3805V7.9271H20.2969V27.5176H25.5435Z" fill="#030712"/>
<path d="M40.68 28.25C45.7457 28.25 48.8214 23.746 48.8214 17.7773C48.8214 11.7354 45.7457 7.30459 40.68 7.30459C35.6142 7.30459 32.5386 11.8086 32.5386 17.7773C32.5386 23.746 35.6142 28.25 40.68 28.25ZM40.68 24.5882C38.7261 24.5882 37.7853 22.2081 37.7853 17.7773C37.7853 13.3465 38.7261 10.9664 40.68 10.9664C42.6339 10.9664 43.5747 13.3465 43.5747 17.7773C43.5747 22.2081 42.6339 24.5882 40.68 24.5882Z" fill="#030712"/>
<path d="M56.8499 27.5176L58.6953 15.7999L60.6854 27.5176H66.0768L69.1163 7.9271H65.136L63.4716 20.7433L61.5177 7.9271H56.9585L54.9684 20.6335L53.4125 7.9271H48.2744L51.1691 27.5176H56.8499Z" fill="#030712"/>
<path d="M77.9429 24.0389C77.6172 24.1488 77.3639 24.1854 77.1106 24.1854C76.1337 24.1854 75.6271 23.5263 75.6271 22.501V11.5523H78.5942V7.9271H75.6271V2.65413H72.4791C72.4791 6.0962 70.9232 8.03695 68.2094 8.22004V11.5523H70.3804V22.4644C70.3804 25.9065 72.4429 28.25 75.8442 28.25C76.4955 28.25 77.183 28.1768 77.9429 27.9937V24.0389Z" fill="#030712"/>
<path d="M85.6554 27.5176V15.7999C85.6554 12.7607 86.9942 11.4058 88.5863 11.4058C90.106 11.4058 90.8659 12.7607 90.8659 14.6648V27.5176H96.1125V14.1521C96.1125 8.5496 92.7113 7.30459 90.6488 7.30459C88.3692 7.30459 86.6324 8.47636 85.6554 10.1608V1.55559H80.4087V27.5176H85.6554Z" fill="#030712"/>
<path d="M104.243 27.5176V15.7999C104.243 12.7607 105.582 11.4058 107.174 11.4058C108.694 11.4058 109.454 12.7607 109.454 14.6648V27.5176H114.701V14.1521C114.701 8.5496 111.299 7.30459 109.237 7.30459C106.957 7.30459 105.22 8.47636 104.243 10.1608V7.9271H98.9968V27.5176H104.243Z" fill="#030712"/>
<path d="M124.822 28.25C129.887 28.25 132.963 23.746 132.963 17.7773C132.963 11.7354 129.887 7.30459 124.822 7.30459C119.756 7.30459 116.68 11.8086 116.68 17.7773C116.68 23.746 119.756 28.25 124.822 28.25ZM124.822 24.5882C122.868 24.5882 121.927 22.2081 121.927 17.7773C121.927 13.3465 122.868 10.9664 124.822 10.9664C126.776 10.9664 127.716 13.3465 127.716 17.7773C127.716 22.2081 126.776 24.5882 124.822 24.5882Z" fill="#030712"/>
<path d="M142.86 24.0389C142.535 24.1488 142.281 24.1854 142.028 24.1854C141.051 24.1854 140.545 23.5263 140.545 22.501V11.5523H143.512V7.9271H140.545V2.65413H137.397C137.397 6.0962 135.841 8.03695 133.127 8.22004V11.5523H135.298V22.4644C135.298 25.9065 137.36 28.25 140.762 28.25C141.413 28.25 142.101 28.1768 142.86 27.9937V24.0389Z" fill="#030712"/>
<path d="M152.576 28.25C156.99 28.25 160.174 24.6615 160.174 20.3405H155.109C155.253 22.2813 154.747 24.5882 152.54 24.5882C150.477 24.5882 149.355 22.501 149.355 18.5829H160.391V17.4477C160.283 11.479 157.207 7.30459 152.25 7.30459C147.184 7.30459 143.892 11.6987 143.892 17.7773C143.892 23.5995 147.474 28.25 152.576 28.25ZM149.464 15.5436C149.464 12.9804 150.441 10.9664 152.25 10.9664C154.059 10.9664 155.036 12.9804 155.036 15.5436H149.464Z" fill="#030712"/>
<path d="M168.365 28.25C172.635 28.25 176 25.7234 176 21.9883C176 18.2533 172.635 16.6055 170.609 15.7267C168.293 14.7014 166.737 14.262 166.737 12.6874C166.737 11.5889 167.605 10.9664 168.691 10.9664C170.211 10.9664 170.934 12.248 170.572 14.1155H175.204C175.819 10.234 173.178 7.30459 168.691 7.30459C164.457 7.30459 161.563 9.90446 161.563 13.3099C161.563 16.0929 163.553 17.997 167.135 19.535C169.017 20.3405 170.753 20.8166 170.753 22.4644C170.753 23.7094 169.776 24.5882 168.546 24.5882C167.171 24.5882 165.832 23.4897 166.411 20.8898H161.382C160.803 25.3938 163.806 28.25 168.365 28.25Z" fill="#030712"/>
</svg>
