<svg width="98" height="34" viewBox="0 0 98 34" fill="none" xmlns="http://www.w3.org/2000/svg">
<path d="M1.07255 12.3643V2.71128H2.73501L5.79179 10.8627H5.83201L8.87538 2.71128H10.5378V12.3643H9.33121V4.61506H9.27759L6.3951 12.3643H5.21529L2.3194 4.61506H2.27918V12.3643H1.07255ZM14.4555 12.5251C13.803 12.5251 13.2712 12.3687 12.8601 12.0559C12.4489 11.7341 12.2433 11.2828 12.2433 10.7018C12.2433 10.2817 12.3551 9.9242 12.5785 9.62925C12.8109 9.32536 13.1416 9.0885 13.5706 8.91868C14.0086 8.74886 14.4823 8.62373 14.9918 8.54329C15.5102 8.45391 16.109 8.39581 16.7883 8.369V7.92657C16.7883 6.87189 16.2609 6.34455 15.2063 6.34455C14.7504 6.34455 14.3795 6.46521 14.0935 6.70654C13.8164 6.94786 13.6377 7.26963 13.5572 7.67184L12.4042 7.45733C12.5562 6.84955 12.8869 6.3669 13.3963 6.00938C13.9147 5.65186 14.5404 5.4731 15.2733 5.4731C16.0777 5.4731 16.7302 5.67868 17.2307 6.08982C17.7312 6.50097 17.9815 7.09981 17.9815 7.88635V12.3643H16.976L16.8553 11.3721H16.8151C16.3146 12.1408 15.528 12.5251 14.4555 12.5251ZM14.7102 11.6537C15.3269 11.6537 15.8275 11.4705 16.2118 11.104C16.5961 10.7376 16.7883 10.2594 16.7883 9.66947V9.21363C16.2163 9.24045 15.7425 9.28067 15.3672 9.33429C15.0007 9.37898 14.6611 9.45496 14.3482 9.56221C14.0354 9.66053 13.8075 9.79907 13.6645 9.97783C13.5215 10.1476 13.45 10.3666 13.45 10.6348C13.45 10.9744 13.5662 11.2291 13.7985 11.399C14.0309 11.5688 14.3348 11.6537 14.7102 11.6537ZM22.3055 12.4849C21.4475 12.4849 20.7548 12.1587 20.2275 11.5062C19.7001 10.8448 19.4365 10.0002 19.4365 8.97231C19.4365 7.94444 19.7046 7.10428 20.2409 6.45181C20.7772 5.79934 21.4788 5.4731 22.3458 5.4731C23.2664 5.4731 23.9412 5.83956 24.3702 6.57247H24.397V2.71128H25.5902V12.3643H24.5445L24.4507 11.2783H24.4104C24.2496 11.6001 23.9904 11.8816 23.6328 12.1229C23.2843 12.3643 22.8418 12.4849 22.3055 12.4849ZM22.5469 11.6269C23.1547 11.6269 23.6194 11.3856 23.9412 10.9029C24.263 10.4113 24.4238 9.76778 24.4238 8.97231C24.4238 8.18577 24.263 7.55117 23.9412 7.06853C23.6284 6.58588 23.1636 6.34455 22.5469 6.34455C21.9302 6.34455 21.4564 6.58588 21.1257 7.06853C20.795 7.54224 20.6297 8.17236 20.6297 8.9589C20.6297 9.74544 20.7906 10.389 21.1123 10.8895C21.443 11.3811 21.9212 11.6269 22.5469 11.6269ZM30.3514 5.4731C31.2899 5.4731 32.0451 5.83509 32.6171 6.55906C33.1892 7.2741 33.4394 8.19918 33.3679 9.33429H28.3403C28.3761 10.094 28.5638 10.6705 28.9034 11.0638C29.252 11.4571 29.7302 11.6537 30.338 11.6537C31.2139 11.6537 31.8261 11.171 32.1747 10.2057L33.2875 10.4068C33.0909 10.9878 32.7333 11.4883 32.2149 11.9084C31.7055 12.3196 31.0753 12.5251 30.3246 12.5251C29.3503 12.5251 28.5772 12.2034 28.0052 11.5598C27.4331 10.9074 27.1471 10.0493 27.1471 8.98571C27.1471 7.95785 27.4555 7.11768 28.0722 6.46521C28.6889 5.80381 29.4486 5.4731 30.3514 5.4731ZM28.3537 8.47625H32.2015C32.1747 7.84166 32.0004 7.32773 31.6787 6.93446C31.3569 6.54119 30.91 6.34455 30.338 6.34455C29.8017 6.34455 29.3548 6.52778 28.9973 6.89424C28.6398 7.25175 28.4252 7.77909 28.3537 8.47625ZM41.5232 12.5251C40.6384 12.5251 39.9457 12.1497 39.4451 11.399H39.4049L39.3111 12.3643H38.2653V2.71128H39.4585V6.58588H39.4988C39.9725 5.84403 40.6696 5.4731 41.5902 5.4731C42.4125 5.4731 43.0874 5.79487 43.6147 6.4384C44.142 7.08193 44.4057 7.9221 44.4057 8.9589C44.4057 9.9957 44.142 10.8493 43.6147 11.5196C43.0874 12.19 42.3902 12.5251 41.5232 12.5251ZM41.3221 11.6537C41.9299 11.6537 42.3947 11.4079 42.7164 10.9163C43.0471 10.4247 43.2125 9.77225 43.2125 8.9589C43.2125 8.19024 43.0471 7.56458 42.7164 7.08193C42.3857 6.59035 41.9209 6.34455 41.3221 6.34455C40.7054 6.34455 40.2317 6.59035 39.901 7.08193C39.5792 7.56458 39.4228 8.19024 39.4317 8.9589C39.4317 9.78119 39.5881 10.4381 39.901 10.9297C40.2227 11.4124 40.6965 11.6537 41.3221 11.6537ZM45.9217 15.0725V14.1206C46.315 14.1206 46.6323 14.0401 46.8736 13.8792C47.1149 13.7273 47.3295 13.41 47.5172 12.9273L47.7451 12.3509L45.0637 5.60717H46.3105L48.335 11.0772H48.3752L50.2388 5.60717H51.4722L48.5763 13.2625C48.3082 13.9776 47.9819 14.4557 47.5976 14.6971C47.2133 14.9473 46.6546 15.0725 45.9217 15.0725Z" fill="#030712" fill-opacity="0.5"/>
<path d="M41.4406 33.0786H43.1373V21.4823H41.4406V33.0786ZM42.3003 19.5457C42.6396 19.5457 42.9337 19.4305 43.1825 19.1769C43.4087 18.9463 43.5445 18.6466 43.5445 18.2778C43.5445 17.9319 43.4087 17.6322 43.1825 17.3786C42.9337 17.1481 42.6396 17.0098 42.3003 17.0098C41.9383 17.0098 41.6442 17.1481 41.418 17.3786C41.1692 17.6322 41.0561 17.9319 41.0561 18.2778C41.0561 18.6466 41.1692 18.9463 41.418 19.1769C41.6442 19.4305 41.9383 19.5457 42.3003 19.5457Z" fill="#190F29"/>
<path d="M45.8259 33.0786H47.4999V26.8309C47.4999 26.0009 47.6356 25.2632 47.9297 24.6177C48.2238 23.9722 48.631 23.488 49.1287 23.1422C49.6263 22.7964 50.2145 22.612 50.8932 22.612C51.8207 22.612 52.5219 22.9117 52.9744 23.488C53.4268 24.0644 53.6756 24.9174 53.6756 26.047V33.0786H55.3723V25.7704C55.3723 24.341 55.0103 23.1883 54.2864 22.3584C53.5625 21.5284 52.5672 21.1134 51.2777 21.1134C50.4407 21.1134 49.6942 21.2979 49.0608 21.6437C48.4274 22.0125 47.9071 22.4967 47.4999 23.1191V21.4823H45.8259V33.0786Z" fill="#190F29"/>
<path d="M63.5986 33.4474C64.6166 33.4474 65.5215 33.1938 66.3359 32.6636C67.1276 32.1564 67.7384 31.4187 68.1909 30.4734C68.6433 29.5513 68.8695 28.4908 68.8695 27.292C68.8695 26.0931 68.6433 25.0326 68.1909 24.0874C67.7384 23.1653 67.1276 22.4275 66.3359 21.8973C65.5215 21.3901 64.6166 21.1134 63.5986 21.1134C62.739 21.1134 61.9699 21.3209 61.2912 21.7128C60.5899 22.1278 60.0244 22.6811 59.572 23.3958V16.3643H57.8979V33.0786H59.572V31.142C60.0244 31.8798 60.5899 32.4331 61.2912 32.848C61.9699 33.263 62.739 33.4474 63.5986 33.4474ZM63.3272 31.9259C62.5807 31.9259 61.9246 31.7414 61.3591 31.3726C60.7709 31.0037 60.3411 30.4504 60.0244 29.7588C59.7077 29.0671 59.572 28.2372 59.572 27.292C59.572 25.8626 59.9113 24.7099 60.5899 23.8799C61.2686 23.05 62.1735 22.612 63.3272 22.612C64.4809 22.612 65.4084 23.05 66.087 23.8799C66.7657 24.7099 67.1277 25.8626 67.1277 27.292C67.1277 28.2372 66.9693 29.0671 66.6526 29.7588C66.3359 30.4504 65.9061 31.0037 65.3179 31.3726C64.7297 31.7414 64.0737 31.9259 63.3272 31.9259Z" fill="#190F29"/>
<path d="M75.6274 33.4474C76.6907 33.4474 77.6181 33.1938 78.4325 32.6867C79.2243 32.1795 79.8803 31.4648 80.4232 30.5196L79.1564 29.7127C78.704 30.4504 78.2063 31.0037 77.686 31.3956C77.1431 31.7875 76.4644 31.972 75.6274 31.972C74.4511 31.972 73.5236 31.6031 72.8449 30.8423C72.1437 30.1046 71.7817 29.021 71.7365 27.5917H80.6269C80.6269 27.4533 80.6495 27.2689 80.6495 27.0614C80.6495 25.9087 80.4459 24.8713 80.0387 23.9722C79.6315 23.073 79.0659 22.3814 78.2968 21.8742C77.5277 21.367 76.6228 21.1134 75.5822 21.1134C74.4511 21.1134 73.4783 21.3901 72.6413 21.9203C71.8043 22.4506 71.1709 23.1883 70.7185 24.1105C70.266 25.0326 70.0624 26.0931 70.0624 27.2459C70.0624 28.4447 70.2887 29.5282 70.7411 30.4504C71.1935 31.3956 71.827 32.1333 72.664 32.6636C73.501 33.1938 74.4963 33.4474 75.6274 33.4474ZM78.9755 26.2545H71.8043C71.9401 25.1249 72.3246 24.2258 72.9807 23.5802C73.6367 22.9347 74.4963 22.5889 75.5822 22.5889C76.5775 22.5889 77.3693 22.9117 78.0027 23.5572C78.6135 24.2027 78.9302 25.1018 78.9755 26.2545Z" fill="#190F29"/>
<path d="M85.5799 33.4013C86.4169 33.4013 87.1861 33.1708 87.8647 32.7097C88.5434 32.2486 89.0411 31.6262 89.403 30.8193V33.0786H91.077V25.1249C91.077 24.341 90.8961 23.6263 90.5341 23.0269C90.1722 22.4275 89.6519 21.9434 88.9958 21.6206C88.3172 21.2979 87.548 21.1134 86.6658 21.1134C85.9193 21.1134 85.2406 21.2287 84.6524 21.4592C84.0417 21.6898 83.5213 22.0356 83.0689 22.4967C82.6165 22.9578 82.2771 23.5341 82.0057 24.2027L83.4987 24.756C83.8154 24.0874 84.2226 23.5572 84.7203 23.1883C85.218 22.8194 85.8514 22.612 86.5979 22.612C87.4576 22.612 88.1588 22.8656 88.6565 23.3266C89.1542 23.7877 89.403 24.3871 89.403 25.0788C89.403 25.4015 89.3125 25.6321 89.1542 25.7704C88.9958 25.9318 88.7018 26.047 88.2493 26.1162L85.8967 26.462C84.5393 26.6926 83.4987 27.0845 82.7975 27.6608C82.0962 28.2602 81.7568 29.0671 81.7568 30.0815C81.7568 30.6809 81.8926 31.2342 82.164 31.7414C82.4355 32.2486 82.8653 32.6405 83.4535 32.9402C84.019 33.263 84.7203 33.4013 85.5799 33.4013ZM85.874 31.9489C85.1501 31.9489 84.562 31.7875 84.1321 31.4187C83.6797 31.0729 83.4761 30.5887 83.4761 29.9663C83.4761 29.2977 83.7023 28.7905 84.2 28.4216C84.6751 28.0528 85.3763 27.7992 86.3038 27.6608L88.2267 27.3611C88.4982 27.315 88.7244 27.2689 88.928 27.2228C89.1316 27.1767 89.2899 27.1075 89.403 27.0153V27.6378C89.403 28.4677 89.2447 29.2285 88.9506 29.874C88.6565 30.5196 88.2493 31.0267 87.7064 31.3956C87.1635 31.7645 86.5527 31.9489 85.874 31.9489Z" fill="#190F29"/>
<path d="M96.7332 33.24C97.0951 33.24 97.5249 33.1938 98 33.0786V31.6492C97.638 31.6953 97.344 31.7184 97.0951 31.7184C96.507 31.7184 96.0998 31.6262 95.8509 31.3956C95.5795 31.1881 95.4664 30.7962 95.4664 30.2429V22.9578H98V21.4823H95.4664V18.5544H93.7923V21.4823H91.8695V22.9578H93.7923V30.3351C93.7923 31.2573 94.0186 31.972 94.471 32.4792C94.9234 32.9864 95.6926 33.24 96.7332 33.24Z" fill="#190F29"/>
<path d="M25.2459 33.8349C25.1943 33.8349 25.1353 33.82 25.0911 33.7902C24.6119 33.4769 24.1031 33.1338 23.4986 32.6938C21.7291 31.4259 20.2766 30.2027 19.0527 28.9646C17.3791 27.2715 16.605 25.5188 16.6787 23.6095C16.6787 21.3869 18.3228 19.485 20.5126 19.1866C20.5126 19.1866 20.6895 19.1643 20.7411 19.1568C20.8517 19.1494 20.9697 19.1419 21.0877 19.1419C21.8544 19.127 22.6138 19.2761 23.2921 19.567C24.0958 19.9101 24.6856 20.4546 25.2386 21.0065C25.7915 20.4546 26.3814 19.9101 27.185 19.567C27.878 19.2761 28.6374 19.1344 29.3821 19.1419C29.5148 19.1419 29.6328 19.1494 29.7507 19.1568C29.795 19.1643 29.9719 19.1792 29.9719 19.1792C32.1617 19.4775 33.8058 21.3794 33.8058 23.6095C33.8795 25.5188 33.098 27.2715 31.4318 28.9646C30.2079 30.2101 28.7554 31.4259 26.9859 32.6938C26.3814 33.1264 25.8726 33.4769 25.3934 33.7902C25.3492 33.82 25.2975 33.8349 25.2459 33.8349Z" fill="#190F29"/>
<path d="M2.15681 31.624C0.721271 30.1465 0 28.3838 0 26.3284C0 24.3243 0.721271 22.6055 2.15681 21.1572C3.59235 19.709 5.29398 18.9849 7.26171 18.9849C9.12441 18.9849 10.749 19.709 12.1425 21.1572C13.5291 22.6055 14.2223 24.3316 14.2223 26.3284C14.2223 28.3838 13.5431 30.1465 12.1776 31.624C10.819 33.0942 9.18043 33.8329 7.26171 33.8329C5.29398 33.8329 3.59235 33.0942 2.15681 31.624Z" fill="#190F29"/>
</svg>
