<svg width="111" height="61" viewBox="0 0 111 61" fill="none" xmlns="http://www.w3.org/2000/svg">
<path fill-rule="evenodd" clip-rule="evenodd" d="M12.7291 0.593186C12.6028 0.646634 12.3755 0.842193 12.2243 1.02772C11.8778 1.45269 11.3213 1.48084 11.145 1.08231C11.0041 0.763901 10.8977 0.760255 10.631 1.06442C10.2719 1.47411 10.093 1.51696 9.54556 1.32437C9.11783 1.17394 9.00499 1.16938 8.85704 1.2961C8.72697 1.40745 8.35411 1.4381 7.45194 1.41178C6.43791 1.38203 6.18507 1.33873 6.00146 1.16322C5.51432 0.697576 4.4908 0.920713 4.23697 1.54773C4.15206 1.75754 3.90087 2.0723 3.67883 2.24712C3.1705 2.64724 2.36118 3.47928 2.13749 3.83153C2.00643 4.03803 1.99329 4.17103 2.0804 4.40773C2.24812 4.863 2.21963 5.14347 1.97297 5.46723C1.82369 5.66313 1.75215 5.92958 1.75215 6.2897C1.75215 6.58258 1.67917 6.92184 1.59006 7.04355C1.38017 7.32994 1.38238 7.71114 1.59757 8.3474C1.76065 8.82934 1.87437 9.56633 1.90463 10.3365C1.91556 10.6166 1.84368 10.7162 1.47612 10.9297C0.847876 11.2946 0.537618 11.8067 0.537618 12.4789C0.537618 12.861 0.587745 13.0469 0.703236 13.0925C0.800619 13.1312 0.870289 13.3058 0.872387 13.5164C0.876251 13.9164 1.12589 14.3342 1.29604 14.2257C1.49908 14.0961 1.21588 14.8692 0.814421 15.5407C0.27263 16.4467 0.317678 16.7806 0.981805 16.7806C1.27605 16.7806 1.29339 16.8615 1.18794 17.7423C1.10911 18.4003 1.12269 18.5667 1.26877 18.7333C1.4303 18.9175 1.42411 18.963 1.19302 19.298C0.982026 19.6038 0.933555 19.849 0.891599 20.8219L0.841693 21.9815L1.27318 22.3342C1.51046 22.5282 1.77169 22.8161 1.85351 22.9742C1.98688 23.2313 1.97319 23.313 1.72245 23.7547C1.3455 24.4186 1.24337 25.1693 1.45801 25.6995C1.75612 26.4359 1.65896 28.7121 1.31094 29.1449C1.11485 29.3889 1.04088 31.1603 1.21709 31.3934C1.35047 31.5699 1.55341 31.3485 3.20163 29.2281C4.21146 27.929 6.13881 25.456 7.48484 23.7323C8.83087 22.0086 11.0042 19.2209 12.3145 17.5374L14.6969 14.4765L16.9224 17.9363C20.2054 23.0403 23.5839 28.5716 26.1565 33.0543L27.0917 34.6837L27.1663 34.1939C27.306 33.2768 27.2675 31.4908 27.1009 31.1583C27.0149 30.9866 26.8968 30.5918 26.8385 30.2808C26.7802 29.9698 26.6716 29.4845 26.5972 29.2025C26.4837 28.7721 26.4966 28.4332 26.6773 27.0964C26.873 25.6483 26.878 25.4372 26.732 24.7769C26.6067 24.2099 26.5962 23.8785 26.6842 23.2671C26.7791 22.6074 26.7654 22.3765 26.5977 21.8048C26.4209 21.2022 26.4132 21.0071 26.5283 20.0645C26.6469 19.0937 26.6364 18.8914 26.4047 17.6992L26.1513 16.3956L26.4473 14.9641C26.7009 13.7373 26.7445 13.2475 26.7518 11.5383C26.7601 9.63095 26.749 9.52508 26.499 9.1098L26.2374 8.67572L26.4725 8.41748C26.7018 8.16551 26.7048 8.11788 26.5942 6.45836C26.4592 4.43223 26.3216 3.65056 26.0563 3.40269C25.9481 3.30172 25.7461 2.96873 25.6073 2.66297L25.355 2.10683L24.3979 2.02956C23.458 1.95367 22.945 2.04107 22.7876 2.3041C22.738 2.38684 22.505 2.31253 22.0947 2.08313C21.6122 1.81338 21.3385 1.73759 20.8473 1.73759C20.4226 1.73759 20.1733 1.68198 20.0805 1.56665C20.0049 1.47263 19.8285 1.39571 19.6885 1.39571C19.5442 1.39571 19.3337 1.26397 19.2022 1.09143C19.014 0.844587 18.8563 0.777349 18.3663 0.735411C18.034 0.707034 17.7 0.734157 17.6241 0.795811C17.3237 1.03923 16.7944 1.05097 16.5107 0.820541C16.2333 0.595352 15.9193 0.57028 14.1735 0.633301C13.8698 0.644355 13.4724 0.617916 13.2902 0.57461C13.108 0.531305 12.8555 0.539624 12.7291 0.593186ZM48.0147 8.3474C48.0147 9.60098 48.0022 10.626 47.9871 10.6252C47.972 10.6244 47.6668 10.4705 47.309 10.2833C46.2118 9.70901 44.8414 9.83574 44.0368 10.5861C43.287 11.2852 42.9357 12.729 42.9357 15.1115C42.9357 18.5453 43.8002 20.0347 45.8741 20.1745C46.8179 20.2381 47.2787 20.0989 47.8781 19.5692C48.1243 19.3518 48.3497 19.1738 48.3788 19.1738C48.408 19.1738 48.4644 19.3533 48.5043 19.5727L48.5768 19.9715H51.1062V6.06815H48.0147V8.3474ZM34.9415 10.0257C34.4614 11.8292 33.6789 14.7629 33.2025 16.545C32.726 18.3272 32.3362 19.8285 32.3362 19.8815C32.3362 19.9344 33.069 19.9634 33.9648 19.9461L35.5934 19.9145L36.0281 17.8063H38.5892L38.9843 19.9715H42.3879L42.3255 19.7151C42.2912 19.574 41.5517 16.6125 40.6825 13.1338L39.1018 6.80891L35.8142 6.7468L34.9415 10.0257ZM80.4758 10.1708H79.5925V12.564H80.4565L80.4938 15.4985C80.5301 18.3631 80.5376 18.4466 80.807 19.0029C81.1971 19.8081 81.7414 20.0976 83.0051 20.172C83.9244 20.2261 85.1238 20.0126 85.2592 19.7706C85.2851 19.7245 85.2295 19.2391 85.1358 18.6921C84.9672 17.7081 84.9623 17.6984 84.6803 17.7758C84.227 17.9003 83.867 17.8439 83.7114 17.6243C83.6035 17.472 83.5673 16.8099 83.5673 14.9924V12.564H85.2235V10.1708H83.5673V7.66362H80.4758V10.1708ZM63.5023 10.1184C62.2706 10.4607 61.5483 11.2183 61.1229 12.6141C60.7763 13.7513 60.7773 16.3663 61.1247 17.4452C61.4232 18.3724 61.8311 18.973 62.4489 19.3955C63.3331 20 63.9229 20.1429 65.515 20.1385C67.1064 20.134 67.8249 19.9381 68.525 19.3178L68.8805 19.0029L68.4908 18.3761C68.2764 18.0313 68.0065 17.5848 67.891 17.3838L67.681 17.0183L66.9489 17.4123C65.6804 18.0947 64.5098 17.8849 64.2526 16.929C64.0128 16.0377 63.8485 16.0968 66.5639 16.0968H68.9929V14.8942C68.9929 12.0947 68.175 10.5963 66.3842 10.1148C65.5957 9.90286 64.2717 9.90446 63.5023 10.1184ZM74.6372 10.0678C74.2235 10.1977 73.8079 10.4434 73.4486 10.7702C73.1945 11.0015 73.1485 10.9695 73.0361 10.4842L72.9636 10.1708H70.4283V19.9715H73.5198V16.3287C73.5198 12.8439 73.5291 12.6808 73.7333 12.568C73.9857 12.4286 74.7299 12.4145 74.9295 12.5453C75.2199 12.7354 75.2864 13.509 75.2864 16.6943V19.9715H78.2777L78.245 15.7834C78.2139 11.793 78.2013 11.5706 77.9779 11.0722C77.6247 10.2841 77.1324 10.0184 75.9551 9.9807C75.4355 9.96406 74.8424 10.0033 74.6372 10.0678ZM105.068 10.0599C104.043 10.3265 103.299 10.9281 102.849 11.8558C102.439 12.7004 102.292 13.5357 102.292 15.0142C102.292 16.4841 102.439 17.3281 102.841 18.1553C103.109 18.7085 103.765 19.3878 104.313 19.6801C105.305 20.2098 107.445 20.3613 108.617 19.9847C109.304 19.7641 110.287 19.2308 110.287 19.0788C110.287 19.0123 109.26 17.2095 109.117 17.0246C109.099 17.002 108.936 17.0928 108.755 17.2264C108.004 17.7783 106.828 17.9698 106.212 17.6407C105.897 17.4729 105.721 17.1387 105.593 16.4672L105.522 16.0968H110.508V15.3816C110.508 14.2832 110.303 12.8453 110.046 12.1355C109.747 11.3111 108.985 10.5093 108.24 10.2349C107.603 10.0003 105.701 9.89534 105.068 10.0599ZM100.176 10.2184C99.9888 10.3025 99.6585 10.5319 99.4417 10.7284L99.0476 11.0856L98.8514 10.2278L96.375 10.1633V19.9715H99.3562V16.5567C99.3562 13.1861 99.3593 13.1402 99.592 13.0115C99.8331 12.8783 101.02 12.9159 101.359 13.0674C101.514 13.1369 101.578 12.9417 101.81 11.6881C101.958 10.8849 102.06 10.1893 102.037 10.1423C101.963 9.99802 100.536 10.0564 100.176 10.2184ZM52.5047 12.6495C52.9607 14.0128 53.6935 16.2051 54.1333 17.5213L54.9328 19.9145L57.5755 19.9781L58.7214 16.3565C59.3517 14.3647 60.054 12.1581 60.2822 11.4529L60.6969 10.1708H57.5559L57.0969 11.9657C56.7317 13.3939 56.3377 15.2324 56.2885 15.739C56.2845 15.7791 56.1105 15.0683 55.9016 14.1595C55.6927 13.2506 55.4511 12.2762 55.3648 11.9942C55.2785 11.7121 55.1282 11.1864 55.0309 10.8261L54.854 10.1708H51.6756L52.5047 12.6495ZM86.6812 14.3019C86.7132 18.3301 86.7202 18.4449 86.9615 18.9108C87.4096 19.7762 88.2094 20.1975 89.4063 20.1988C90.2158 20.1997 90.774 20.0075 91.2926 19.5494L91.7289 19.1639L91.9171 19.9145L94.3876 19.9791V10.1708H91.4065V13.7901C91.4065 17.3374 91.4019 17.4125 91.1759 17.5582C90.8426 17.773 90.0974 17.7574 89.8779 17.531C89.717 17.3651 89.6913 16.9131 89.6631 13.7567L89.631 10.1708H86.6485L86.6812 14.3019ZM37.6994 13.3617C37.8524 14.2079 38.0033 14.9899 38.035 15.0996C38.0859 15.2761 38.0045 15.2991 37.3314 15.2991H36.5701L36.825 14.131C36.9652 13.4885 37.143 12.5526 37.2199 12.0512C37.3053 11.4956 37.372 11.273 37.3906 11.4814C37.4075 11.6694 37.5464 12.5156 37.6994 13.3617ZM65.6152 12.3713C65.8013 12.5118 65.9962 13.2173 66.0069 13.7891C66.0116 14.0356 65.9749 14.0455 65.0601 14.0455H64.1083L64.1559 13.3659C64.2149 12.5254 64.4423 12.2221 65.0141 12.2221C65.2359 12.2221 65.5065 12.2892 65.6152 12.3713ZM107.123 12.4302C107.227 12.5493 107.336 12.939 107.376 13.3419L107.448 14.0455H105.508L105.572 13.4099C105.663 12.4968 105.869 12.2221 106.463 12.2221C106.785 12.2221 107 12.2899 107.123 12.4302ZM47.8012 12.568C48.0019 12.6789 48.0147 12.8296 48.0147 15.0712C48.0147 17.3601 48.0055 17.4614 47.788 17.5815C47.4465 17.7702 46.6955 17.747 46.4965 17.5417C46.0392 17.0697 46.0605 13.2066 46.5234 12.6789C46.7457 12.4252 47.4345 12.3655 47.8012 12.568ZM12.4449 21.7737C11.3119 23.1956 8.39783 26.831 5.96922 29.8524C1.72874 35.1276 1.55043 35.3684 1.47711 35.9189C1.41318 36.3984 1.44057 36.5589 1.64394 36.8987L1.88729 37.3049L2.28047 36.815C2.83142 36.1286 9.03679 29.6853 12.037 26.6845L14.5377 24.1831L17.7727 29.5703C19.5519 32.5333 21.8836 36.4191 22.9543 38.2055C26.9953 44.9472 26.9314 44.8477 27.1036 44.6701C27.1965 44.574 27.2376 40.6657 27.1559 39.687L27.0846 38.8323L23.6225 33.3621C19.2416 26.4402 18.6058 25.434 16.4626 22.0295C15.4982 20.4976 14.663 19.2316 14.6068 19.2162C14.5506 19.2009 13.5778 20.3517 12.4449 21.7737ZM66.343 25.9545C66.343 27.2395 66.3204 28.2908 66.2927 28.2908C66.2651 28.2908 66.0638 28.1656 65.8455 28.0127C65.2692 27.609 64.3772 27.4447 63.5645 27.5924C61.9064 27.8939 61.3186 28.9982 61.1913 32.0515C61.0859 34.5795 61.5056 36.3552 62.3904 37.1252C62.9369 37.6009 63.4412 37.7745 64.299 37.7821C65.1765 37.7898 65.6659 37.6142 66.2558 37.0795L66.6495 36.7228L66.7947 37.5217H69.3242V23.6183H66.343V25.9545ZM33.2195 37.5217H36.4214V32.2794H36.7362C37.2533 32.2794 37.7433 32.5126 37.9051 32.8355C37.9887 33.0023 38.2387 33.9327 38.4609 34.903C38.6829 35.8731 38.913 36.8593 38.9722 37.0943L39.0798 37.5217H40.7944C42.3763 37.5217 42.5044 37.5063 42.4499 37.3223C42.4174 37.2126 42.1854 36.3023 41.9342 35.2994C41.3977 33.1566 41.084 32.4099 40.5122 31.9144L40.0929 31.551L40.6112 31.3031C41.2464 30.9994 41.7604 30.3781 41.9586 29.6747C42.0413 29.381 42.1037 28.6635 42.0988 28.0628C42.0823 26.0458 41.3464 25.0479 39.513 24.5562C39.0994 24.4453 37.999 24.3746 36.0626 24.3342L33.2195 24.2751V37.5217ZM38.2941 27.2627C38.7164 27.496 38.8674 28.5534 38.5798 29.2638C38.383 29.75 38.0663 29.8862 37.1319 29.8862H36.4214V27.1511H37.2568C37.7162 27.1511 38.1831 27.2014 38.2941 27.2627ZM45.9886 27.6126C43.8018 27.9913 42.8123 29.7994 42.9669 33.1342C43.1196 36.4293 44.4585 37.7689 47.6157 37.7849C48.8233 37.7911 49.7931 37.5326 50.4952 37.0173L50.985 36.658L49.7622 34.5803L49.2039 34.9385C48.7378 35.2377 48.511 35.3036 47.8281 35.3392C47.1488 35.3746 46.9714 35.3459 46.7796 35.1697C46.516 34.9273 46.2481 34.3341 46.2481 33.9925C46.2481 33.7668 46.3089 33.7609 48.6772 33.7609H51.1062L51.1043 32.5928C51.0991 29.4858 50.1569 27.967 48.0147 27.6133C47.2029 27.4792 46.7595 27.4791 45.9886 27.6126ZM54.805 27.6538C53.9505 27.8247 53.6223 27.9564 52.8433 28.4411L52.3169 28.7686L52.8353 29.7832C53.1203 30.3413 53.3882 30.7979 53.4305 30.7979C53.4729 30.7979 53.7249 30.6755 53.9906 30.5259C54.9903 29.9629 56.2708 29.8685 56.5151 30.3395C56.5766 30.458 56.6268 30.7635 56.6268 31.0183V31.4817H55.8219C54.1346 31.4817 53.0378 32.0097 52.5059 33.0779C52.2133 33.6654 52.1966 33.7742 52.2355 34.8436C52.2783 36.028 52.42 36.4884 52.9133 37.0482C53.7033 37.9446 55.5317 38.0662 56.6017 37.2935L57.0736 36.9528L57.1992 37.2372C57.3218 37.5152 57.3522 37.5217 58.5281 37.5217H59.7314L59.6972 33.5615C59.6599 29.2353 59.6403 29.0941 58.9745 28.3766C58.3243 27.6759 56.3803 27.339 54.805 27.6538ZM70.2075 27.8729C70.2075 27.9565 70.8211 30.1488 71.571 32.7447C72.9019 37.3513 72.9417 37.4656 73.2272 37.5007C73.3882 37.5206 73.5198 37.6 73.5198 37.677C73.5198 37.7976 72.8026 40.0474 72.5793 40.6272C72.5083 40.8113 72.6196 40.8266 74.0325 40.8265L75.5624 40.8263L75.9931 39.0886C76.23 38.1328 77.0126 35.2429 77.7321 32.6667C78.4517 30.0905 79.0404 27.9223 79.0404 27.8486C79.0404 27.7508 78.6174 27.7232 77.4727 27.7464L75.9048 27.7779L75.3895 30.513C75.1062 32.0173 74.8298 33.5045 74.7756 33.8179C74.6798 34.3709 74.6578 34.2947 74.0352 31.2538C73.6822 29.5301 73.3689 28.0301 73.3388 27.9204C73.29 27.7427 73.1164 27.721 71.7458 27.721C70.5375 27.721 70.2075 27.7535 70.2075 27.8729ZM47.7999 30.1142C47.9066 30.2709 48.0251 30.6684 48.0633 30.9974L48.1327 31.5957H46.1432L46.1957 31.2538C46.2245 31.0657 46.2735 30.7486 46.3046 30.549C46.3921 29.9873 46.6583 29.7555 47.1698 29.7953C47.4872 29.82 47.659 29.907 47.7999 30.1142ZM66.0173 30.1741L66.343 30.3479V35.0261L65.9601 35.1913C65.4425 35.4145 65.0935 35.3989 64.7819 35.1389C64.5302 34.9287 64.52 34.8571 64.4857 33.0635C64.4662 32.0417 64.4809 31.0368 64.5184 30.8304C64.6536 30.0862 65.3123 29.7978 66.0173 30.1741ZM5.60629 35.1956C3.57759 36.7995 1.89292 38.197 1.86256 38.3011C1.8322 38.4052 1.71052 38.638 1.59227 38.8182C1.3031 39.2589 1.2299 40.8193 1.29195 45.2141C1.2999 45.7782 1.3009 46.368 1.29427 46.5247C1.28754 46.6814 1.29239 47.0404 1.30498 47.3224C1.32651 47.8034 1.28511 48.3023 0.974076 51.3111C0.906063 51.9692 0.881882 53.0119 0.920527 53.6282C0.977389 54.5368 0.954975 54.845 0.802165 55.258C0.618882 55.7533 0.620206 55.7792 0.85174 56.2043C0.985669 56.4505 1.08968 56.8416 1.08968 57.0996C1.08968 57.4897 1.12015 57.5495 1.29449 57.5024C1.44178 57.4627 1.56489 57.5618 1.73294 57.8559C1.86146 58.0807 2.09222 58.3238 2.2458 58.396C2.42467 58.4801 2.52503 58.62 2.52503 58.7851C2.52503 59.0949 3.17889 60.0134 3.43571 60.0644C3.53618 60.0844 3.72907 59.9693 3.86444 59.8086C3.9998 59.6479 4.21345 59.5125 4.3391 59.5077C4.46486 59.5029 4.74044 59.4347 4.95166 59.3559C5.28753 59.2308 5.3805 59.2401 5.6933 59.4306L6.05081 59.6483L6.27495 59.269C6.39817 59.0603 6.49919 58.8498 6.49941 58.8012C6.49963 58.7526 6.64648 58.791 6.82557 58.8866C7.00477 58.9822 7.30862 59.0605 7.50074 59.0605C7.7591 59.0605 7.94249 59.1646 8.20417 59.4594C8.4091 59.6903 8.66348 59.8583 8.80812 59.8583C8.95508 59.8583 9.1992 59.6938 9.40026 59.4594C9.67662 59.1372 9.82204 59.0605 10.1566 59.0605C10.3844 59.0605 10.6922 59.0129 10.8407 58.9545C11.0861 58.8582 11.1291 58.8908 11.3136 59.3133C11.7269 60.2593 12.7105 60.4862 13.474 59.8117C13.8419 59.4866 13.9635 59.4379 14.2185 59.5134C14.3861 59.563 14.6019 59.5582 14.698 59.5027C14.8316 59.4254 14.929 59.4958 15.1118 59.8009C15.2669 60.06 15.4348 60.1997 15.5903 60.1988C15.8988 60.1971 16.8158 59.9353 17.3537 59.6955C17.6148 59.5791 17.907 59.5342 18.1269 59.5767C18.406 59.6308 18.5843 59.5723 18.9767 59.2979C19.589 58.8699 20.0104 58.856 20.566 59.2455C20.8004 59.4099 21.1316 59.5517 21.3021 59.5606C21.4725 59.5695 21.727 59.6865 21.8675 59.8209C22.0939 60.0371 22.2607 60.0666 23.325 60.0793C24.7349 60.0962 25.2089 59.9686 25.4386 59.5102C25.5292 59.3292 25.7147 59.1224 25.8506 59.0506C26.2948 58.816 27.0308 57.9991 27.1588 57.5987C27.2277 57.3833 27.2947 57.0432 27.3076 56.8427C27.3206 56.6424 27.3767 56.4056 27.4323 56.3164C27.4878 56.2273 27.5358 55.8212 27.5388 55.4137C27.5431 54.8442 27.6116 54.5392 27.8351 54.0937C28.1426 53.4806 28.1356 53.0771 27.8067 52.448C27.57 51.9953 27.3972 51.07 27.4346 50.4554C27.4537 50.1425 27.4187 49.6209 27.3571 49.2964C27.2954 48.9717 27.2103 48.1172 27.1683 47.3974L27.0917 46.0887L20.5222 39.1966C16.9089 35.406 13.8871 32.2989 13.8068 32.292C13.7266 32.2851 13.354 32.5021 12.9787 32.7744C12.6035 33.0465 11.5105 33.8184 10.5499 34.4896L8.80327 35.7099L8.88011 35.1628C8.9224 34.8619 9.04253 34.09 9.1472 33.4475C9.25176 32.8051 9.32772 32.2794 9.31602 32.2794C9.30431 32.2794 7.63489 33.5917 5.60629 35.1956ZM56.6268 34.4325C56.6268 35.6697 56.6108 35.6983 55.9172 35.6983C55.3874 35.6983 55.1747 35.392 55.1679 34.6198C55.1601 33.7225 55.4824 33.3765 56.3784 33.3206C56.6203 33.3055 56.6268 33.3347 56.6268 34.4325ZM33.2195 55.0872L36.4491 55.0511C39.5717 55.0161 39.6977 55.006 40.2574 54.7448C40.8985 54.4456 41.506 53.8219 41.7953 53.1655C41.9406 52.8358 41.9862 52.4035 41.9909 51.3111C41.9965 50.0625 41.9679 49.8303 41.7595 49.4307C41.4549 48.8463 41.1234 48.5316 40.5189 48.2524L40.0342 48.0285L40.3533 47.8566C41.2299 47.3842 41.6108 46.5893 41.6108 45.2321C41.6108 43.6291 41.1549 42.7307 40.0769 42.2088C39.461 41.9108 39.4415 41.909 36.3386 41.8728L33.2195 41.8364V55.0872ZM72.5261 45.8341L72.1266 45.5542C71.374 45.027 70.3747 44.9027 69.3688 45.2111C67.9205 45.6549 67.3627 47.2771 67.4747 50.7185C67.5455 52.8939 67.7774 53.7141 68.5456 54.5071C69.1469 55.1277 69.5944 55.2982 70.625 55.2991C71.4282 55.2999 71.8867 55.1302 72.4425 54.6265C72.8602 54.2479 72.8933 54.2557 73.0098 54.7585L73.0824 55.0719H75.6194L75.5624 41.9092L72.5261 41.8459V45.8341ZM38.1506 44.8802C38.4072 45.1451 38.4296 45.2393 38.3858 45.8658C38.3202 46.8004 38.1079 46.9805 37.0717 46.9805H36.311V44.5873H37.0889C37.7771 44.5873 37.8995 44.6211 38.1506 44.8802ZM51.4774 45.2058C50.8147 45.3621 49.8347 45.8002 49.3956 46.1368C49.1791 46.3027 49.1822 46.3188 49.5887 47.1339C50.2433 48.4466 50.1636 48.3974 50.979 47.9905C51.8947 47.5335 52.8174 47.4316 53.1931 47.746C53.3963 47.9159 53.4609 48.0856 53.4691 48.4714L53.4801 48.9749L52.4312 49.0394C51.161 49.1176 50.6179 49.2683 50.0338 49.705C49.2049 50.3248 48.8263 51.7374 49.1105 53.1501C49.2955 54.0699 49.7183 54.681 50.413 55.032C50.9216 55.2891 51.0997 55.3187 51.9223 55.2831C52.7684 55.2466 52.9031 55.2078 53.3729 54.8659C53.6577 54.6586 53.9034 54.5048 53.9188 54.524C53.9343 54.5433 54.0052 54.6744 54.0763 54.8154C54.1977 55.0565 54.2746 55.0719 55.3609 55.0719H56.5164V51.2174C56.5164 46.9192 56.4733 46.6018 55.7951 45.9017C55.5957 45.696 55.192 45.4405 54.898 45.3338C54.1672 45.0689 52.3474 45.0008 51.4774 45.2058ZM62.4292 45.2321C62.1287 45.3273 61.6757 45.5523 61.4225 45.7321L60.9621 46.059L60.7594 45.3281L58.283 45.2636V55.0719H61.2641V51.4885C61.2641 47.9148 61.2648 47.9047 61.5095 47.7278C61.6445 47.6302 61.9646 47.5504 62.2209 47.5504C63.0319 47.5504 63.0307 47.5443 63.0307 51.5644V55.0719H66.1411L66.1011 50.9407C66.058 46.4915 66.0339 46.3009 65.4334 45.641C64.9319 45.09 63.4952 44.8945 62.4292 45.2321ZM79.482 45.144C78.4693 45.381 77.635 46.0526 77.3616 46.8507C77.1632 47.4301 77.1948 49.1014 77.4136 49.6061C77.759 50.4025 78.4343 50.8974 79.7466 51.3158C80.1276 51.4373 80.5261 51.6354 80.6321 51.7564C81.0573 52.2413 80.6227 52.7875 79.8089 52.7909C79.3234 52.7931 78.1816 52.493 77.8673 52.2807C77.6481 52.1327 77.6211 52.15 77.456 52.5429C77.3588 52.7743 77.1549 53.3131 77.0027 53.7402L76.7263 54.5169L77.2235 54.7439C78.3883 55.2757 80.7516 55.4776 81.8433 55.1384C83.238 54.7052 84.0464 53.2587 83.8519 51.5442C83.6919 50.1326 83.0879 49.4999 81.3884 48.9639C80.1499 48.5734 79.8885 48.2705 80.3653 47.7783C80.652 47.4824 81.4183 47.4806 82.2411 47.7737C82.5745 47.8925 82.8543 47.9806 82.863 47.9694C82.8717 47.9583 83.0106 47.5 83.1717 46.9509C83.3328 46.402 83.4918 45.8796 83.525 45.7903C83.6799 45.3737 80.6031 44.8819 79.482 45.144ZM47.1866 45.427C46.883 45.5743 46.5352 45.81 46.4137 45.9512L46.1929 46.2078L45.9525 45.3281L43.4878 45.2636V55.0719H46.4689V48.2284L46.7521 48.1173C47.142 47.9644 47.8923 47.9867 48.2907 48.1632L48.622 48.3099L48.915 46.8191C49.1301 45.7243 49.1741 45.3059 49.0806 45.2443C48.7972 45.0581 47.7367 45.1603 47.1866 45.427ZM72.3352 47.7107C72.513 47.85 72.528 48.0785 72.5008 50.2382L72.4709 52.6123L72.0616 52.773C71.8365 52.8614 71.5267 52.9012 71.373 52.8613C70.8563 52.7275 70.7274 52.3401 70.6737 50.7609C70.6206 49.1961 70.7597 48.0928 71.0523 47.7591C71.2715 47.5092 72.0407 47.4802 72.3352 47.7107ZM38.2647 49.8767C38.5497 50.1298 38.5745 50.216 38.5745 50.9568C38.5745 51.6799 38.5441 51.7932 38.2756 52.0702C38.0072 52.3473 37.8947 52.3795 37.1715 52.3862L36.3662 52.3937L36.3042 49.6017H37.1295C37.8429 49.6017 37.9969 49.6391 38.2647 49.8767ZM53.5353 51.9339C53.5353 53.1424 53.4696 53.2485 52.7207 53.2485C52.209 53.2485 51.9895 52.9234 51.9895 52.1658C51.9895 51.2833 52.3577 50.879 53.1764 50.8624L53.5353 50.8553V51.9339Z" fill="#030712"/>
<path d="M87.5059 44.9577V47.5504H87.0763V44.9577H87.5059ZM88.2943 44.9577V45.3139H86.2948V44.9577H88.2943Z" fill="#030712"/>
<path d="M88.8015 44.9577H89.1879L89.9142 46.9574L90.6388 44.9577H91.0253L90.066 47.5504H89.759L88.8015 44.9577ZM88.6255 44.9577H88.993L89.0568 46.6885V47.5504H88.6255V44.9577ZM90.8338 44.9577H91.2029V47.5504H90.7699V46.6885L90.8338 44.9577Z" fill="#030712"/>
</svg>
