<svg width="132" height="49" viewBox="0 0 132 49" fill="none" xmlns="http://www.w3.org/2000/svg">
<path fill-rule="evenodd" clip-rule="evenodd" d="M18.0152 11.2351L18.0691 22.1964H19.9401H21.8111V11.2938V0.391106L19.8862 0.33241L17.9616 0.273926L18.0152 11.2351ZM56.2669 11.2428L56.3207 22.1964H58.1917H60.0627L60.1679 17.3055C60.2582 13.1179 60.3267 12.318 60.6459 11.7433C61.3554 10.4649 63.0528 9.89353 64.0688 10.5909C64.9893 11.223 65.0473 11.5652 65.156 16.9998L65.26 22.1964H67.131H69.002L69.0573 16.502C69.1186 10.1913 69.0311 9.59396 67.8368 8.17356C66.816 6.9596 65.7574 6.52431 63.8047 6.51616C62.3801 6.51004 62.0001 6.58707 61.1541 7.05293L60.1667 7.59684V3.94313V0.289212H58.1899H56.2132L56.2669 11.2428ZM1.17616 11.63L1.23 22.1964L5.1799 22.2557C10.8052 22.3401 12.4793 21.979 14.2927 20.2898C15.4833 19.1805 15.9401 18.1638 16.0488 16.3795C16.1265 15.1048 16.0631 14.6614 15.6777 13.783C15.2513 12.8114 13.8657 11.2938 13.4051 11.2938C13.2988 11.2938 13.5273 10.8342 13.9129 10.2724C14.6956 9.13217 14.9592 7.93676 14.7875 6.30564C14.5726 4.2645 13.3972 2.77828 11.2087 1.78053C9.98818 1.22399 9.86635 1.21013 5.54184 1.13778L1.12231 1.06381L1.17616 11.63ZM9.08448 5.25389C10.1356 5.69 10.5503 6.27915 10.5503 7.33559C10.5503 8.10631 10.4385 8.37287 9.88839 8.91229C9.25142 9.53711 9.15205 9.5642 7.25506 9.63227L5.28385 9.70278V7.33966V4.97633H6.84967C7.71096 4.97633 8.71652 5.10125 9.08448 5.25389ZM44.8868 6.68937C41.3329 7.55017 39.1698 10.532 39.1698 14.5698C39.1698 17.4856 40.3473 19.9093 42.4164 21.2529C43.922 22.2302 45.3331 22.5628 47.5673 22.4666C49.694 22.3749 50.7661 21.982 52.222 20.7603C53.1209 20.0061 54.4955 17.6061 54.251 17.2179C54.1699 17.0893 53.3527 16.9998 52.26 16.9998H50.4065L50.0755 17.6273C49.4733 18.7689 47.5511 19.3079 45.7907 18.8288C45.0826 18.6358 43.5355 17.2525 43.5355 16.8121C43.5355 16.7094 43.4788 16.4806 43.4093 16.3033C43.2962 16.0143 43.8584 15.9809 48.8411 15.9809H54.3992L54.3071 13.7891C54.2314 11.9893 54.119 11.3916 53.6778 10.4474C52.207 7.29768 48.6506 5.77742 44.8868 6.68937ZM76.5899 6.71587C74.2356 7.36147 72.176 9.07858 71.3052 11.1222C70.4568 13.1126 70.5069 16.2277 71.4179 18.1278C72.1166 19.5844 73.5371 20.9814 75.0751 21.7236C76.2478 22.2893 76.7178 22.3957 78.3578 22.466C80.6808 22.5657 82.2371 22.1889 83.8029 21.1479C88.2062 18.2203 88.3274 11.2153 84.0295 8.03621C83.4904 7.6376 82.6017 7.14768 82.0545 6.94757C80.6559 6.43606 78.0179 6.32419 76.5899 6.71587ZM107.715 6.61254C106.086 7.01502 104.949 7.89804 104.184 9.35512C103.592 10.4821 103.577 12.3429 104.151 13.4335C104.65 14.3809 106.167 15.4688 107.429 15.783C110.327 16.505 111.118 16.8168 111.311 17.3139C111.566 17.9729 111.254 18.7583 110.664 18.9419C109.913 19.1759 108.604 19.0842 108.103 18.7626C107.847 18.5975 107.547 18.1561 107.438 17.782L107.239 17.1017L105.323 17.043L103.408 16.9845V17.8139C103.408 19.4369 104.501 21.0515 106.214 21.9596C106.929 22.3384 107.381 22.4002 109.436 22.4002C111.726 22.4002 111.875 22.3735 112.971 21.7676C114.525 20.9078 115.259 19.8543 115.405 18.2743C115.566 16.534 115.346 15.6711 114.512 14.7657C113.633 13.8115 112.532 13.2848 110.258 12.73C109.307 12.4979 108.359 12.1572 108.151 11.973C107.397 11.3041 107.829 10.2184 108.96 9.94019C110.013 9.68117 110.786 10.2402 111.186 11.5485C111.279 11.854 111.564 11.9051 113.172 11.9051H115.05V11.0834C115.05 9.4776 113.892 7.79696 112.25 7.01747C111.203 6.52084 108.913 6.31623 107.715 6.61254ZM122.192 6.60175C120.09 7.04091 118.047 8.62597 117.046 10.5952C115.945 12.7594 115.903 16.1563 116.95 18.3397C117.607 19.7108 119.067 21.1817 120.413 21.8296C121.502 22.3541 121.791 22.4002 123.989 22.4002C126.132 22.4002 126.499 22.3452 127.537 21.8681C128.173 21.5755 129.048 20.9794 129.481 20.5435C130.347 19.6715 131.265 18.062 131.265 17.4141C131.265 17.0292 131.136 16.9998 129.446 16.9998H127.627L127.029 17.7341C125.237 19.9362 121.232 19.1934 120.551 16.5323L120.411 15.9878L125.89 15.9334L131.369 15.879L131.346 13.943C131.315 11.2995 130.795 9.96057 129.203 8.4232C128.419 7.66613 127.679 7.16705 126.994 6.9331C125.768 6.51432 123.394 6.35068 122.192 6.60175ZM24.6176 12.4794C24.6176 19.1331 24.7315 19.7713 26.1695 21.1811C27.2083 22.1993 28.0927 22.5013 30.0227 22.4964C31.4551 22.4929 32.7889 22.046 33.3489 21.3817C33.6427 21.0332 33.667 21.0462 33.7668 21.6042L33.8728 22.1964H35.6378H37.4028V14.5544V6.91232H35.4278H33.4529L33.3489 11.9051C33.24 17.1425 33.2109 17.3026 32.2078 18.2225C31.5037 18.8683 30.0824 18.9307 29.4221 18.3448C28.6972 17.7019 28.5698 16.7025 28.5687 11.6504L28.5675 6.81042H26.5925H24.6176V12.4794ZM88.7305 7.09634C88.6656 7.26202 88.6453 9.90188 88.6854 12.9628C88.755 18.2886 88.7791 18.5743 89.2473 19.5965C89.8175 20.841 90.968 21.9392 92.0779 22.2983C92.5552 22.4528 93.4928 22.5155 94.4847 22.4591C95.8031 22.3843 96.2686 22.2636 96.9552 21.8182L97.8011 21.2694L98.004 21.7925C98.2007 22.2997 98.2552 22.3138 99.8197 22.2559L101.433 22.1964L101.487 14.5034L101.542 6.81042H99.5805H97.6192L97.551 11.7523C97.4918 16.0432 97.4336 16.7826 97.1088 17.3654C96.6847 18.1272 95.6364 18.8321 94.9258 18.8331C94.2882 18.8341 93.3151 18.3252 93.0903 17.8734C92.9908 17.6731 92.8625 15.125 92.8053 12.2108L92.7014 6.91232L90.7749 6.85362C89.2278 6.80654 88.8253 6.85444 88.7305 7.09634ZM48.7939 10.4138C49.4246 10.727 50.1859 11.7922 50.1871 12.3636C50.188 12.6889 49.887 12.7203 46.7686 12.7203H43.3492L43.5648 12.1142C43.8303 11.3675 45.0101 10.3231 45.7741 10.158C46.0865 10.0906 46.4356 10.005 46.5499 9.96791C46.8992 9.8544 48.1796 10.1089 48.7939 10.4138ZM125.155 10.1676C126.023 10.3382 127.315 11.735 127.315 12.503C127.315 12.6481 126.174 12.7203 123.885 12.7203C121.998 12.7203 120.455 12.6516 120.455 12.5674C120.457 12.2648 121.352 10.9816 121.77 10.6824C122.29 10.3109 123.768 9.87844 124.197 9.97239C124.368 10.0099 124.799 10.0977 125.155 10.1676ZM80.228 10.2985C82.9803 11.0439 83.9856 15.2558 81.9529 17.5252C81.0708 18.5101 80.2846 18.863 78.973 18.863C76.9538 18.863 75.6235 17.8734 75.036 15.9342C74.6576 14.6854 74.6566 14.6556 74.9476 13.3255C75.2206 12.0779 76.1234 10.9822 77.3157 10.4511C78.2784 10.0223 79.0576 9.98157 80.228 10.2985ZM9.76823 13.5603C12.2192 14.1653 12.4654 17.1934 10.141 18.1453C9.71272 18.3208 8.67141 18.4263 7.36939 18.4263H5.28385V15.879V13.3316H7.06276C8.04129 13.3316 9.25869 13.4345 9.76823 13.5603Z" fill="#030712"/>
<path fill-rule="evenodd" clip-rule="evenodd" d="M31.5328 26.3832C31.4779 26.5234 31.4576 31.4524 31.4873 37.3367L31.5414 48.0356H33.4124H35.2834L35.3372 37.082L35.3909 26.1284H33.5115C32.1997 26.1284 31.6023 26.2052 31.5328 26.3832ZM5.93851 26.7365C2.28277 27.4952 0.127789 31.036 1.17431 34.5644C1.81377 36.7207 3.30144 37.8311 8.04984 39.6968C9.98654 40.4578 10.8564 41.298 10.8564 42.4078C10.8564 43.518 10.0192 44.4659 8.86954 44.6572C6.69876 45.0183 4.99801 43.99 4.7157 42.1455L4.57247 41.2087H2.48879H0.404907L0.51052 42.4824C0.77059 45.623 2.96465 47.8053 6.40356 48.3439C10.0317 48.9121 13.2065 47.5775 14.5285 44.9289C15.0035 43.977 15.1085 43.4926 15.1129 42.2338C15.1241 38.933 13.64 37.2909 9.14708 35.6333C7.17608 34.906 5.70068 34.1257 5.4587 33.6822C5.3402 33.4654 5.24332 32.9078 5.24332 32.4436C5.24332 31.7821 5.37492 31.4703 5.85099 31.0036C6.37529 30.4897 6.61561 30.408 7.60205 30.408C9.071 30.408 9.92085 31.0334 10.177 32.3026L10.3497 33.1591H12.4222H14.4944L14.4487 32.3439C14.2618 29.0226 11.969 26.8794 8.36167 26.6544C7.50413 26.6008 6.41375 26.6379 5.93851 26.7365ZM20.7941 32.5141C18.7229 33.0886 17.1398 34.6313 16.6758 36.5277C16.2941 38.0869 16.369 38.1519 18.5418 38.1519C20.3943 38.1519 20.4193 38.1454 20.4193 37.6538C20.4193 37.3798 20.6373 36.9072 20.9039 36.6035C21.2916 36.1615 21.6134 36.0331 22.5171 35.9596C24.0303 35.8367 24.6311 36.2787 24.6604 37.5367L24.681 38.4166L22.1863 38.8692C19.3707 39.3801 18.5418 39.6718 17.5313 40.5071C15.6773 42.0394 15.5451 45.1987 17.26 46.9914C18.147 47.9186 19.283 48.3317 20.96 48.3368C22.6244 48.3419 23.547 48.0974 24.5114 47.3961L25.1731 46.9148L25.239 47.4752L25.3047 48.0356H27.0717H28.8388L28.8945 42.7371C28.9575 36.7478 28.8245 35.713 27.8268 34.4305C26.4662 32.682 23.3 31.8192 20.7941 32.5141ZM44.3266 32.4784C43.9264 32.5883 43.2543 32.9463 42.8331 33.274L42.0672 33.8699L42.0015 33.3107L41.9358 32.7515H40.1688H38.4017V40.3936V48.0356H40.3767H42.3516L42.4556 43.0428C42.5265 39.6418 42.6408 37.9108 42.8146 37.6135C43.2593 36.853 44.3247 36.114 44.9764 36.114C45.7386 36.114 46.7107 36.5872 46.9493 37.0745C47.0474 37.2748 47.1757 39.823 47.2343 42.7371L47.341 48.0356H49.212H51.083L51.193 43.2466C51.2952 38.8012 51.3364 38.3958 51.7667 37.5958C52.7243 35.8161 54.8815 35.6019 55.8108 37.1943C55.9938 37.5077 56.1035 39.2051 56.1763 42.839L56.2802 48.0356H58.1512H60.0222L60.0775 42.4441C60.1395 36.2049 60.0218 35.3869 58.866 34.0193C57.0544 31.8761 53.2885 31.6853 51.2019 33.6313L50.3774 34.4L49.612 33.6268C48.4212 32.424 46.2466 31.9516 44.3266 32.4784ZM67.7142 32.5292C64.5688 33.2932 62.3753 35.6045 61.7858 38.7761C61.0912 42.5117 62.7928 45.969 66.1149 47.5722C67.4343 48.2088 67.6069 48.2394 69.8926 48.2394C72.0969 48.2394 72.3917 48.1923 73.5937 47.6482C75.2608 46.8936 76.9632 45.1449 77.5644 43.5696C79.0996 39.5474 77.6091 35.1212 74.1105 33.3136C72.1008 32.2751 69.8808 32.003 67.7142 32.5292ZM86.2163 32.4206C85.4451 32.6195 84.3118 33.188 84.1383 33.4633C83.9183 33.8124 83.6497 33.6906 83.5803 33.21C83.5173 32.7756 83.4208 32.7515 81.7467 32.7515H79.9796V40.3936V48.0356H81.9546H83.9295L84.0335 43.0428C84.1424 37.8055 84.1715 37.6453 85.1746 36.7254C85.9386 36.0248 87.5443 36.0009 88.2374 36.6797C88.7021 37.1348 88.7122 37.2418 88.7731 42.377C88.8141 45.8072 88.9145 47.7038 89.0648 47.8815C89.2309 48.0776 89.7881 48.1363 91.0815 48.0941L92.8688 48.0356L92.9243 42.5462C92.9856 36.4764 92.8713 35.6592 91.7495 34.1411C91.3998 33.6679 90.7302 33.121 90.182 32.861C89.1513 32.3717 87.2323 32.1587 86.2163 32.4206ZM72.2023 36.6113C74.6558 38.2028 74.5722 42.5814 72.0576 44.1967C71.2504 44.7151 69.9517 44.8677 68.8124 44.5781C66.8953 44.0905 65.851 42.5763 65.8569 40.2917C65.8621 38.1668 66.6733 36.9231 68.5457 36.1684C69.4974 35.7849 71.2568 35.9979 72.2023 36.6113ZM24.7209 42.3316C24.4787 43.7948 23.2229 44.8769 21.7672 44.8769C20.6446 44.8769 20.2114 44.5716 20.2114 43.7805C20.2114 42.8368 20.7455 42.4502 22.6431 42.0206C24.9207 41.5048 24.8594 41.4957 24.7209 42.3316Z" fill="#030712"/>
</svg>
