<svg width="161" height="31" viewBox="0 0 161 31" fill="none" xmlns="http://www.w3.org/2000/svg">
<path fill-rule="evenodd" clip-rule="evenodd" d="M114.567 3.77207V7.11592H112.704H110.841V9.23142V11.3469H112.699H114.558L114.596 18.8333L114.633 26.3198L115.099 27.2561C115.884 28.8335 117.238 29.6133 119.751 29.9342C120.854 30.0751 124.428 29.9993 124.869 29.8258C125.05 29.7546 125.079 29.4041 125.079 27.3233V24.9036L123.681 24.9674C122.578 25.0177 122.158 24.9826 121.696 24.8019C120.685 24.4057 120.688 24.4287 120.688 17.4177V11.3469H124.214H127.741V18.5557C127.741 24.7753 127.77 25.8659 127.954 26.5021C128.418 28.1045 129.516 29.1107 131.4 29.6601C132.339 29.9339 132.763 29.9706 134.993 29.9705C136.384 29.9704 137.686 29.9247 137.888 29.8687L138.254 29.767V27.3353V24.9036L136.855 24.9674C135.752 25.0177 135.332 24.9826 134.871 24.8019C133.859 24.4057 133.862 24.4287 133.862 17.4177V11.3469H136.058H138.254V9.23142V7.11592H136.058H133.862V3.77207V0.428223H130.801H127.741V3.77207V7.11592H124.214H120.688V3.77207V0.428223H117.627H114.567V3.77207ZM10.3528 6.59155C6.04498 6.9288 2.65071 9.53741 1.19464 13.6297C0.627615 15.223 0.390747 16.7241 0.390747 18.7232C0.390747 22.1335 1.33024 24.7968 3.28174 26.9185C5.38082 29.2007 8.07726 30.3181 11.485 30.3181C14.8407 30.3181 17.2992 29.375 19.2906 27.324C20.695 25.8775 21.712 23.771 22.0187 21.6734L22.1125 21.0319L19.1513 21.0688L16.19 21.1055L16.0118 21.82C15.6145 23.4133 14.7416 24.5727 13.4984 25.1592C12.9383 25.4233 12.612 25.473 11.4357 25.473C10.1355 25.473 9.98898 25.4448 9.32535 25.0679C7.53486 24.0507 6.51207 21.6673 6.51207 18.5123C6.51207 15.1761 7.65343 12.7029 9.63926 11.7359C10.3119 11.4083 10.6068 11.347 11.5113 11.347C12.9231 11.3469 13.7746 11.6192 14.5491 12.3183C15.2323 12.9352 15.5982 13.5655 15.8364 14.536L15.9917 15.1685H18.9702H21.9484V14.7808C21.9484 14.5677 21.8301 13.9188 21.6856 13.339C20.5522 8.79399 16.0974 6.14156 10.3528 6.59155ZM33.3779 6.59128C28.6042 6.9651 25.0547 9.8718 23.7375 14.486C23.2269 16.2747 23.1016 19.2849 23.4592 21.1737C24.1557 24.8518 26.0974 27.5971 29.0935 29.14C29.4734 29.3357 30.3118 29.6622 30.9565 29.8653C32.0402 30.207 32.3089 30.2354 34.5238 30.2424C36.592 30.2488 37.0645 30.2089 37.9836 29.9506C41.9789 28.8272 44.5955 26.1088 45.6439 21.9926C46.0943 20.2248 46.1496 17.4586 45.7723 15.5813C44.5365 9.43314 39.9128 6.07946 33.3779 6.59128ZM55.283 6.57886C50.9245 6.89727 48.2798 8.601 47.4512 11.624C46.613 14.682 47.5041 17.0541 50.0048 18.4211C51.1482 19.0461 52.3344 19.4374 54.8483 20.0185C59.591 21.115 60.9367 21.8534 60.9337 23.3575C60.9302 25.1005 59.1944 26.2019 56.6933 26.0482C55.3027 25.9628 54.764 25.8034 53.9305 25.2304C53.1905 24.7218 52.7059 23.9172 52.5754 22.9794L52.4853 22.3338L49.5926 22.297L46.6999 22.2603V22.8484C46.6999 25.2763 48.4251 27.8759 50.8251 29.0645C52.5041 29.896 53.834 30.1909 56.3015 30.279C58.7205 30.3654 60.0357 30.2083 61.8334 29.6185C65.2033 28.5127 67.0599 26.017 67.0599 22.5925C67.0599 20.936 66.7021 19.8805 65.805 18.8904C64.4478 17.3925 63.0398 16.7755 58.718 15.7852C54.1789 14.7451 53.3535 14.2789 53.3535 12.7551C53.3535 11.9526 53.5814 11.5828 54.327 11.1759C54.8166 10.9087 55.0845 10.8718 56.5472 10.8706C57.8357 10.8695 58.3511 10.9249 58.8342 11.116C59.6696 11.4467 60.3272 12.2145 60.5347 13.1013L60.6989 13.8036H63.6193H66.5397L66.4563 13.2918C66.1517 11.4238 65.5785 10.2118 64.4547 9.05917C63.1282 7.69857 61.0214 6.81538 58.6764 6.63686C58.1274 6.5951 57.4388 6.5431 57.146 6.52126C56.8533 6.49942 56.0149 6.52535 55.283 6.57886ZM76.7742 6.57927C72.1137 6.91966 69.2966 9.03038 68.7768 12.5714C68.3828 15.2559 69.3586 17.2568 71.6509 18.4652C72.8774 19.1117 73.8047 19.41 76.8407 20.1343C80.5493 21.0192 81.8109 21.5753 82.2968 22.5388C82.7329 23.4037 82.3243 24.7511 81.4489 25.3358C79.7843 26.4473 76.8283 26.3123 75.2159 25.051C74.708 24.6535 74.1137 23.5436 74.1107 22.9866C74.1067 22.2547 74.1177 22.2571 71.045 22.297L68.1961 22.3338L68.2381 22.9297C68.4242 25.5669 69.9847 27.8769 72.3828 29.0645C74.0618 29.896 75.3917 30.1909 77.8592 30.279C80.272 30.3651 81.5936 30.2083 83.3728 29.6245C86.8702 28.477 88.7461 25.8063 88.5894 22.1974C88.5206 20.6139 88.084 19.5591 87.104 18.6096C85.7455 17.2932 84.3307 16.7091 80.2523 15.7809C75.7519 14.7565 74.9112 14.2861 74.9112 12.792C74.9112 11.9498 75.1289 11.5885 75.8847 11.1759C76.3743 10.9087 76.6422 10.8718 78.1049 10.8706C79.4002 10.8695 79.9079 10.9245 80.3989 11.1188C81.2095 11.4396 81.8931 12.2492 82.0999 13.1332L82.2566 13.8036H85.177H88.0974L88.0154 13.2918C87.6097 10.7589 86.3909 8.91996 84.3948 7.82877C83.3286 7.24599 81.5017 6.7268 80.1949 6.6355C79.5944 6.5936 78.8933 6.54078 78.6372 6.51826C78.381 6.49574 77.5427 6.52317 76.7742 6.57927ZM99.5722 6.59373C94.594 7.0197 90.7813 10.6115 89.746 15.8509C89.4018 17.5927 89.5257 20.6621 90.0077 22.3338C90.9523 25.6104 92.7116 27.8078 95.4708 29.1579C97.3864 30.0951 98.1567 30.2506 100.86 30.2454C103.525 30.2402 104.207 30.1026 106.05 29.2003C106.991 28.7397 107.384 28.4368 108.385 27.4009C109.428 26.3222 109.681 25.9635 110.272 24.7223C110.647 23.9341 110.992 23.1511 111.039 22.9821L111.125 22.6751H108.421H105.717L105.397 23.293C105.049 23.9671 104.207 24.6733 103.177 25.1558C102.614 25.4199 102.294 25.4629 100.86 25.4675C99.3404 25.4726 99.1331 25.4423 98.4588 25.118C97.4903 24.652 96.8702 24.0785 96.4224 23.2345C96.0634 22.5581 95.6772 21.0572 95.6727 20.3207L95.6704 19.9454H103.607H111.544L111.47 18.137C111.161 10.6047 106.423 6.00754 99.5722 6.59373ZM148.136 6.58868C144.264 6.92553 140.899 9.36681 139.245 13.0404C137.962 15.887 137.773 19.5471 138.743 22.74C139.822 26.2924 142.248 28.7478 145.777 29.8591C146.885 30.208 147.141 30.2353 149.365 30.2424C151.471 30.2489 151.886 30.2126 152.798 29.9414C154.908 29.314 156.441 28.2888 157.707 26.6571C158.438 25.7149 159.416 23.8648 159.617 23.0449L159.707 22.6751H157.044H154.381L154.038 23.2749C153.595 24.0492 153.033 24.5292 151.96 25.0469C151.227 25.4008 150.9 25.4726 149.816 25.5179C146.711 25.6478 144.944 24.2699 144.431 21.3188C144.332 20.751 144.249 20.2099 144.246 20.116C144.243 19.9814 145.915 19.9454 152.178 19.9454H160.114L160.039 18.0005C159.896 14.2645 158.753 11.4455 156.497 9.26212C154.977 7.7922 152.903 6.80951 150.959 6.63891C150.448 6.59414 149.881 6.54037 149.698 6.51962C149.515 6.49888 148.812 6.53 148.136 6.58868ZM36.8731 11.7774C38.2081 12.4186 39.0986 13.6647 39.6094 15.6062C39.923 16.7983 39.9244 20.0849 39.6118 21.2727C39.1122 23.1704 38.1794 24.4698 36.8525 25.1163C36.1951 25.4367 35.9648 25.473 34.5903 25.473C33.0994 25.473 33.0383 25.461 32.2171 25.0043C30.4161 24.0028 29.5727 22.2177 29.4404 19.1265C29.2661 15.0578 30.415 12.4482 32.7546 11.5994C33.8399 11.2057 35.8651 11.2931 36.8731 11.7774ZM102.463 11.6098C102.835 11.7545 103.329 12.0236 103.563 12.208C104.154 12.6744 104.789 13.8264 105.103 14.9978L105.368 15.9874H100.502H95.6364L95.7259 15.413C96.0087 13.5996 97.1447 12.1774 98.771 11.601C99.743 11.2566 101.568 11.2609 102.463 11.6098ZM151.51 11.7908C152.681 12.4123 153.461 13.6693 153.88 15.612L153.961 15.9874H149.095H144.23L144.32 15.4755C144.661 13.545 145.831 12.0861 147.479 11.5361C147.842 11.4147 148.517 11.3642 149.432 11.3899C150.639 11.4238 150.922 11.4783 151.51 11.7908Z" fill="#030712"/>
</svg>
