<svg width="104" height="67" viewBox="0 0 104 67" fill="none" xmlns="http://www.w3.org/2000/svg">
<path fill-rule="evenodd" clip-rule="evenodd" d="M7.57927 0.18568C6.67461 0.333311 6.3949 0.395248 5.93128 0.550716C5.02867 0.853438 4.44434 1.15411 3.75481 1.67063C2.39814 2.68695 1.45992 4.16369 1.00232 6.00299C0.771345 6.93144 0.682528 7.71657 0.682862 8.82718C0.683447 10.7813 1.00968 12.3406 1.71196 13.7458C2.64918 15.6211 4.39799 16.9603 6.45346 17.3767C6.97522 17.4824 7.7366 17.5878 7.9868 17.5889L8.16444 17.5897V17.0491V16.5084L7.9032 16.4804C7.31035 16.4168 6.85271 16.3258 6.43285 16.1879C4.34106 15.5009 3.05152 13.8658 2.50356 11.2058C2.31764 10.3031 2.25729 8.45858 2.3775 7.35262C2.53528 5.90153 3.01712 4.53828 3.7062 3.59344C3.96342 3.24077 4.71995 2.50697 5.08058 2.26036C5.8466 1.73654 6.91361 1.34704 7.83006 1.25669L8.14354 1.22581L8.15524 0.691516L8.16695 0.157227L7.92536 0.162925C7.79248 0.166068 7.63674 0.176293 7.57927 0.18568ZM8.87499 0.695581V1.23394L9.34522 1.26029C10.2981 1.31364 11.4348 1.69527 12.2373 2.23124C12.8312 2.62783 12.7561 2.44562 12.8948 3.82832C12.9616 4.49428 13.0245 5.06331 13.0346 5.09281C13.0486 5.13346 13.1822 5.1436 13.5868 5.13471L14.1206 5.12298L14.1314 2.71587C14.1373 1.39196 14.1279 0.296058 14.1105 0.280511C14.093 0.264964 13.8575 0.261571 13.5871 0.272885C13.0978 0.293419 13.0954 0.294047 13.0698 0.403461C13.0275 0.584533 12.8395 0.906489 12.767 0.921952C12.7299 0.929872 12.604 0.894756 12.4873 0.843925C12.1518 0.697676 11.5744 0.500471 11.2036 0.405556C10.7313 0.28466 9.73778 0.157227 9.26751 0.157227H8.87499V0.695581ZM28.3374 0.972909C27.891 1.13244 27.6484 1.6568 27.7889 2.15865C27.939 2.69504 28.4953 2.99336 29.0198 2.81874C29.4444 2.67731 29.6901 2.33156 29.6901 1.87534C29.6901 1.60744 29.571 1.29897 29.4118 1.15478C29.167 0.933057 28.6798 0.850546 28.3374 0.972909ZM61.2657 0.993149C60.9884 1.11694 60.7646 1.4311 60.7197 1.7598C60.6493 2.27477 61.0361 2.77751 61.5682 2.86283C61.7971 2.89954 62.1693 2.78736 62.3518 2.62665C62.7817 2.24825 62.7801 1.48344 62.3487 1.12691C62.08 0.904856 61.5971 0.845224 61.2657 0.993149ZM37.0256 4.56313C36.028 4.71294 35.235 5.04118 34.6853 5.53176C34.241 5.92835 33.9357 6.46528 33.7622 7.15538C33.6489 7.60594 33.6585 8.51411 33.7814 8.97447C33.9955 9.77666 34.3703 10.2693 35.0669 10.6643C35.6135 10.9742 36.1786 11.1532 37.2884 11.3681C38.7468 11.6504 38.9059 11.6866 39.3992 11.8478C40.7436 12.287 41.2064 12.9311 41.0948 14.2073C40.9762 15.563 40.0408 16.3531 38.3334 16.5397C38.1102 16.5641 37.9174 16.584 37.905 16.584C37.8926 16.584 37.8824 16.8038 37.8824 17.0723V17.5606L38.3735 17.5354C39.3995 17.4828 40.381 17.1952 41.0349 16.7555C42.0073 16.1016 42.488 15.0968 42.4901 13.7135C42.4918 12.5719 42.1483 11.7967 41.3951 11.2424C40.8968 10.8756 39.9695 10.5278 38.9901 10.3402C37.7417 10.1011 37.2075 9.99311 36.9211 9.92195C36.1745 9.73644 35.528 9.35552 35.2826 8.95654C35.1357 8.71772 34.9984 8.18163 34.9984 7.84681C34.9984 7.55 35.1195 7.03306 35.2484 6.77974C35.594 6.10054 36.4756 5.63996 37.6107 5.54542C37.7487 5.53394 37.8662 5.52376 37.872 5.5228C37.8777 5.52187 37.8824 5.29479 37.8824 5.01822V4.51536L37.5794 4.52043C37.4127 4.52319 37.1635 4.54243 37.0256 4.56313ZM38.5512 4.99831C38.5512 5.47817 38.5519 5.48152 38.6584 5.52213C38.7174 5.54459 38.8832 5.56298 39.0269 5.56298C39.5692 5.56298 40.3573 5.77406 40.6154 5.9884C40.8672 6.19747 40.9721 6.48381 41.0851 7.27061L41.1046 7.40681H41.582H42.0594L42.0712 6.36622C42.0777 5.79388 42.0736 5.27124 42.062 5.20478C42.0424 5.09218 42.0112 5.07454 41.6022 4.94497C40.7939 4.6888 39.6816 4.51536 38.847 4.51536H38.5512V4.99831ZM51.5196 4.55994C50.4954 4.69354 49.3919 5.23076 48.4765 6.04162L48.2064 6.28077V6.80191C48.2064 7.15198 48.2214 7.323 48.2522 7.323C48.2775 7.323 48.4204 7.21061 48.5699 7.07328C48.9276 6.74466 49.5036 6.3521 49.9542 6.12983C50.6555 5.78386 51.2331 5.64646 51.9813 5.64751C53.911 5.65027 55.2229 6.74395 55.7088 8.75498C55.8833 9.47671 55.9496 10.0798 55.9502 10.9478C55.9515 12.9358 55.4822 14.3987 54.5467 15.3227C54.076 15.7875 53.5229 16.0898 52.7614 16.2984C52.4418 16.3859 52.3188 16.3954 51.5084 16.395C50.781 16.3947 50.546 16.3797 50.2754 16.3167C49.5711 16.1525 48.8703 15.8454 48.429 15.5077C48.2973 15.4069 48.24 15.3832 48.2247 15.4232C48.2131 15.4537 48.2089 15.6944 48.2154 15.958L48.2273 16.4374L48.6543 16.6945C49.4847 17.1948 50.4537 17.4224 51.7509 17.4219C52.9532 17.4214 53.9009 17.1928 54.7448 16.6995C56.5379 15.6514 57.4436 13.6836 57.4436 10.8359C57.4436 9.31697 57.1895 8.06011 56.6794 7.05585C55.9814 5.6817 54.7841 4.79926 53.317 4.57754C52.8842 4.51217 51.9558 4.50308 51.5196 4.55994ZM73.8093 4.58177C72.82 4.7359 71.6553 5.22414 70.5994 5.92718L70.0665 6.28203V6.76063C70.0665 7.07169 70.082 7.23919 70.1111 7.23919C70.1355 7.23919 70.2155 7.19431 70.2887 7.13945C70.5038 6.97824 71.0176 6.67774 71.4667 6.45057C72.4321 5.96217 73.3754 5.72243 74.3298 5.72298C75.5279 5.72365 76.1543 6.01103 76.5022 6.71965C76.7566 7.23759 76.7541 7.18404 76.7541 12.0612V16.4988L75.6778 16.51L74.6015 16.5212L74.5897 16.9926L74.5778 17.464H77.2347H79.8916L79.8798 16.9926L79.868 16.5212L79.2752 16.5002C78.6209 16.4771 78.5459 16.4499 78.3528 16.1654L78.2588 16.0268L78.2586 11.7692C78.2586 8.92251 78.2433 7.38657 78.2124 7.13442C78.1522 6.64158 77.9951 6.10209 77.8282 5.81462C77.5411 5.3201 77.0185 4.91274 76.4023 4.70296C75.8737 4.52302 74.5757 4.46239 73.8093 4.58177ZM23.0861 4.6202C22.2164 4.7965 21.3947 5.2608 20.6096 6.01954L20.3693 6.25178V6.78741C20.3693 7.08196 20.3789 7.323 20.3905 7.323C20.4022 7.323 20.548 7.20826 20.7145 7.068C21.2451 6.62092 21.7245 6.32918 22.2825 6.11374C22.7877 5.91867 23.1837 5.85406 23.8907 5.85125L24.5072 5.84878V5.22921V4.60964L24.3766 4.58345C24.1575 4.53953 23.3741 4.56183 23.0861 4.6202ZM16.3428 4.62712C16.3275 4.64245 16.3149 4.86753 16.3149 5.12721V5.59936L17.0218 5.6126L17.7286 5.62584L17.8891 5.756C17.9773 5.82757 18.0872 5.95014 18.1331 6.02838C18.2152 6.16797 18.217 6.25764 18.2293 10.8849C18.2362 13.4778 18.2302 15.6973 18.2161 15.8172C18.1881 16.0542 18.0744 16.2543 17.89 16.3916C17.7856 16.4692 17.6971 16.4816 17.1167 16.5002L16.4612 16.5212L16.4494 16.9929L16.4376 17.4646L19.2289 17.4538L22.0203 17.4431L22.0323 17.0065C22.0411 16.6854 22.03 16.5609 21.9905 16.5357C21.9609 16.5169 21.434 16.5012 20.8196 16.5008L19.7025 16.5002L19.6911 10.7697C19.6798 5.13471 19.6783 5.03636 19.596 4.87188C19.5501 4.77986 19.4654 4.68113 19.408 4.65251C19.3307 4.614 18.9209 4.60026 17.8371 4.59979C17.0306 4.59946 16.3581 4.61174 16.3428 4.62712ZM26.1666 4.62569C26.1505 4.64182 26.1373 4.86874 26.1373 5.12998V5.60489H26.8492C27.6274 5.60489 27.7461 5.63053 27.9435 5.84127C28.1961 6.11102 28.1855 5.881 28.1852 11.0683C28.185 14.3236 28.1709 15.8596 28.1399 15.9712C28.1152 16.0606 28.0227 16.2114 27.9343 16.3065L27.7737 16.4793L27.0286 16.5002L26.2836 16.5212L26.2718 16.9926L26.26 17.464H28.9169H31.5738L31.5619 16.9926L31.5501 16.5212L30.8187 16.5002C30.0655 16.4786 29.9929 16.4627 29.8312 16.2841C29.6167 16.047 29.6289 16.3672 29.6065 10.3937L29.5856 4.811L29.4905 4.71558L29.3953 4.62012L27.7956 4.60826C26.9157 4.60172 26.1827 4.60956 26.1666 4.62569ZM44.1799 4.62712C44.1646 4.64245 44.152 4.86874 44.152 5.12998V5.60489H44.8229C45.3269 5.60489 45.5228 5.61997 45.6108 5.66561C45.7797 5.75319 45.9801 5.99758 46.033 6.18037C46.0653 6.29234 46.075 8.33127 46.0662 13.1928L46.0538 20.0473L45.9513 20.1974C45.7658 20.4687 45.6703 20.4997 44.9462 20.5231L44.2983 20.5441V20.9841V21.4241H47.057H49.8156V20.9841V20.5441L48.6774 20.5329L47.5391 20.5218L47.5279 12.7805L47.5167 5.03917L47.426 4.86933C47.3762 4.77592 47.2859 4.6769 47.2255 4.64933C47.1067 4.59502 44.2328 4.57406 44.1799 4.62712ZM59.1448 4.62569C59.1287 4.64182 59.1155 4.86761 59.1155 5.12738V5.59969L59.885 5.61277L60.6546 5.62584L60.815 5.75453C61.1486 6.02205 61.1235 5.56738 61.1116 11.1228C61.1009 16.0509 61.1005 16.0756 61.0147 16.1907C60.8125 16.4623 60.7621 16.4774 59.9799 16.5002L59.2618 16.5212L59.25 16.9929L59.2382 17.4647L61.8794 17.4538L64.5206 17.4431L64.5166 17.0138C64.5144 16.7777 64.501 16.5655 64.4867 16.5424C64.471 16.5169 64.1913 16.5002 63.7797 16.5002C63.1405 16.5002 63.09 16.4943 62.9576 16.4049C62.8801 16.3525 62.7738 16.246 62.7216 16.1682L62.6265 16.0268V10.633C62.6265 7.14163 62.6115 5.15969 62.5839 5.01378C62.5055 4.59917 62.6067 4.62184 60.7738 4.60826C59.8939 4.60172 59.1609 4.60956 59.1448 4.62569ZM66.0307 4.65293C66.0188 4.68406 66.0144 4.90633 66.021 5.14678L66.033 5.58394L66.7227 5.60489C67.1488 5.61784 67.4461 5.64524 67.5006 5.67663C67.6532 5.76434 67.8459 6.01619 67.8921 6.18821C67.9225 6.30156 67.933 7.87212 67.9252 11.1859L67.9139 16.0183L67.8191 16.1711C67.644 16.4534 67.5735 16.4768 66.8272 16.5002L66.1584 16.5212L66.1466 16.9929L66.1347 17.4647L68.8634 17.4538L71.5921 17.4431V16.9821V16.5212L70.4956 16.51L69.3992 16.4988L69.388 10.748C69.3774 5.27107 69.3732 4.98993 69.3003 4.84305C69.2532 4.74818 69.1778 4.67275 69.1043 4.64706C69.0348 4.62276 68.3718 4.6034 67.5187 4.60076C66.3217 4.59707 66.0484 4.60662 66.0307 4.65293ZM13.4727 14.4951C13.3693 14.635 13.153 14.8724 12.992 15.0226C12.0624 15.8907 10.8995 16.3406 9.21982 16.482L8.87499 16.511V17.0504V17.5897H9.07378C9.75199 17.5897 11.1427 17.3383 11.8305 17.0912C12.8106 16.7392 13.7762 16.1491 14.4236 15.5064L14.5594 15.3716V14.8044V14.2373L14.1101 14.239L13.6608 14.2407L13.4727 14.4951ZM33.4101 15.6357V16.8664L33.9848 17.0576C34.8231 17.3364 36.0757 17.5478 36.8895 17.5478H37.2137V17.0659C37.2137 16.8009 37.1981 16.584 37.1791 16.584C37.1601 16.584 36.9391 16.5638 36.688 16.5391C35.8636 16.4578 35.1671 16.2666 34.9121 16.0515C34.6554 15.8349 34.5848 15.6142 34.4292 14.5411L34.4094 14.405H33.9098H33.4101V15.6357ZM1.42054 22.8169C1.4093 22.8575 1.40504 22.9473 1.41101 23.0165C1.41703 23.0856 1.42489 23.2747 1.42849 23.4367L1.43505 23.7312L2.00976 23.7303C2.32588 23.7298 2.65223 23.7438 2.73508 23.7613C2.93345 23.8033 3.24304 24.109 3.30829 24.3275C3.37775 24.5599 3.3798 38.212 3.31037 38.4208C3.26185 38.5669 3.02598 38.8458 2.87706 38.9332C2.82699 38.9626 2.51723 38.9907 2.10443 39.0032L1.4154 39.0242L1.4037 39.3594C1.39726 39.5438 1.40253 39.756 1.4154 39.8309L1.43885 39.9671H4.30005H7.1613V39.4852V39.0032H6.05379H4.94624L4.93571 30.8841L4.92514 22.765L3.18306 22.7541C1.55007 22.7439 1.43969 22.7478 1.42054 22.8169ZM5.61479 23.2807V23.8278L7.49668 23.8296C9.51729 23.8316 9.82229 23.8526 10.5649 24.0407C12.0904 24.4269 12.9237 25.3522 13.1597 26.9219C13.337 28.1009 13.1091 29.49 12.6152 30.2416C12.3075 30.7099 11.7966 31.1327 11.2634 31.3603C11.0026 31.4716 10.6009 31.5874 10.1578 31.6789C9.76779 31.7593 9.55813 31.7683 7.67332 31.7848L5.61479 31.8029V32.3061V32.8093L7.81961 32.7892C9.83667 32.7707 10.0649 32.7615 10.5 32.6802C12.0067 32.399 12.873 31.9901 13.604 31.2154C14.1418 30.6453 14.4372 30.0763 14.6229 29.2532C14.8517 28.2381 14.8435 27.1835 14.5991 26.1927C14.2203 24.657 13.2291 23.6536 11.5918 23.1483C10.5625 22.8306 10.0929 22.7844 7.61062 22.7562L5.61479 22.7336V23.2807ZM39.2905 23.6092C39.2747 23.625 39.2617 24.4175 39.2617 25.3701V27.1022L38.4571 27.1068C38.0146 27.1094 37.6102 27.108 37.5585 27.1038C37.4657 27.0963 37.4645 27.1031 37.4645 27.602V28.1079H38.3612H39.2579L39.2715 32.9794C39.2852 37.8439 39.2854 37.8513 39.3768 38.1775C39.5825 38.9119 39.8984 39.3537 40.4372 39.661C41.0304 39.9993 41.9662 40.1491 42.9087 40.0566C43.4838 40.0002 44.2267 39.859 44.3091 39.7905C44.3494 39.757 44.3606 39.6233 44.3519 39.2799L44.3401 38.8147L44.013 38.8024C43.7623 38.793 43.6321 38.8103 43.4552 38.8766C43.091 39.0132 42.4723 39.0703 42.0162 39.0095C41.8064 38.9815 41.5792 38.9298 41.5115 38.8947C41.3329 38.8021 41.064 38.5478 40.9871 38.3988C40.7804 37.9982 40.7908 38.3611 40.7674 30.727L40.7456 23.6031L40.0324 23.5917C39.6403 23.5854 39.3064 23.5933 39.2905 23.6092ZM20.9336 27.0212C19.5456 27.1572 18.2908 27.7082 17.3666 28.5875C16.1065 29.7866 15.4372 31.5121 15.4372 33.5621C15.4372 35.0719 15.8147 36.413 16.5554 37.5354C16.8433 37.9715 17.557 38.6955 17.9922 38.9928C18.5794 39.3941 19.2799 39.7026 19.9931 39.8743C20.3989 39.9719 21.2105 40.0739 21.3019 40.0387C21.3494 40.0204 21.3645 39.9221 21.369 39.5996C21.3762 39.0891 21.3616 39.0451 21.1853 39.0451C20.6182 39.0451 19.6569 38.7194 19.0777 38.331C18.6838 38.0668 18.1382 37.5254 17.8972 37.1594C17.1442 36.0158 16.8251 34.4703 16.9844 32.7384C17.0655 31.8566 17.2721 31.1149 17.6305 30.4192C18.0561 29.5931 18.7294 28.914 19.5215 28.5122C19.8745 28.3331 20.439 28.1549 20.8168 28.1033C21.408 28.0224 21.3671 28.0684 21.3587 27.4956C21.3545 27.2073 21.3343 27.0012 21.3097 26.9965C21.2867 26.9921 21.1175 27.0033 20.9336 27.0212ZM22.0412 27.5054V28.0203L22.177 28.0405C22.2517 28.0517 22.4539 28.0814 22.6264 28.1065C22.9214 28.1494 23.4327 28.2927 23.525 28.3583C23.548 28.3746 23.6465 28.419 23.7441 28.457C24.054 28.5776 24.6132 28.9698 24.9311 29.2894C25.6813 30.0436 26.178 31.0972 26.3694 32.3403C26.4429 32.8182 26.4533 34.0971 26.3879 34.6286C26.2692 35.5935 25.9173 36.5564 25.4324 37.2432C25 37.8557 24.29 38.4267 23.6122 38.707C23.1329 38.9052 22.9488 38.9543 22.4696 39.0119L22.0412 39.0633V39.5629V40.0624L22.3651 40.0341C23.906 39.8992 25.1967 39.3217 26.1803 38.327C26.4781 38.0259 27.0569 37.2722 27.0569 37.1856C27.0569 37.1732 27.1101 37.0727 27.175 36.9622C27.7096 36.0532 28.0418 34.3058 27.9348 32.9659C27.7384 30.5059 26.6569 28.7007 24.785 27.7084C24.0835 27.3365 23.1177 27.0661 22.2815 27.0074L22.0412 26.9905V27.5054ZM50.2545 27.0047C48.4358 27.1803 46.9255 28.0663 45.9701 29.5181C45.2328 30.6383 44.8929 31.9228 44.8905 33.5975C44.8881 35.2987 45.2301 36.5939 45.9763 37.7089C46.2439 38.1087 46.8549 38.7252 47.2454 38.9894C47.8644 39.4081 48.6798 39.7494 49.4185 39.8992C49.7861 39.9737 50.8069 40.0724 50.8881 40.0413C50.9315 40.0247 50.9412 39.912 50.9313 39.5411L50.9185 39.0625L50.4226 39.0102C49.3414 38.8962 48.4388 38.4845 47.757 37.7942C47.3001 37.3316 46.8774 36.5484 46.6853 35.8083C46.484 35.0327 46.4319 34.5322 46.4315 33.367C46.4311 32.2807 46.4358 32.2139 46.5493 31.6908C46.8345 30.3762 47.3658 29.4619 48.221 28.8134C48.4084 28.6713 48.7194 28.4807 48.9121 28.3897C49.2488 28.2308 49.8881 28.0529 50.308 28.0013L50.5078 27.9767L50.4961 27.4905C50.4893 27.2081 50.4668 27.0014 50.4426 26.9974C50.4196 26.9937 50.3349 26.997 50.2545 27.0047ZM51.2011 27.0052C51.1862 27.0201 51.174 27.2449 51.174 27.5047V27.9771L51.3726 28.002C52.2536 28.1124 52.822 28.3182 53.3426 28.7151C54.2185 29.383 54.7393 30.5836 54.838 32.1622L54.8649 32.5918H50.9714H47.0779V33.0946V33.5975H51.6965H56.3151V32.9044C56.3151 31.2148 55.995 29.992 55.2898 28.9879C55.0252 28.6111 54.515 28.1076 54.1416 27.8548C53.5314 27.4417 52.5466 27.1131 51.6965 27.0388C51.5356 27.0247 51.3644 27.0053 51.316 26.9956C51.2678 26.9859 51.216 26.9902 51.2011 27.0052ZM35.3676 27.1236C34.5784 27.2725 33.736 27.7347 33.0026 28.4211L32.6577 28.7437V29.2849C32.6577 29.5825 32.6673 29.826 32.679 29.826C32.6907 29.826 32.8364 29.7111 33.0029 29.5707C34.0336 28.7013 34.9386 28.3546 36.2105 28.3418L36.8166 28.3357L36.8283 27.7537C36.8356 27.3898 36.8236 27.1553 36.7964 27.128C36.7264 27.0579 35.7321 27.0548 35.3676 27.1236ZM64.0476 27.0882C63.4599 27.1809 62.8027 27.4406 62.2969 27.7801C61.9308 28.0258 61.7948 28.138 61.4039 28.5167L61.1218 28.79V29.308C61.1218 29.6547 61.1369 29.826 61.1675 29.826C61.1926 29.826 61.328 29.7218 61.4684 29.5944C61.9665 29.1425 62.6231 28.7517 63.224 28.5495C63.6536 28.4049 64.4775 28.3019 64.9358 28.3355L65.3016 28.3624V27.7378V27.1132L65.1448 27.0872C64.9788 27.0597 64.224 27.0604 64.0476 27.0882ZM28.6214 27.1574C28.6098 27.1878 28.6057 27.4094 28.6123 27.6498L28.6243 28.087L29.336 28.1079C30.1325 28.1314 30.1915 28.1521 30.39 28.4778L30.4839 28.6317L30.4841 33.5808L30.4843 38.5299L30.3902 38.6684C30.1934 38.9583 30.1293 38.9801 29.4051 39.0032L28.7497 39.0242L28.7379 39.4956L28.726 39.9671H31.5292H34.3324L34.3206 39.4956L34.3087 39.0242L33.1497 39.013L31.9907 39.0019L31.9794 33.2301C31.9699 28.4043 31.9586 27.4398 31.91 27.3452C31.7906 27.1122 31.7166 27.1022 30.1109 27.1022C28.9346 27.1022 28.6384 27.1132 28.6214 27.1574ZM41.4535 27.1568C41.4417 27.1875 41.4375 27.4094 41.4441 27.6498L41.4561 28.087L42.7636 28.098L44.0711 28.1091L44.0593 27.6161L44.0475 27.1231L42.7612 27.1121C41.7206 27.1031 41.4708 27.1117 41.4535 27.1568ZM57.105 27.2993C57.1026 27.4099 57.0979 27.6323 57.0945 27.7936L57.0884 28.087L57.8023 28.1079C58.5107 28.1287 58.5175 28.1298 58.6742 28.2497C58.761 28.3162 58.8672 28.4482 58.9102 28.5431C58.985 28.7083 58.9883 28.9195 58.9892 33.5781L58.9901 38.4407L58.8961 38.6253C58.7284 38.9543 58.6619 38.9793 57.8901 39.0032L57.2137 39.0242V39.4852V39.9461L60.0037 39.9569L62.7937 39.9676V39.4854V39.0032H61.6234H60.453V33.2985C60.453 29.1106 60.4402 27.5509 60.4049 27.4325C60.309 27.1119 60.3784 27.1246 58.6514 27.1107L57.1093 27.0983L57.105 27.2993ZM54.8948 37.8211C54.2756 38.4503 53.2483 38.8953 52.1354 39.0165L51.6547 39.0688L51.6429 39.5599L51.6312 40.0509L51.7683 40.0508C51.8437 40.0508 52.1594 40.022 52.4697 39.9867C53.6971 39.8473 54.7595 39.4778 55.6965 38.8644L56.0225 38.6509V38.1147V37.5785L55.5732 37.5834L55.1239 37.5883L54.8948 37.8211ZM98.0917 45.126C97.4443 45.2195 96.6105 45.5468 96.0243 45.9374C95.6296 46.2005 95.0787 46.7328 94.8038 47.1167C94.1352 48.0501 93.8361 48.9717 93.8398 50.0871C93.8444 51.5264 94.3646 52.7401 95.4031 53.7348C96.5225 54.807 98.061 55.2772 99.6332 55.0277C100.187 54.9398 100.598 54.807 101.084 54.5589C102.364 53.9052 103.332 52.6871 103.683 51.2863C103.806 50.7921 103.817 49.4599 103.701 48.9801C103.215 46.9715 101.648 45.495 99.6294 45.142C99.2455 45.0749 98.4991 45.0671 98.0917 45.126ZM1.43028 45.299C1.42765 45.3281 1.42297 45.5451 1.41983 45.7812L1.41415 46.2106L1.99446 46.2107C2.32236 46.2108 2.64713 46.2327 2.74109 46.2609C2.95393 46.3248 3.25775 46.6269 3.31426 46.8309C3.34294 46.9344 3.35736 49.2863 3.35748 53.8914C3.35777 61.4616 3.37449 60.9545 3.11518 61.2263C2.85315 61.501 2.76834 61.5263 2.06673 61.538L1.4236 61.5488L1.42802 61.978C1.43049 62.2141 1.43304 62.4216 1.43375 62.4391C1.43446 62.4567 2.22034 62.4661 3.18009 62.4601L4.92514 62.4491V53.8586V45.2681L3.18009 45.2571C1.80002 45.2485 1.43404 45.2572 1.43028 45.299ZM5.61479 45.7709V46.2947L7.00456 46.2949C8.91345 46.2951 9.55563 46.3614 10.2436 46.6292C10.8655 46.8714 11.2421 47.1506 11.5719 47.614C12.1628 48.4442 12.2794 49.9187 11.842 51.0316C11.5398 51.8007 10.7603 52.4322 9.782 52.7005C8.95261 52.928 8.65063 52.9542 6.83737 52.9563L5.61479 52.9576V53.4605V53.9634H7.24276C9.00335 53.9634 9.43579 53.9965 10.2543 54.1945C10.8363 54.3353 11.521 54.6716 11.872 54.9892C12.5416 55.5949 12.885 56.4971 12.885 57.651C12.885 58.1994 12.8299 58.5747 12.6816 59.0376C12.3148 60.1822 11.4667 60.9265 10.1588 61.2517C9.41192 61.4374 9.04799 61.4644 7.28698 61.4644H5.61479V61.9711V62.4779L7.52703 62.459C9.53 62.4392 9.755 62.4218 10.6514 62.2169C11.1728 62.0978 11.5082 61.9849 11.9473 61.7805C13.3256 61.1392 14.0683 60.1862 14.398 58.6358C14.4766 58.266 14.464 57.0803 14.3773 56.694C14.2772 56.248 14.1125 55.778 13.9638 55.5138C13.3544 54.4319 12.3576 53.788 10.7602 53.4447L10.3256 53.3513L10.6766 53.2559C12.1387 52.8585 13.1601 51.944 13.471 50.7542C13.711 49.8354 13.6633 48.6793 13.3509 47.8439C13.0358 47.0014 12.3304 46.2783 11.4104 45.8546C10.412 45.3949 9.36795 45.2482 7.08815 45.2476L5.61479 45.2471V45.7709ZM66.2211 45.729V46.2109H66.8494C67.2825 46.2109 67.5197 46.2285 67.6129 46.2675C67.7915 46.3424 68.0031 46.589 68.0577 46.786C68.0875 46.8936 68.1013 49.1793 68.1008 53.9215C68.1002 60.6003 68.0969 60.9059 68.0234 61.068C67.9812 61.1611 67.8861 61.2885 67.8121 61.3509C67.617 61.5155 67.4853 61.5407 66.7958 61.5451L66.3047 61.5482V62.0091V62.4701H68.9797H71.6548L71.6548 61.9987V61.5272H70.6203H69.5858L69.5649 53.4984C69.5428 45.0243 69.5516 45.4079 69.3768 45.2792C69.3538 45.2622 68.6344 45.2481 67.7781 45.2477L66.2211 45.2471V45.729ZM99.7213 46.0236C100.85 46.2573 101.905 47.0719 102.514 48.1805C102.866 48.8223 103.041 49.7277 102.957 50.4787C102.76 52.2492 101.564 53.6651 99.8803 54.1197C99.521 54.2168 99.3919 54.2303 98.8231 54.2303C98.257 54.2303 98.1245 54.2165 97.7731 54.1216C96.2427 53.7078 95.0341 52.4134 94.7454 50.8786C94.658 50.4145 94.6824 49.4765 94.7927 49.0605C94.9786 48.3587 95.3928 47.6434 95.902 47.1447C96.6195 46.442 97.4006 46.0671 98.4051 45.9433C98.6621 45.9117 99.3973 45.9565 99.7213 46.0236ZM98.4655 47.2538C98.4553 47.2641 98.4469 48.5242 98.4469 50.054V52.8354L98.7612 52.8232L99.0754 52.811L99.0752 50.0493C99.0752 48.5304 99.0701 47.2827 99.0641 47.2766C99.0437 47.2562 98.4844 47.2349 98.4655 47.2538ZM21.0799 49.5241C19.1252 49.7825 17.5617 50.7904 16.6127 52.404C16.2077 53.0927 15.875 54.1476 15.7745 55.0617C15.7179 55.5771 15.7171 56.4863 15.7728 57.0136C15.82 57.4603 16.0211 58.3203 16.174 58.7288C16.3251 59.1327 16.589 59.6458 16.8474 60.0383C17.126 60.4612 17.7995 61.1497 18.239 61.4608C19.0903 62.0634 20.3014 62.4783 21.3306 62.5202L21.6441 62.5329V62.051V61.5691L21.341 61.5388C20.754 61.4801 20.0625 61.2495 19.525 60.9331C19.1306 60.701 18.4252 60.031 18.1868 59.6622C17.7828 59.0371 17.4938 58.2884 17.3483 57.4907C17.2285 56.833 17.2196 55.3371 17.3317 54.6967C17.6383 52.9453 18.5276 51.6422 19.8624 50.9882C20.2811 50.7831 20.6457 50.672 21.2052 50.5791L21.6441 50.5062V50.0033V49.5005L21.4978 49.4943C21.4174 49.491 21.2293 49.5044 21.0799 49.5241ZM22.3338 49.9927V50.5126L22.6786 50.5648C24.2924 50.8088 25.4161 51.6258 26.1186 53.0658C26.5946 54.0416 26.8333 55.4594 26.7247 56.6662C26.5591 58.5077 25.933 59.8149 24.797 60.6913C24.1936 61.1568 23.1432 61.5482 22.4973 61.5482H22.3338V62.051C22.3338 62.4531 22.3454 62.5539 22.392 62.5539C22.6191 62.5539 23.3709 62.4517 23.6312 62.3854C26.1139 61.7533 27.6874 60.0201 28.1326 57.4273C28.2474 56.7586 28.2348 55.1991 28.1093 54.5291C27.5661 51.6312 25.5489 49.7845 22.6159 49.5002L22.3338 49.4728V49.9927ZM33.2429 49.5059C32.1052 49.6693 31.3904 49.946 30.7275 50.4796C29.8171 51.2125 29.3557 52.2415 29.3557 53.5389C29.3557 54.1658 29.421 54.5572 29.6061 55.0404C30.1199 56.3821 31.5116 57.3073 33.2541 57.4656L33.5773 57.495V57.0081C33.5773 56.5364 33.5744 56.5206 33.4832 56.5032C32.3844 56.2932 31.9965 56.1208 31.5202 55.6309C30.9952 55.0907 30.7409 54.2982 30.7867 53.3444C30.8288 52.4665 31.0765 51.8599 31.6123 51.3229C32.0682 50.866 32.6472 50.5939 33.3579 50.5026L33.5773 50.4744V49.977V49.4795L33.4623 49.4852C33.3991 49.4884 33.3004 49.4977 33.2429 49.5059ZM34.2643 49.5342C34.2526 49.5649 34.2483 49.7865 34.255 50.0267L34.2669 50.4634L34.5501 50.5147C35.2421 50.6403 35.7245 50.8623 36.1521 51.2518C36.8274 51.8672 37.1739 53.0577 36.988 54.1242C36.7583 55.4424 35.997 56.1928 34.6243 56.4538C34.4342 56.49 34.2707 56.5196 34.261 56.5196C34.2513 56.5196 34.2486 56.7317 34.2551 56.991L34.2669 57.4624L34.6013 57.4504C34.9633 57.4373 35.5677 57.3003 36.0255 57.1275C36.9529 56.7776 37.6779 56.1253 38.0753 55.2834C38.3711 54.6565 38.4452 54.3048 38.4418 53.5443C38.4383 52.7859 38.3811 52.493 38.1324 51.961C38.0408 51.7651 37.8625 51.4765 37.7361 51.3197C37.6097 51.1628 37.5062 51.0055 37.5062 50.97C37.5062 50.9346 37.5611 50.844 37.6281 50.7688L37.75 50.6319L38.7462 50.611L39.7424 50.59V50.1081V49.6262L37.3182 49.6049C35.9848 49.5932 34.8657 49.5712 34.8312 49.556C34.7967 49.5409 34.6598 49.5172 34.5271 49.5035C34.3467 49.4848 34.2802 49.4926 34.2643 49.5342ZM59.9306 49.5057C58.4691 49.6866 57.5877 50.0644 56.9612 50.7786C56.6224 51.1648 56.4914 51.4054 56.3298 51.9384C56.2292 52.2701 56.2173 52.377 56.2141 52.9786C56.2114 53.5079 56.2273 53.7152 56.29 53.9634C56.6417 55.3552 57.6331 55.9935 60.0978 56.4148C61.3684 56.632 62.3008 56.9149 62.796 57.2334C63.0174 57.3759 63.3467 57.7185 63.4445 57.9082C63.7023 58.4079 63.677 59.4832 63.3938 60.0605C62.9718 60.9211 62.0529 61.4472 60.8083 61.5408L60.4322 61.5691V62.051V62.5329L60.5993 62.5359C60.8616 62.5406 61.5791 62.4756 61.8324 62.4242C62.2453 62.3404 62.8493 62.1296 63.2117 61.9428C64.0777 61.4962 64.6524 60.7664 64.8917 59.8091C64.9719 59.4882 64.9858 59.3227 64.9849 58.6986C64.9839 58.0203 64.9753 57.9374 64.8697 57.5935C64.571 56.6204 63.8339 55.9906 62.5011 55.5698C62.2069 55.4769 61.2964 55.2807 60.4948 55.1375C59.1125 54.8906 58.4437 54.6371 58.0079 54.1949C57.6758 53.8579 57.5668 53.5705 57.5386 52.9576C57.5067 52.2625 57.6584 51.7962 58.0571 51.3644C58.453 50.9358 59.1032 50.6645 59.9797 50.5623L60.4137 50.5118L60.402 50.0061L60.3904 49.5005L60.2232 49.4953C60.1312 49.4925 59.9995 49.4972 59.9306 49.5057ZM61.08 49.9895V50.5095L61.7174 50.5798C63.0613 50.728 63.392 50.9678 63.5338 51.8969C63.5683 52.1231 63.6034 52.3317 63.6118 52.3605C63.6228 52.3985 63.7596 52.4129 64.1097 52.4129H64.5923L64.5812 51.2532L64.5701 50.0935L64.2357 49.9714C63.6365 49.7527 62.5468 49.562 61.5293 49.4978L61.08 49.4695V49.9895ZM40.4321 50.1076V50.611H41.1656C41.9596 50.611 42.0302 50.6266 42.2347 50.8482C42.4722 51.1054 42.4574 50.8149 42.4817 55.7234C42.5024 59.9036 42.5101 60.2897 42.5777 60.5136C43.0193 61.9757 44.1884 62.6629 46.0956 62.5817C46.4175 62.568 46.8422 62.5298 47.0394 62.4968C47.8945 62.3538 49.0848 61.8422 50.0037 61.2227L50.4844 60.8986L50.4961 60.4063C50.5026 60.1349 50.4911 59.9139 50.4704 59.9139C50.4498 59.9139 50.3881 59.9479 50.3333 59.9894C50.1889 60.0989 49.6562 60.4212 49.2931 60.6188C47.9789 61.3339 46.3279 61.6254 45.3224 61.3198C44.6637 61.1195 44.2568 60.6926 44.0421 59.9767C43.9718 59.7423 43.9652 59.3834 43.9444 54.6757L43.9222 49.6262L42.1771 49.6152L40.4321 49.6043V50.1076ZM49.1677 50.1076V50.611H50.17H51.1723L51.1836 56.3415C51.1942 61.7326 51.1993 62.0814 51.2692 62.2306C51.3114 62.3206 51.3894 62.4067 51.4496 62.4297C51.5105 62.4529 52.1943 62.4701 53.0576 62.4701H54.5596V62.014V61.558L53.8796 61.5416C53.1175 61.5231 53.0042 61.4862 52.7719 61.1808L52.6578 61.0309L52.6369 55.3285L52.616 49.6262L50.8919 49.6152L49.1677 49.6043V50.1076ZM73.8282 50.1081V50.611L74.2567 50.6111C74.7579 50.6113 74.9265 50.6795 74.9705 50.9C75.0188 51.1421 74.9928 51.1797 74.1651 52.0601C73.9683 52.2693 73.5628 52.7015 73.264 53.0204C72.9651 53.3393 72.6548 53.6697 72.5743 53.7546C72.4938 53.8395 72.3152 54.0293 72.1772 54.1764C71.9196 54.4511 71.3586 55.0433 70.6412 55.7978L70.2337 56.2265V56.8968C70.2337 57.2655 70.2491 57.5672 70.268 57.5672C70.2869 57.5672 70.4405 57.4211 70.6095 57.2424C70.7784 57.0638 71.1627 56.6631 71.4635 56.3519C71.9866 55.8108 73.4363 54.2973 74.4539 53.23C76.2403 51.3564 76.5174 51.0809 76.8051 50.8913C77.1695 50.6513 77.3252 50.611 77.8879 50.611H78.3842V50.1081V49.6052H76.1062H73.8282V50.1081ZM79.0947 50.1078V50.611L79.4604 50.6119C79.8957 50.613 80.0777 50.6824 80.3351 50.9456C80.5777 51.1937 80.66 51.3624 81.511 53.3557C81.9243 54.3237 82.2923 55.1817 82.3287 55.2624C82.3652 55.3431 82.5111 55.6825 82.6529 56.0167C83.0874 57.0409 83.3008 57.5378 83.3909 57.7348C83.4383 57.8385 83.5224 58.0365 83.5778 58.1748C83.806 58.7449 84.7536 60.9437 84.7876 60.9821C84.8113 61.0089 84.8384 61.0014 84.8637 60.9612C84.9369 60.8444 85.49 59.4323 85.4898 59.3624C85.4898 59.3241 85.4224 59.1355 85.3401 58.9433C85.2577 58.7511 85.1658 58.5279 85.1356 58.4472C85.1054 58.3665 84.9544 57.9988 84.7999 57.6301C84.6455 57.2613 84.4575 56.8087 84.3821 56.6243C84.3067 56.4399 84.1511 56.0628 84.0362 55.7862C83.9214 55.5097 83.6012 54.7365 83.3247 54.0681C83.0483 53.3997 82.65 52.438 82.4395 51.931C82.2291 51.4239 82.021 50.9198 81.977 50.8107L81.8969 50.6124L82.9305 50.6012L83.9641 50.59V50.1081V49.6262L81.5294 49.6154L79.0947 49.6046V50.1078ZM87.7468 50.1041V50.6037L88.426 50.6178C89.1932 50.6337 89.296 50.6697 89.4395 50.9728C89.5555 51.2179 89.4716 51.5756 89.107 52.3919C89.0761 52.4611 88.9435 52.7816 88.8122 53.1043C88.681 53.427 88.4425 54.0115 88.2823 54.4034C88.1221 54.7952 87.9348 55.2572 87.866 55.43C87.7972 55.6029 87.7155 55.8009 87.6845 55.87C87.6344 55.9819 87.4101 56.5264 87.1407 57.19C86.9823 57.5803 84.8612 62.7509 84.6223 63.3291C84.4985 63.6288 84.351 63.9934 84.2946 64.1395C84.0511 64.7695 83.8577 65.0343 83.5273 65.1896L83.2954 65.2987L81.2682 65.3114L79.241 65.3242L78.9365 65.6257L78.6319 65.9273L78.6439 66.1787L78.6558 66.4301L81.0801 66.4271C83.7283 66.4237 83.7882 66.4188 84.2389 66.173C84.654 65.9465 84.8646 65.5703 85.6786 63.6015C85.7881 63.3365 85.9582 62.931 86.0564 62.7006C86.3243 62.0721 87.3667 59.5941 87.4843 59.3063C87.5853 59.0589 88.0636 57.9194 88.7068 56.3939C88.8866 55.9675 89.1314 55.3829 89.2509 55.0948C89.3703 54.8067 89.5722 54.3258 89.6994 54.0262C89.8266 53.7266 90.0981 53.0777 90.3027 52.5841C90.7941 51.3994 90.8883 51.2075 91.0939 50.9733C91.3446 50.6878 91.4615 50.6384 91.9474 50.6123L92.3654 50.59V50.1081V49.6262L90.0561 49.6154L87.7468 49.6045V50.1041ZM95.9895 50.0348L96.0018 50.3386H96.9422H97.8827L97.895 50.0348L97.9072 49.7309H96.9422H95.9772L95.9895 50.0348ZM99.6173 50.0198C99.6173 50.2439 99.632 50.3143 99.6831 50.334C99.7193 50.3479 100.147 50.3546 100.634 50.3489L101.519 50.3386L101.531 50.0348L101.544 49.7309H100.58H99.6173V50.0198ZM73.4618 55.2317C73.2036 55.4913 72.9923 55.7319 72.9923 55.7664C72.9923 55.8009 73.0787 56.0269 73.1843 56.2686C73.3726 56.6994 73.5551 57.1274 73.8721 57.8815C73.9593 58.0889 74.4349 59.2015 74.9289 60.3539L75.8271 62.4491L77.2533 62.4602L78.6795 62.4712L78.6677 62.007L78.6558 61.5429L78.1311 61.5351C77.6159 61.5274 77.6007 61.5244 77.2891 61.37C77.0647 61.2587 76.9064 61.1416 76.748 60.9694C76.5179 60.7193 76.4794 60.6375 75.5202 58.3634C75.4472 58.1905 75.217 57.6531 75.0085 57.1691C74.5001 55.989 74.1047 55.0619 74.0391 54.8957C74.0095 54.8209 73.9731 54.7596 73.9583 54.7596C73.9435 54.7596 73.7201 54.972 73.4618 55.2317ZM30.0124 57.2215C29.7332 57.6058 29.6351 57.8677 29.5662 58.4125C29.4482 59.3461 29.8579 60.1203 30.6576 60.4748C31.2411 60.7335 31.1211 60.7232 33.8699 60.7527C36.3115 60.7788 36.4092 60.7829 36.7054 60.8718C37.5195 61.1161 37.875 61.474 38.0295 62.2048C38.2707 63.3464 37.7617 64.3876 36.6868 64.9517C36.1612 65.2274 35.4398 65.4286 34.7622 65.4885C34.4668 65.5146 34.164 65.5447 34.0893 65.5554L33.9535 65.5749V66.0822V66.5895L34.4655 66.564C35.7322 66.5008 36.7199 66.2606 37.5615 65.8113C38.5531 65.2818 39.1302 64.5586 39.4114 63.4932C39.519 63.0856 39.5221 61.9793 39.4168 61.5901C39.1533 60.6163 38.5777 60.0152 37.5978 59.6906C36.8757 59.4513 36.7504 59.4417 34.1625 59.4262C32.6437 59.4172 31.731 59.3957 31.6049 59.3661C31.3007 59.2946 31.0656 59.1222 30.9293 58.8704C30.8266 58.681 30.8103 58.6054 30.8121 58.3287C30.8135 58.1278 30.8462 57.9051 30.8995 57.7348C30.9464 57.585 30.985 57.4598 30.9853 57.4567C30.9869 57.4397 30.2281 57.0224 30.1956 57.0224C30.1744 57.0224 30.092 57.112 30.0124 57.2215ZM55.9912 59.3958C55.9511 59.4129 55.9389 59.7 55.9389 60.6292V61.8404L56.0957 61.9075C56.9325 62.2659 58.4507 62.5447 59.5126 62.5349L59.7216 62.5329V62.051V61.5691L59.3036 61.5438C58.7822 61.5123 58.4507 61.45 57.9511 61.2897C57.2838 61.0756 57.0852 60.777 56.9773 59.8257C56.9404 59.5006 56.9165 59.4141 56.8595 59.3992C56.7567 59.3722 56.0533 59.3695 55.9912 59.3958ZM29.4974 61.0565C28.9271 61.498 28.5576 62.0549 28.3876 62.7288C28.2104 63.4314 28.357 64.3256 28.7455 64.9125C29.1937 65.5895 30.0496 66.0965 31.1948 66.3635C31.6202 66.4627 32.5805 66.5768 32.9901 66.5768H33.2847V66.0788C33.2847 65.5064 33.3043 65.531 32.8458 65.5295C32.1815 65.5273 31.1674 65.2776 30.7142 65.0045C30.0315 64.5932 29.7575 64.0806 29.763 63.2244C29.7676 62.4935 29.9544 62.0604 30.505 61.5034L30.7897 61.2155L30.5848 61.1259C30.2987 61.001 29.8626 60.8358 29.8189 60.8358C29.7989 60.8358 29.6542 60.9351 29.4974 61.0565Z" fill="#030712"/>
</svg>
