<svg width="125" height="57" viewBox="0 0 125 57" fill="none" xmlns="http://www.w3.org/2000/svg">
<path fill-rule="evenodd" clip-rule="evenodd" d="M39.2174 2.2104C39.311 3.10723 39.5374 8.87143 39.7204 15.0201C39.9033 21.1687 40.1037 26.4466 40.1654 26.7488C40.2457 27.1425 38.483 28.8303 33.9411 32.7086L27.605 38.1191L30.3101 39.3886C31.7977 40.0867 33.1891 40.591 33.4022 40.509C33.9216 40.3093 65.7632 12.9643 65.7558 12.7243C65.7508 12.5671 62.5151 11.0377 60.7667 10.3657C60.4293 10.2362 58.0638 12.0709 53.1916 16.2405C49.2954 19.5753 46.082 22.2721 46.0507 22.2332C45.8683 22.0069 45.619 14.7682 45.6122 9.51052L45.6044 3.37957L42.6131 1.97998C40.968 1.20985 39.4924 0.580078 39.3346 0.580078C39.1733 0.580078 39.1222 1.29494 39.2174 2.2104ZM79.0397 17.1165C76.3622 17.9913 76.3485 18.0012 76.6344 18.8372C76.7929 19.2996 79.4881 27.6152 82.6239 37.3157C85.7601 47.0166 88.3877 55.0154 88.4633 55.0912C88.6178 55.2462 93.3894 53.7149 93.7467 53.3957C93.9743 53.1923 82.334 16.728 81.938 16.4048C81.8248 16.3125 80.5208 16.6327 79.0397 17.1165ZM13.3529 25.4156C8.18983 26.3618 3.23705 30.2606 1.52554 34.7262C0.704678 36.8679 0.434262 40.6419 0.942224 42.8607C1.97117 47.3535 5.46054 52.0573 9.06186 53.8068C14.3694 56.3852 21.1199 55.1359 25.744 50.7195C27.3863 49.1506 30.0995 44.8838 29.7053 44.4895C29.6278 44.4118 28.4432 43.805 27.0725 43.1414L24.5808 41.935L24.0678 43.2799C23.3614 45.1323 21.3388 47.338 19.4382 48.3289C17.3747 49.4053 13.8797 49.518 11.9707 48.5699C10.2818 47.7312 8.57375 45.8872 7.54728 43.7945C6.40235 41.4595 6.32079 37.7763 7.37021 35.7966C9.22219 32.3033 12.9916 30.6882 17.5732 31.4251L19.1572 31.6801L19.8215 29.0287C20.1865 27.5704 20.4854 26.3075 20.4854 26.2227C20.4854 25.6346 15.3376 25.052 13.3529 25.4156ZM60.8374 26.0718C53.351 27.3698 48.0968 35.1668 49.2665 43.243C50.1969 49.668 54.2742 53.8093 60.9655 55.1257C64.5565 55.8322 67.3479 55.4614 70.618 53.8428C71.8919 53.2125 72.9996 52.5259 73.0796 52.3169C73.2325 51.9178 70.7994 47.4712 70.4282 47.4712C70.31 47.4712 69.3862 47.9256 68.3753 48.4805C66.6858 49.4081 66.3108 49.4897 63.7459 49.4897C60.5152 49.4897 59.2022 48.995 57.3434 47.0769C55.7168 45.3987 55.109 43.374 55.283 40.2149C55.5733 34.942 58.7048 31.6577 63.4581 31.6407C66.0919 31.631 67.9715 32.3633 69.941 34.1656L71.6175 35.7L73.7287 33.6896L75.8403 31.6792L74.5998 30.3979C71.2391 26.9267 65.7892 25.2135 60.8374 26.0718ZM105.534 27.1258C101.682 28.2102 98.3704 30.9628 96.6165 34.5389C94.5204 38.8128 94.5365 42.5998 96.6692 46.8685C99.285 52.1045 105.215 56.1663 110.244 56.1663C113.517 56.1663 117.542 54.2478 120.297 51.3741C123.185 48.3631 124.672 44.8649 124.679 41.0655L124.683 39.1625L122.208 38.7771C120.846 38.565 119.632 38.443 119.509 38.5063C119.387 38.5694 119.267 39.4603 119.243 40.4863C119.181 43.1864 118.366 45.3233 116.682 47.1989C113.945 50.2474 110.339 51.0946 107.062 49.459L105.445 48.6522L107.902 45.9654C109.253 44.4879 110.804 42.8598 111.348 42.3474C111.892 41.835 114.154 39.4948 116.374 37.1468L120.41 32.8778L118.783 31.4019C114.506 27.5251 109.666 25.9628 105.534 27.1258ZM110.96 33.1781C111.685 33.5076 112.278 33.9203 112.278 34.0955C112.278 34.4547 102.4 44.6764 102.053 44.6764C101.49 44.6764 100.65 41.953 100.666 40.1814C100.692 37.2539 102.716 34.2445 105.456 33.0592C106.962 32.4077 109.38 32.4599 110.96 33.1781Z" fill="#030712"/>
</svg>
