<svg width="136" height="63" viewBox="0 0 136 63" fill="none" xmlns="http://www.w3.org/2000/svg">
<path fill-rule="evenodd" clip-rule="evenodd" d="M0.368774 12.9839V25.2315H5.91864C10.8179 25.2315 11.6653 25.167 13.1493 24.6797C16.3421 23.6315 18.328 21.9631 19.6892 19.1849C20.6815 17.1592 20.9818 15.2818 20.868 11.811C20.7777 9.05665 20.6683 8.43207 20.0436 7.11147C19.047 5.00351 18.1261 3.89535 16.5402 2.89555C13.9177 1.24221 12.7484 1.01171 6.24787 0.867249L0.368774 0.736328V12.9839ZM42.5361 12.9991V25.1972L45.3421 25.2809C46.8855 25.3268 48.3452 25.3258 48.5857 25.2785C48.9815 25.2007 49.0234 24.0222 49.0234 12.9967V0.800593H45.7797H42.5361V12.9991ZM71.7288 2.92502V5.04945H74.8373H77.9458V2.92502V0.800593H74.8373H71.7288V2.92502ZM88.0822 1.46288C87.9335 1.51201 86.626 1.75287 85.1764 1.99771L82.541 2.44304V4.77301V7.1027L81.5273 7.0719L80.5137 7.0411L80.4358 9.49747L80.3583 11.9538H81.4243H82.4904L82.6015 16.933C82.6883 20.8084 82.8115 22.1259 83.1575 22.876C84.1995 25.1343 86.742 26.0659 90.4457 25.5459C93.6377 25.0977 93.6234 25.1123 93.6234 22.3078V19.9337L92.9301 20.1926C92.5487 20.335 91.6407 20.4515 90.9122 20.4515C89.8794 20.4515 89.5261 20.3384 89.308 19.938C89.1534 19.6538 89.0282 17.7596 89.0282 15.7008V11.9772L90.9879 11.8991L92.9476 11.8211V9.43108V7.0411L92.1367 7.01109C91.6907 6.99462 90.8087 6.96462 90.177 6.9447L89.0282 6.90832V4.12001C89.0282 1.34153 88.9671 1.17051 88.0822 1.46288ZM101.192 1.64187C100.374 1.77783 99.0665 2.01098 98.2861 2.16023L96.867 2.43162V4.65404V6.87619L95.8534 6.95878L94.8397 7.0411L94.7619 9.49747L94.6843 11.9538H95.7493H96.8146L96.9378 16.6674C97.0057 19.2597 97.2063 21.8314 97.3838 22.3818C98.211 24.95 100.86 26.0948 104.722 25.5531C105.846 25.3953 107.093 25.1197 107.492 24.9407C108.203 24.6226 108.22 24.5607 108.22 22.2392C108.22 20.0784 108.177 19.8814 107.747 20.0617C107.487 20.1706 106.591 20.3161 105.756 20.3852C103.515 20.5697 103.354 20.2497 103.354 15.6124V11.9538H105.392H107.429L107.352 9.49747L107.274 7.0411L106.057 7.01162C105.388 6.99542 104.506 6.96542 104.098 6.94523L103.354 6.90832V4.12001C103.354 2.04949 103.267 1.33993 103.016 1.3633C102.831 1.38056 102.01 1.5059 101.192 1.64187ZM11.179 6.80582C12.5573 7.34755 13.2247 8.26955 13.7799 10.3988C14.5094 13.1958 13.9534 16.5638 12.4921 18.1989C11.6204 19.1742 9.68342 19.9204 8.02322 19.9204H7.12635V13.1488V6.37721H8.60762C9.42231 6.37721 10.5792 6.57 11.179 6.80582ZM29.3515 6.90805C27.7156 7.24849 25.6248 8.43259 24.8128 9.47834C23.2613 11.4769 22.9437 12.618 22.9413 16.2027C22.9394 19.3046 22.9888 19.6214 23.6976 21.0395C25.3237 24.2928 28.0005 25.6383 32.8052 25.6176C35.5593 25.6059 38.5275 25.0066 38.9197 24.3828C39.1073 24.0846 38.2429 20.1849 37.9901 20.1889C37.8888 20.1905 37.2087 20.3698 36.4789 20.5872C34.7608 21.0992 31.9251 21.0984 30.916 20.5859C30.014 20.1276 29.2912 19.2149 29.2912 18.5334C29.2912 18.0966 29.7042 18.0616 34.8714 18.0616H40.4512L40.2977 15.3396C40.2131 13.8427 39.9487 12.0728 39.7103 11.4071C39.1559 9.85915 37.6406 8.32133 35.8899 7.53025C34.3232 6.82228 31.1942 6.52459 29.3515 6.90805ZM57.9961 6.90991C55.1865 7.49227 53.3044 8.99424 52.024 11.6761C51.3966 12.9906 51.3223 13.4627 51.3342 16.0699C51.345 18.4325 51.4609 19.2725 51.9407 20.463C54.381 26.5152 63.5303 27.6236 67.5953 22.3593C68.9055 20.6627 69.3775 18.76 69.2472 15.7016C69.0726 11.6094 67.6624 9.17747 64.6166 7.7164C62.7502 6.82095 60.0269 6.48928 57.9961 6.90991ZM116.131 6.92266C112.379 7.65028 110.157 10.1672 109.569 14.356C108.519 21.8351 112.802 26.2316 120.58 25.6588C122.626 25.5079 125.092 24.9171 125.591 24.4582C125.754 24.3079 125.087 20.5413 124.845 20.246C124.812 20.2059 124.073 20.3551 123.203 20.5779C121.295 21.0663 118.604 21.0979 117.688 20.643C117.053 20.3273 115.788 18.7629 115.788 18.2931C115.788 18.1718 118.312 18.0401 121.397 18.0005L127.006 17.9288L127.098 16.601C127.215 14.9057 126.675 11.8269 126.05 10.6261C125.482 9.53332 124.096 8.19519 122.946 7.62664C122.001 7.16007 119.311 6.62949 118.104 6.67198C117.648 6.68791 116.76 6.80077 116.131 6.92266ZM71.8648 7.12873C71.7899 7.20229 71.7288 11.3054 71.7288 16.247C71.7288 25.8176 71.6591 25.2979 72.9452 25.2979C73.1682 25.2979 74.3846 25.283 75.6482 25.2647L77.9458 25.2315V16.0795V6.92744L74.9733 6.96117C73.3385 6.97976 71.9397 7.05517 71.8648 7.12873ZM33.4558 11.7547C33.8301 12.0834 34.2148 12.6809 34.311 13.0824L34.4856 13.8127H31.8883C30.46 13.8127 29.2912 13.7708 29.2912 13.7195C29.2912 13.6682 29.4258 13.2473 29.5902 12.784C30.1411 11.2313 32.2267 10.676 33.4558 11.7547ZM119.677 11.4113C120.307 11.6469 121.194 12.8875 121.194 13.5339C121.194 13.7091 120.23 13.8127 118.597 13.8127H116L116.186 13.084C116.596 11.4788 118.025 10.7942 119.677 11.4113ZM62.106 12.5707C62.601 13.2245 62.6737 13.6898 62.6737 16.2027C62.6737 18.7122 62.6007 19.1809 62.1087 19.8283C61.0491 21.2224 59.2443 21.1303 58.3564 19.6371C57.6325 18.4195 57.5895 14.1316 58.2885 12.8408C58.8327 11.8359 59.1076 11.7018 60.4842 11.7693C61.2921 11.8088 61.6711 11.9963 62.106 12.5707ZM130.458 18.9865C128.141 19.9757 127.815 23.6815 129.926 25.04C132.357 26.6052 135.522 25.0013 135.519 22.2047C135.517 19.5086 132.993 17.9038 130.458 18.9865ZM75.7834 42.0774V54.4424H76.7321H77.6809L77.6106 42.1605L77.5403 29.8787L76.6619 29.7956L75.7834 29.7122V42.0774ZM0.368774 42.9243V54.5093L5.0315 54.3677C9.96832 54.2177 11.3663 53.9463 13.486 52.7258C15.6152 51.5 17.3089 49.0232 17.905 46.2636C18.072 45.4895 18.2088 43.7384 18.2088 42.3722C18.2088 36.9238 15.7777 33.2435 11.2763 31.8775C9.79073 31.4269 8.75899 31.3392 4.93555 31.3392H0.368774V42.9243ZM10.5719 33.4828C12.8 34.2218 14.4013 35.6462 15.3855 37.7635C16.111 39.3241 16.1639 39.6651 16.1639 42.758C16.1639 45.8435 16.1096 46.1943 15.3928 47.7364C13.7623 51.2446 11.2158 52.5718 5.70726 52.7858L2.2609 52.9194V42.9261V32.9325H5.58725C8.23811 32.9325 9.25013 33.0443 10.5719 33.4828ZM21.1821 34.1275C21.1821 35.3536 21.1837 35.356 22.0606 35.2729C22.8912 35.1943 22.9391 35.1319 22.9391 34.1275C22.9391 33.1232 22.8912 33.0608 22.0606 32.9822C21.1837 32.8991 21.1821 32.9015 21.1821 34.1275ZM43.0767 34.1443C43.0767 35.3515 43.0799 35.356 43.9552 35.2729C44.8666 35.1866 44.8804 35.1507 44.7258 33.2645C44.7104 33.0786 44.3417 32.9325 43.8876 32.9325C43.1051 32.9325 43.0767 32.975 43.0767 34.1443ZM49.564 35.1898V37.1814H48.1946C46.8601 37.1814 46.8271 37.2 46.9107 37.9117C46.9885 38.5785 47.1058 38.6489 48.2595 38.7221L49.5226 38.8021L49.611 45.361C49.6918 51.3843 49.744 51.9956 50.2489 52.8491C50.976 54.078 52.3035 54.7079 54.1591 54.7039C56.3548 54.6992 56.8621 54.5072 56.8627 53.681C56.8632 52.9853 56.8543 52.9824 55.0098 53.0684C53.3558 53.1459 53.0717 53.0841 52.3738 52.4945L51.5912 51.8336L51.5104 45.3142L51.4293 38.7949L53.9431 38.7184L56.4567 38.6419L56.5421 37.9117L56.6278 37.1814H54.0418H51.4561V35.1898V33.1981H50.51H49.564V35.1898ZM29.0366 37.499C27.2083 38.4306 26.3019 39.7198 26.1246 41.6398C25.9011 44.063 26.1814 44.9988 27.5515 46.4035L28.7568 47.6392L27.9329 48.4743C26.7533 49.6698 26.6066 50.9209 27.521 51.9884L28.237 52.8246L27.2099 53.3422C25.0831 54.4134 24.0609 56.4473 24.6604 58.4137C25.4683 61.0629 27.3653 62.0106 31.8591 62.0106C36.0453 62.0106 38.1353 61.1872 39.4938 59.003C40.3096 57.6914 40.338 55.2765 39.5525 54.0278C38.604 52.52 37.0797 52.0102 33.0398 51.8492C29.0715 51.691 28.2546 51.3784 28.5714 50.1391C28.9633 48.6047 29.5877 48.2345 32.1118 48.0417C34.913 47.8277 36.6183 46.9662 37.5955 45.2715C38.4691 43.756 38.4472 41.1833 37.5479 39.6378L36.8911 38.5092H38.6407C39.9801 38.5092 40.4288 38.4114 40.5531 38.0931C40.6426 37.8641 40.6083 37.5787 40.4772 37.4589C40.3458 37.3389 37.9882 37.1612 35.2379 37.0638C30.3678 36.8914 30.2059 36.9028 29.0366 37.499ZM63.4846 37.0468C63.3359 37.0956 62.5066 37.3442 61.6414 37.5989C60.1596 38.0354 60.0788 38.1018 60.2445 38.7498C60.3409 39.1282 60.4642 39.4808 60.518 39.5339C60.5721 39.5868 61.3765 39.3781 62.3055 39.0698C64.3193 38.4016 66.8231 38.3376 67.9792 38.925C69.0371 39.4625 69.8232 41.1599 69.8308 42.9245L69.8367 44.2857L66.6606 44.4127C62.904 44.5625 60.8648 45.1947 59.61 46.599C57.3933 49.0793 58.0147 52.6549 60.9189 54.1293C61.952 54.654 62.4355 54.73 64.1603 54.6389C66.3909 54.5212 67.3902 54.1237 68.8463 52.7747L69.8005 51.8904L69.9792 53.1664C70.1362 54.2886 70.2362 54.4424 70.8082 54.4424H71.4585L71.4526 47.6044C71.4474 41.5391 71.3904 40.6463 70.9501 39.7042C70.0256 37.7263 68.433 36.9042 65.5881 36.9368C64.5798 36.9482 63.6332 36.9979 63.4846 37.0468ZM21.1821 45.8119V54.4761L22.0606 54.3927L22.9391 54.3096V45.8119V37.3142L22.0606 37.2311L21.1821 37.1477V45.8119ZM43.0767 45.8286V54.4761L43.9552 54.3927C44.4382 54.347 44.8031 54.2201 44.7661 54.1104C44.729 54.0008 44.6985 50.147 44.6985 45.5463V37.1814H43.8876H43.0767V45.8286ZM35.0622 39.1247C36.5556 40.2438 36.9822 42.5461 36.0642 44.533C35.2887 46.2107 33.3496 46.9482 30.9211 46.4888C28.5757 46.045 27.2529 43.671 27.9446 41.1469C28.2789 39.927 29.4723 38.6255 30.4497 38.4144C31.8856 38.1045 34.1702 38.4563 35.0622 39.1247ZM69.7783 47.4716C69.628 49.5304 68.8669 51.2236 67.7481 51.9895C65.1999 53.7331 61.3595 53.4242 60.5015 51.4066C59.9425 50.0926 60.009 49.0856 60.7234 48.042C61.8233 46.4354 62.6288 46.2195 69.3999 45.7168C69.8643 45.6826 69.8978 45.8379 69.7783 47.4716ZM36.3461 53.9142C37.7925 54.3091 38.3499 55.0561 38.3272 56.5692C38.2877 59.1894 36.5959 60.3217 32.4548 60.4994C28.2027 60.6815 26.4982 59.7399 26.4982 57.2086C26.4982 54.5066 27.904 53.6595 32.3997 53.6532C34.035 53.6508 35.8109 53.7681 36.3461 53.9142Z" fill="#030712"/>
</svg>
