<svg width="118" height="63" viewBox="0 0 118 63" fill="none" xmlns="http://www.w3.org/2000/svg">
<path fill-rule="evenodd" clip-rule="evenodd" d="M0.6698 12.9796C0.6698 19.7134 0.725826 33.4596 0.794407 43.5267L0.919014 61.8306H7.14523C12.7357 61.8306 13.3834 61.8003 13.4891 61.5333C13.5538 61.3697 13.6014 55.9081 13.5948 49.3963L13.583 37.5566H19.8212H26.0596L26.1078 49.6936L26.1559 61.8306H32.6201H39.0843L39.0365 43.4205L38.9887 25.0104L26.2938 24.9637L13.5989 24.9169V12.8266V0.736328H7.13436H0.6698V12.9796ZM51.7573 25.1899C51.6119 25.5579 51.6094 41.549 51.755 41.9168C51.8356 42.1208 52.1534 42.1932 52.9685 42.1932H54.0727V38.4037C54.0727 34.304 54.2429 33.2585 55.0448 32.4277C55.6576 31.7931 56.5797 31.4653 57.7523 31.4653C58.6414 31.4653 58.8468 31.54 59.4627 32.0875L60.1625 32.7099L60.2562 37.406L60.3499 42.1023L61.4273 42.1568L62.5048 42.2114V37.4162C62.5048 32.0035 62.388 31.3369 61.2737 30.3876C60.5982 29.8119 59.0795 29.2834 58.1014 29.2834C57.1735 29.2834 55.7029 29.7761 54.8575 30.3705L54.0819 30.9156L54.0306 27.9629L53.979 25.0104L52.925 24.9566C52.1022 24.9146 51.8459 24.9657 51.7573 25.1899ZM69.3441 29.4068C67.9108 29.7176 66.9441 30.0812 66.4255 30.5049C65.7796 31.0322 64.9456 32.5695 64.9426 33.2381C64.9409 33.6207 65.0199 33.6472 66.1586 33.6472C67.1338 33.6472 67.3766 33.5911 67.3766 33.3654C67.3766 32.787 67.9826 31.9744 68.6009 31.7237C69.4423 31.3826 71.3708 31.3917 72.0648 31.7399C72.719 32.0682 72.998 32.5223 72.998 33.2587C72.998 33.6798 72.6185 34.3613 72.3757 34.3767C72.3571 34.3778 71.2192 34.5777 69.8468 34.8209C67.1341 35.3015 65.9495 35.7505 65.2427 36.5654C64.7732 37.1069 64.3399 38.5875 64.47 39.2066C64.5103 39.3992 64.5907 39.7754 64.6482 40.0427C64.9484 41.4328 66.6149 42.375 68.7739 42.375C70.3612 42.375 71.4956 42.0364 72.4827 41.2682C72.9704 40.8887 73.1853 40.8033 73.1853 40.9887C73.1853 41.1358 73.4036 41.5079 73.6705 41.8155C74.1078 42.3201 74.2607 42.375 75.2257 42.375C75.8143 42.375 76.397 42.2768 76.5207 42.1568C76.6443 42.0368 76.7455 41.592 76.7455 41.1682C76.7455 40.4322 76.7186 40.3954 76.1366 40.3409L75.5276 40.284L75.4339 35.9054L75.3402 31.5268L74.8354 30.8853C74.5579 30.5323 74.0372 30.1085 73.6781 29.9432C72.5258 29.4125 70.4833 29.1597 69.3441 29.4068ZM93.0475 29.5356C91.6704 29.8319 90.9663 30.2178 90.1838 31.1049C89.5761 31.7937 89.2999 32.4817 89.2999 33.3063C89.2999 33.6009 89.4493 33.6472 90.3957 33.6472H91.4917L91.7827 32.9281C92.2046 31.8859 93.0128 31.4668 94.6027 31.466C96.0643 31.4651 96.909 31.7997 97.1779 32.4859C97.728 33.89 97.2311 34.3091 94.4875 34.7553C90.1905 35.4541 88.9737 36.2821 88.7912 38.6312C88.6707 40.1822 89.225 41.1755 90.5998 41.8724C91.446 42.3014 91.8147 42.375 93.1157 42.3748C94.4088 42.3748 94.8146 42.2946 95.7888 41.8475C96.4205 41.5575 96.9946 41.2302 97.0647 41.1202C97.2513 40.8271 97.5446 40.8766 97.5446 41.2013C97.5446 41.3559 97.7516 41.6831 98.0046 41.9286C98.3808 42.2939 98.651 42.375 99.4901 42.375C100.757 42.375 101.149 42.0644 101.068 41.1258C101.018 40.5529 100.938 40.4554 100.449 40.3742L99.8868 40.2811L99.7866 36.1005C99.7272 33.6296 99.6005 31.734 99.4766 31.4653C98.9784 30.3849 98.0299 29.7861 96.3352 29.4821C94.9816 29.2394 94.379 29.2492 93.0475 29.5356ZM105.242 29.561C103.095 30.1449 102.042 31.2375 102.042 32.8803C102.042 34.3758 102.716 35.3302 104.199 35.9341C104.61 36.1016 105.894 36.4712 107.052 36.7558C109.394 37.3309 110.047 37.6556 110.222 38.3317C110.54 39.5628 109.447 40.3749 107.471 40.3749C105.603 40.3749 104.467 39.6996 104.029 38.3293C103.948 38.0775 103.715 38.0111 102.911 38.0111C101.694 38.0111 101.574 38.1871 101.95 39.4143C102.541 41.3428 104.403 42.375 107.288 42.375C109.377 42.375 110.821 41.9072 111.81 40.9096C113.032 39.6772 113.169 37.7518 112.127 36.4665C111.558 35.7646 110.168 35.1882 107.7 34.6308C104.887 33.9958 104.043 33.3205 104.661 32.1997C104.91 31.7482 105.827 31.4653 107.041 31.4653C108.461 31.4653 109.261 31.835 109.671 32.6803C110.007 33.371 110.014 33.3745 111.131 33.3745H112.254L112.189 32.829C112.019 31.4104 111.019 30.2252 109.595 29.7543C108.274 29.3175 106.438 29.2359 105.242 29.561ZM76.6696 29.8008C76.5568 29.9779 81.0837 41.7481 81.3721 42.0279C81.477 42.1297 82.0482 42.1881 82.6412 42.1575L83.7198 42.1023L84.1586 41.0113C85.2458 38.3084 88.363 30.0338 88.363 29.8507C88.363 29.5612 86.2087 29.5828 85.9889 29.8743C85.8947 29.9994 85.1069 32.207 84.2386 34.7802C83.3701 37.3534 82.6049 39.399 82.5382 39.3259C82.4713 39.2528 81.7169 37.1474 80.8617 34.6473C80.0065 32.1472 79.2261 29.9994 79.1275 29.8743C78.9249 29.6176 76.8263 29.555 76.6696 29.8008ZM72.9684 37.366C72.906 38.5661 72.8357 38.7841 72.3539 39.2719C71.5619 40.0743 70.4374 40.4362 69.0413 40.3382C68.0671 40.2698 67.8119 40.1776 67.442 39.7603C66.8911 39.1388 66.8681 38.2253 67.3869 37.5851C67.7935 37.0834 69.2571 36.5592 70.2682 36.553C70.5843 36.551 71.2647 36.4356 71.78 36.2965C72.2953 36.1574 72.7894 36.0363 72.8779 36.0272C72.9665 36.0183 73.0071 36.6207 72.9684 37.366ZM97.3158 37.2556C97.203 38.7855 96.7439 39.4677 95.4688 40C94.3505 40.4667 92.7552 40.4987 92.1055 40.0672C91.4512 39.6327 91.3673 39.4705 91.3639 38.6337C91.3592 37.412 92.1936 36.8572 94.4693 36.5696C95.2848 36.4667 96.2048 36.3058 96.514 36.2123C96.8232 36.1188 97.1507 36.0352 97.2418 36.0266C97.333 36.0181 97.3662 36.571 97.3158 37.2556ZM95.421 44.86C95.3522 44.9266 95.296 46.291 95.296 47.8919V50.8026L94.8722 50.416C93.5296 49.1923 90.6728 48.8163 88.8315 49.621C86.0487 50.8371 84.8013 53.99 85.6575 57.6429C86.0614 59.3661 86.992 60.6164 88.4567 61.4037C89.4893 61.9588 89.7149 62.0083 91.2265 62.0103C93.0111 62.0126 93.726 61.8103 94.6747 61.0339L95.2713 60.5456L95.3305 61.1428C95.3892 61.7343 95.3995 61.7403 96.4671 61.7943L97.5446 61.8488V53.2938V44.7388H96.5453C95.9955 44.7388 95.4896 44.7933 95.421 44.86ZM100.855 44.86C100.786 44.9266 100.73 45.4994 100.73 46.1328V47.2844H101.854H102.979V46.0116V44.7388H101.979C101.429 44.7388 100.924 44.7933 100.855 44.86ZM56.9771 49.2248C56.1384 49.4039 55.437 49.7407 54.6817 50.3271L53.8853 50.9453V50.2058V49.4663H52.8548H51.8242V55.6576V61.8488L52.9016 61.7943L53.979 61.7397L54.0727 57.4667C54.1353 54.6082 54.2415 53.0667 54.3935 52.8096C54.7932 52.1332 55.9176 51.3062 56.6087 51.1806C57.4924 51.0197 58.5312 51.1942 58.9667 51.5768C59.574 52.1101 59.692 53.0754 59.693 57.5213L59.6941 61.8488L60.7715 61.7943L61.8489 61.7397L61.9426 57.3431C62.0453 52.5261 62.0537 52.4907 63.3101 51.5804C63.9331 51.1291 65.7592 50.98 66.4397 51.3249C67.4564 51.8402 67.5634 52.4116 67.5636 57.3304L67.564 61.8306H68.6883H69.8125V56.9654C69.8125 54.2897 69.7299 51.8208 69.6289 51.479C68.8961 48.9992 64.5847 48.3184 62.2998 50.3216L61.5482 50.9806L60.9857 50.3185C60.1949 49.3876 58.4474 48.9108 56.9771 49.2248ZM77.1203 49.2163C74.0255 49.7783 71.7463 52.9805 72.1579 56.1874C72.4162 58.1999 72.9537 59.4478 73.9997 60.4626C75.2298 61.6563 76.2482 62.013 78.4185 62.0106C81.2777 62.0075 82.9013 60.8569 83.7625 58.2237C83.8845 57.8506 83.8339 57.8304 82.7771 57.8304C81.7154 57.8304 81.6519 57.8562 81.4296 58.3768C80.8742 59.678 79.2277 60.4115 77.5432 60.1085C75.9503 59.8218 74.6969 58.5201 74.6285 57.0809L74.5907 56.2849L79.322 56.2363L84.0533 56.1878L84.0518 55.7817C84.0458 54.0531 83.303 51.9599 82.2749 50.7744C81.3133 49.6652 78.8118 48.9092 77.1203 49.2163ZM109.726 49.2907C107.62 49.7203 106.12 51.0829 106.087 52.5954C106.076 53.1158 106.148 53.3696 106.305 53.3574C106.433 53.3474 106.918 53.3271 107.382 53.312C108.006 53.2918 108.225 53.2116 108.225 53.0029C108.225 51.9001 109.532 51.1028 111.339 51.1028C113.029 51.1028 114.034 51.7884 114.034 52.9416C114.034 53.9582 113.684 54.1184 110.092 54.7486C106.583 55.3641 105.521 56.2494 105.521 58.5577C105.521 60.0071 105.886 60.7377 106.952 61.4222C107.598 61.8375 107.977 61.9324 109.2 61.9864C111.125 62.0714 111.692 61.9526 112.995 61.1917C114.231 60.4693 114.221 60.4724 114.221 60.806C114.221 60.9426 114.399 61.2735 114.616 61.5415C114.979 61.989 115.105 62.0245 116.162 61.9752L117.313 61.9215L117.37 61.0579C117.424 60.2476 117.399 60.1942 116.969 60.1942C116.716 60.1942 116.459 60.0647 116.396 59.9065C116.334 59.7483 116.282 57.9279 116.281 55.8608C116.281 53.794 116.197 51.8117 116.095 51.456C115.873 50.6789 115.134 49.9532 114.165 49.5605C113.29 49.2059 110.864 49.0585 109.726 49.2907ZM100.815 49.695C100.765 49.8209 100.747 52.5825 100.774 55.8317L100.824 61.7397L101.901 61.7943L102.979 61.8488V55.6576V49.4663H101.942C101.282 49.4663 100.873 49.5494 100.815 49.695ZM79.6967 51.4884C80.5917 51.9088 81.3506 52.8539 81.543 53.7876L81.6642 54.3757H78.1854C75.9522 54.3757 74.6628 54.3071 74.5845 54.1842C74.3937 53.8845 75.3885 52.0826 75.9377 51.7333C77.0622 51.0184 78.4972 50.9249 79.6967 51.4884ZM93.0066 51.3851C93.3898 51.5404 93.9328 51.881 94.2135 52.1419C95.3554 53.2031 95.7334 56.1881 94.9445 57.9146C94.4197 59.0634 94.0713 59.4378 93.1412 59.8521C91.0774 60.7718 88.6259 59.5861 87.9828 57.3573C87.654 56.2174 87.8288 53.922 88.3137 53.012C88.7923 52.1141 89.4562 51.497 90.1654 51.2908C91.0302 51.0397 92.2545 51.0802 93.0066 51.3851ZM114.034 56.7485C114.034 58.0282 113.72 58.7243 112.863 59.3414C111.678 60.1953 110.108 60.4305 108.89 59.9369C108.143 59.6341 107.85 59.1794 107.85 58.3235C107.85 57.1044 109.119 56.4012 111.863 56.1001C112.472 56.0332 113.146 55.9096 113.362 55.825C114.008 55.5714 114.034 55.6066 114.034 56.7485Z" fill="#030712"/>
</svg>
