<svg width="126" height="49" viewBox="0 0 126 49" fill="none" xmlns="http://www.w3.org/2000/svg">
<path fill-rule="evenodd" clip-rule="evenodd" d="M74.9331 1.49354L70.8761 2.51625L70.8376 3.02504L70.7992 3.53396L72.1624 3.94855C73.0262 4.21127 73.571 4.44584 73.6497 4.5887C73.7273 4.72969 73.774 10.0481 73.774 18.7771V32.7399L73.4578 33.0469C73.1429 33.3528 73.1315 33.3541 70.5242 33.3541C68.3637 33.3541 67.8568 33.32 67.6206 33.1593L67.3342 32.9646V23.4638C67.3342 17.0014 67.2916 13.9632 67.2009 13.9632C67.1277 13.9632 65.2532 14.4135 63.0355 14.964C60.8176 15.5144 58.9651 15.9648 58.9184 15.9648C58.8719 15.9648 58.8338 16.2092 58.8338 16.508V17.0513L60.0252 17.4011C60.6803 17.5936 61.318 17.8363 61.4419 17.9407C61.6518 18.1173 61.6673 18.6421 61.6673 25.6097C61.6673 31.4573 61.6321 33.1106 61.5063 33.1877C61.4178 33.242 60.8816 33.3446 60.3149 33.4158L59.2846 33.5451L59.2462 34.326L59.2078 35.1069L70.7089 35.0749L82.21 35.043L82.2497 34.3668C82.2747 33.9396 82.2327 33.6566 82.1356 33.5983C82.0509 33.5475 81.4826 33.4663 80.8723 33.4179C80.159 33.3613 79.6824 33.2602 79.5375 33.1349C79.325 32.9511 79.3121 32.0088 79.3121 16.696C79.3121 3.77929 79.2792 0.453932 79.1511 0.461438C79.0627 0.466568 77.1645 0.930949 74.9331 1.49354ZM15.4301 2.08515C7.81087 3.00315 1.88066 8.15751 0.359853 15.1837C-0.0287195 16.9788 -0.11411 19.6652 0.160093 21.4667C1.23643 28.5385 6.49498 33.8097 13.9151 35.2548C15.1009 35.4857 15.7888 35.537 17.684 35.5362C21.0243 35.535 23.1951 35.0762 25.9268 33.7946C27.796 32.9175 29.3143 31.8478 30.7861 30.3709C33.0733 28.0759 34.3412 25.7776 35.1617 22.4399C35.4078 21.4389 35.4468 20.9251 35.4498 18.6545C35.4529 16.2169 35.4283 15.9321 35.11 14.7083C34.2583 11.4327 32.8579 8.98594 30.5889 6.80853C28.1797 4.4965 24.9015 2.87404 21.3965 2.25866C20.0299 2.01884 16.7683 1.92389 15.4301 2.08515ZM19.8829 4.27007C20.3028 4.37328 21.1389 4.69154 21.741 4.97727C22.6605 5.41351 23.0421 5.69886 24.1237 6.75873C25.0141 7.6312 25.5846 8.31927 25.9722 8.98794C27.8298 12.1933 28.5549 15.4152 28.397 19.7629C28.2374 24.1551 27.0525 27.5621 24.7175 30.3422C24.0705 31.1126 22.5388 32.2696 21.5796 32.7122C18.9526 33.9248 15.8775 33.8033 13.3694 32.3878C12.1445 31.6966 10.364 29.9115 9.53852 28.5474C7.23258 24.7362 6.46819 19.2744 7.52456 14.1574C7.83006 12.6775 8.27582 11.4331 9.05064 9.89731C11.3313 5.37698 15.5258 3.19794 19.8829 4.27007ZM59.3272 5.20884C54.6682 5.97259 51.6038 9.29407 51.5672 13.6202C51.5585 14.6557 51.5276 14.829 51.3637 14.7604C50.0167 14.1972 47.6438 13.9024 45.9546 14.0883C41.8973 14.5346 38.8941 16.7509 37.8933 20.0371C37.5513 21.1602 37.5762 23.0534 37.9468 24.1121C38.4988 25.689 39.3972 26.8754 40.8213 27.9082L41.5483 28.4355L40.5871 28.6556C39.3437 28.9403 37.9986 29.599 37.2853 30.2723C35.4706 31.9854 35.1287 34.8182 36.4942 36.8252C37.3313 38.0556 38.7007 38.7723 40.6817 39.0171C41.6923 39.1421 42.1637 39.1084 46.3277 38.6153C51.3259 38.0233 52.4568 37.9968 53.3601 38.4504C54.4091 38.9773 54.7841 39.7311 54.6826 41.1087C54.5152 43.3816 52.5155 45.2836 49.5933 45.9495C48.0824 46.2938 45.5462 46.2638 44.3019 45.8869C42.5782 45.3647 41.711 44.1999 41.9051 42.6673C42.0637 41.4146 41.5116 40.4837 40.4806 40.2652C39.5126 40.0602 38.665 40.4198 38.1623 41.2487C37.7606 41.9112 37.8097 43.327 38.2678 44.2918C39.3758 46.6251 41.9106 47.9627 45.7491 48.2394C51.9944 48.6897 56.9253 45.7942 58.19 40.934C58.9819 37.8903 57.928 35.1194 55.5289 33.9386C53.6564 33.0169 52.3334 32.9835 46.5498 33.7124C41.8462 34.3051 40.8719 34.3453 40.0915 33.9783C39.4318 33.6682 39.1927 33.2556 39.1927 32.4282C39.1927 31.5704 39.5555 31.0955 40.5818 30.6092C41.7455 30.0581 42.9899 29.8522 45.89 29.731C48.6597 29.6153 49.7909 29.4287 51.2365 28.8497C54.517 27.5358 56.3765 24.9716 56.4098 21.7165C56.4275 19.9696 56.0233 18.7667 54.9485 17.3684C54.2727 16.4895 54.0637 15.8743 53.9821 14.5261C53.7384 10.4952 56.4882 7.38475 60.0982 7.60806C61.2047 7.67649 61.4011 7.89817 61.3838 9.05875C61.369 10.0436 61.5825 10.609 62.1934 11.2023C63.4132 12.3872 65.3614 12.3839 66.5227 11.1949C67.0953 10.6086 67.3342 9.97725 67.3342 9.05012C67.3342 7.16282 65.8737 5.79282 63.3148 5.2799C62.2822 5.07285 60.3652 5.0387 59.3272 5.20884ZM81.1153 15.4541V16.1972L81.7946 16.3342C82.7047 16.5177 83.2446 16.8578 83.5347 17.4299C83.6669 17.6906 85.3934 21.7754 87.3716 26.5072L90.968 35.1105L92.6384 35.0767L94.3086 35.043L95.254 32.7911C95.774 31.5526 97.4706 27.4993 99.0242 23.7837C102.224 16.1311 102.102 16.3401 103.375 16.3401C104.022 16.3401 104.167 16.3861 104.462 16.6858C104.689 16.9153 105.653 19.0486 107.333 23.0347C108.725 26.3366 110.415 30.3328 111.089 31.9154C111.762 33.4979 112.371 34.9898 112.44 35.2306C112.556 35.6318 112.47 35.8884 111.414 38.2956C109.922 41.6973 109.553 42.3899 108.843 43.1276C108.11 43.8883 107.588 44.0439 106.155 43.928C104.477 43.7921 103.601 44.1502 103.126 45.1664C102.639 46.2083 102.977 47.241 103.997 47.8222C104.542 48.1335 104.749 48.1776 105.651 48.1761C106.531 48.1746 106.804 48.1183 107.521 47.7901C108.609 47.2919 109.794 46.2176 110.662 44.9415C111.559 43.6243 111.858 43.0281 113.44 39.4216C115.992 33.6025 121.465 21.1357 122.228 19.4051C122.653 18.4418 123.136 17.4787 123.301 17.2647C123.662 16.7997 124.253 16.5087 125.221 16.3198L125.936 16.1805V15.4471V14.7138H121.808H117.68L117.719 15.4284L117.757 16.1428L118.816 16.3479C119.398 16.4606 119.963 16.6245 120.071 16.712C120.18 16.7995 120.269 17.0643 120.269 17.3004C120.269 17.9188 115.638 28.7452 115.394 28.698C115.294 28.6786 114.986 28.0998 114.71 27.4117C111.931 20.4924 110.848 17.6763 110.839 17.3442C110.822 16.7727 111.1 16.5841 112.304 16.3509L113.378 16.1428L113.417 15.4284L113.456 14.7138H104.878H96.3001L96.3388 15.424L96.3774 16.1341L97.4545 16.3586C98.0469 16.4822 98.6121 16.648 98.7102 16.7272C99.0543 17.0045 98.8806 17.7505 97.8744 20.3187C97.3164 21.7429 96.3234 24.2873 95.6677 25.973C94.565 28.8078 94.2346 29.5005 94.0642 29.335C93.951 29.2251 89.5201 17.9229 89.4315 17.5178C89.2907 16.875 89.639 16.5999 90.9048 16.3542L91.9899 16.1434L91.977 15.4599L91.9641 14.7763L86.5397 14.7437L81.1153 14.711V15.4541ZM48.3694 16.074C49.4405 16.6047 50.3496 17.9513 50.7799 19.6442C51.0661 20.7697 51.0691 23.1184 50.7856 24.159C50.2986 25.9464 49.4397 27.1821 48.338 27.6805C46.2445 28.6274 44.1158 27.1137 43.2977 24.0965C42.997 22.9874 43.0001 20.5728 43.3035 19.4766C43.6832 18.1057 44.3634 16.9526 45.126 16.3878C46.0921 15.6719 47.3186 15.5533 48.3694 16.074Z" fill="#030712"/>
</svg>
