<svg width="122" height="39" viewBox="0 0 122 39" fill="none" xmlns="http://www.w3.org/2000/svg">
<path fill-rule="evenodd" clip-rule="evenodd" d="M9.64681 0.960649C8.61254 1.20103 6.94744 1.97748 5.88563 2.71507C4.98803 3.33807 4.95646 3.32362 4.86601 2.24651L4.7877 1.31238L2.45086 1.24064L0.114014 1.16915V19.6118V38.0548H2.51401H4.91401V31.0672V24.0797L5.74896 24.7077C9.41768 27.467 15.0433 27.2949 18.8699 24.3064C20.1608 23.2983 21.6342 21.0713 22.3446 19.0541C23.0378 17.0857 23.293 12.9272 22.868 10.5214C22.4699 8.26678 21.1898 5.6024 19.7526 4.03729C17.3806 1.45387 13.1147 0.155056 9.64681 0.960649ZM37.5035 0.869975C36.7522 1.14972 35.156 2.54244 33.952 3.96904L32.7239 5.42429L32.6504 3.36821L32.5772 1.31238L30.2403 1.24064L27.9035 1.16915V13.6334V26.0979H30.3035H32.7035V16.7768V7.45546L33.9889 6.06871C35.4132 4.53226 36.6779 3.96605 37.7561 4.38255C38.1035 4.51681 39.3386 5.47834 40.501 6.51909C42.2972 8.12753 42.7486 8.41176 43.5085 8.41176C44.2245 8.41176 44.5961 8.21123 45.3719 7.40713C46.581 6.15391 47.2376 4.95698 46.8994 4.62343C46.7382 4.4645 46.4423 4.51532 46.0492 4.7694C45.5071 5.11964 45.3707 5.12063 44.6959 4.77887C44.2834 4.56987 43.3772 3.85495 42.6824 3.1901C40.3696 0.977338 38.9379 0.335903 37.5035 0.869975ZM57.0824 0.944208C51.2807 2.09231 47.6176 7.05565 47.6176 13.7674C47.6176 20.6728 51.6627 25.8304 57.6615 26.5732C60.83 26.9653 63.5869 26.4031 65.9834 24.8758C69.1653 22.8482 70.9196 19.4392 71.2513 14.6393C71.7308 7.70232 67.8627 2.04548 61.8991 0.961894C60.21 0.655001 58.5737 0.649023 57.0824 0.944208ZM81.6468 0.960649C78.1815 1.76574 75.6311 4.72083 75.662 7.89562C75.6943 11.2251 78.0266 13.6613 82.4719 15.0089C83.6529 15.3669 85.3428 15.882 86.227 16.1536C90.1845 17.3687 91.6649 19.7127 90.2699 22.5542C89.2429 24.6459 86.5074 25.8795 84.0832 25.3439C81.6721 24.8111 80.036 23.018 79.2637 20.0622C78.9292 18.7821 78.7307 18.4042 78.4371 18.4901C78.2247 18.5524 77.2753 18.792 76.3271 19.0225C74.6658 19.4268 74.6092 19.4656 74.7656 20.0921C75.2989 22.2274 77.086 24.3046 79.3544 25.4256C82.8743 27.1648 87.8577 27.0732 90.8087 25.2146C94.8647 22.6601 95.707 17.4245 92.5362 14.4786C91.3261 13.3544 89.5357 12.5446 85.9741 11.5108C80.7401 9.99131 79.1877 8.81057 79.1877 6.3487C79.1877 4.82445 79.6962 3.86018 80.9859 2.93876C82.7973 1.64518 85.3524 1.71119 87.0203 3.0952C87.9659 3.87986 88.9665 5.75235 89.1959 7.16675C89.3607 8.18233 89.3824 8.20152 90.1931 8.05156C90.6488 7.96736 91.5914 7.73146 92.2876 7.5277L93.5538 7.15679L93.1729 6.05451C91.9059 2.38825 86.254 -0.109489 81.6468 0.960649ZM107.41 0.973851C103.326 1.74581 100.09 4.81474 98.7808 9.15906C98.5537 9.91259 98.3038 11.594 98.2258 12.8956C97.6998 21.6637 103.556 27.5975 111.735 26.5849C115.087 26.1699 117.55 24.8664 119.219 22.6245C120.047 21.5122 121.006 19.6487 120.824 19.507C120.781 19.4738 119.95 19.2569 118.977 19.025C118.005 18.793 117.021 18.5479 116.79 18.4802C116.468 18.3853 116.334 18.5806 116.204 19.3366C115.936 20.9019 114.72 23.1578 113.615 24.1405C111.728 25.8177 108.689 25.9091 106.512 24.3545C104.781 23.1179 103.635 20.1038 103.303 15.9127L103.123 13.6429H112.282H121.442L121.273 11.9443C121.049 9.70858 120.553 7.91106 119.702 6.2528C117.562 2.08061 112.67 -0.0200624 107.41 0.973851ZM62.3261 2.73001C63.5938 3.41778 64.8738 5.18465 65.4226 7.00409C66.8636 11.7836 66.2911 19.9519 64.3115 22.8581C62.9094 24.9169 60.6405 25.8394 58.2322 25.3299C54.7658 24.5971 53.0699 21.4836 52.748 15.262C52.4434 9.37428 53.6507 4.81449 55.9602 3.12833C57.7466 1.82428 60.3553 1.66112 62.3261 2.73001ZM111.595 2.19918C114.245 2.92506 115.547 5.41408 116.18 10.965L116.315 12.1483H109.756H103.197L103.335 10.965C103.779 7.14906 104.948 4.24305 106.487 3.12583C107.951 2.06242 109.843 1.71941 111.595 2.19918ZM14.2561 2.95844C16.9218 4.43586 18.2893 8.95928 17.971 15.2473C17.6482 21.6191 15.8143 24.7259 12.1645 25.0843C9.77919 25.3185 7.62803 24.5752 5.86138 22.9062L4.91401 22.0112V13.7485V5.48607L6.01448 4.48593C6.61953 3.93591 7.38702 3.34156 7.71974 3.16519C9.81406 2.0552 12.4743 1.971 14.2561 2.95844Z" fill="#030712"/>
</svg>
