<svg width="129" height="61" viewBox="0 0 129 61" fill="none" xmlns="http://www.w3.org/2000/svg">
<path fill-rule="evenodd" clip-rule="evenodd" d="M0.551673 0.738563C0.511261 0.844067 0.49593 14.2487 0.517762 30.5268L0.557556 60.1234L64.6214 60.1619L128.685 60.2004V30.3736V0.546875H64.6553C13.5738 0.546875 0.610356 0.585673 0.551673 0.738563ZM125.782 3.15367C125.846 3.15367 125.898 15.4373 125.898 30.4503V57.7469L64.6214 57.7083L3.34462 57.6698L3.30545 30.4595C3.28222 14.2923 3.32341 3.21425 3.40687 3.16318C3.50596 3.10245 90.905 3.09571 125.782 3.15367ZM65.0741 15.6233L64.7375 15.9783L64.7391 25.7061L64.7406 35.434L65.1018 36.2008C65.7579 37.5932 67.2226 38.5985 69.0163 38.8878C70.4799 39.1236 71.3065 38.5404 71.031 37.4659C70.911 36.9983 70.4391 36.738 69.5145 36.6295C68.666 36.53 67.9609 36.1288 67.4614 35.4613C67.1429 35.0356 67.1362 34.8689 67.0601 25.385C66.9845 15.9673 66.9754 15.7362 66.673 15.5099C66.2033 15.1585 65.4654 15.211 65.0741 15.6233ZM109.806 15.6726C109.508 16.0487 109.485 16.2752 109.485 18.9512V21.8257L108.533 21.8938C107.495 21.9682 107.008 22.3255 107.008 23.0127C107.008 23.6859 107.512 24.0725 108.501 24.1597L109.408 24.2395L109.485 29.9134C109.561 35.474 109.57 35.6019 109.925 36.3153C110.643 37.7596 112.508 38.8688 114.296 38.9149C115.295 38.9407 115.441 38.8746 115.766 38.252C115.987 37.8286 115.984 37.7539 115.719 37.3034C115.463 36.8686 115.317 36.7953 114.4 36.6453C113.268 36.4601 112.359 35.9091 112.108 35.2557C112.028 35.0463 111.963 32.4839 111.963 29.5201V24.1628H113.441C114.821 24.1628 114.945 24.1367 115.316 23.7693C115.637 23.4519 115.695 23.2813 115.618 22.8875C115.454 22.0447 115.063 21.8625 113.417 21.8625H111.963V18.942C111.963 16.0455 111.96 16.0182 111.583 15.645C111.05 15.1173 110.237 15.1299 109.806 15.6726ZM17.0869 22.0148C15.2355 22.404 13.4425 23.7532 13.0492 25.0533C12.7833 25.9321 12.831 27.2129 13.1559 27.9212C13.8387 29.4098 16.1851 30.5515 19.4477 30.9824C20.517 31.1237 22.1006 31.6173 22.7398 32.0085C23.4425 32.4386 23.8593 33.1433 23.8599 33.903C23.8608 34.8752 23.4169 35.5204 22.384 36.0474C21.5226 36.4869 21.3955 36.5075 19.5328 36.5075C17.6475 36.5075 17.5494 36.4911 16.5649 36.0109C16.0049 35.738 15.3095 35.2646 15.0198 34.9589C14.7299 34.6535 14.3709 34.273 14.2219 34.1137C13.7037 33.5595 12.5172 33.8123 12.2392 34.5361C11.7945 35.6944 14.06 37.7547 16.6944 38.5877C18.0462 39.0152 20.5243 39.0509 21.9915 38.6642C24.746 37.9379 26.1558 36.4797 26.3003 34.2072C26.4924 31.1828 24.4653 29.505 19.7162 28.7576C17.3964 28.3926 15.8219 27.7181 15.3512 26.8874C15.144 26.5219 15.1435 26.4008 15.3471 25.8174C15.5401 25.2649 15.713 25.0872 16.4284 24.707C17.1412 24.3281 17.504 24.2438 18.6558 24.1889C20.3962 24.1059 21.3652 24.3218 22.6884 25.0876C23.8248 25.7454 24.3673 25.834 24.9181 25.4518C25.2047 25.2531 25.2616 25.0896 25.2236 24.5767C25.1838 24.0416 25.0791 23.8725 24.5338 23.4615C24.1803 23.1951 23.3441 22.7506 22.6757 22.4736C21.5685 22.0148 21.2955 21.9659 19.6025 21.9234C18.5806 21.8977 17.4486 21.9389 17.0869 22.0148ZM33.7447 22.1476C31.5905 22.8526 30.2226 24.1639 29.6669 26.057C29.4574 26.7707 29.4234 27.5639 29.4636 30.7907C29.5085 34.3831 29.5365 34.7199 29.8467 35.3843C30.2338 36.214 31.2843 37.3974 32.0669 37.8852C33.8313 38.9851 36.5706 39.2836 38.6089 38.5976C40.5388 37.9482 42.1166 36.4521 42.5921 34.8206C42.713 34.4052 42.755 32.8961 42.722 30.1434C42.6738 26.1362 42.6677 26.0679 42.2716 25.2362C41.7231 24.0849 40.7599 23.1853 39.3591 22.5166C38.2457 21.9852 38.0879 21.9527 36.4023 21.9079C34.9839 21.8704 34.4433 21.9191 33.7447 22.1476ZM47.1064 22.2246L46.7629 22.5867L46.8083 28.7036L46.8538 34.8206L47.2635 35.5874C48.0105 36.9848 49.2687 38.0189 50.9406 38.6093C52.2372 39.067 54.554 39.0572 55.9892 38.5877C56.5853 38.3926 57.1392 38.1725 57.2202 38.0986C57.5463 37.8008 57.6148 38.0255 57.6125 39.3828C57.6094 41.0906 57.3027 41.7678 56.2001 42.5012C54.0743 43.9149 50.2949 43.3407 48.9701 41.4027C48.3853 40.5473 47.8508 40.2001 47.3505 40.351C46.0256 40.7507 46.2199 42.3473 47.7559 43.6818C48.4575 44.2912 50.121 45.1038 51.0807 45.3058C52.1214 45.5248 54.7137 45.528 55.5247 45.3113C57.2733 44.844 58.7097 43.7488 59.554 42.2389L60.015 41.4147L60.0583 31.9984L60.1015 22.5821L59.7603 22.2223C59.3379 21.777 58.5679 21.7468 58.058 22.1556L57.6924 22.4486L57.6486 28.4978L57.6048 34.5472L57.0379 35.2031C56.1591 36.2199 55.2133 36.5814 53.4344 36.58C52.1389 36.5791 51.8625 36.5286 51.1171 36.1571C50.1653 35.6823 49.4696 34.8386 49.2473 33.8892C49.1697 33.5581 49.1047 30.824 49.1027 27.8136L49.099 22.3399L48.7548 22.1013C48.2416 21.7452 47.5091 21.8 47.1064 22.2246ZM78.2055 22.0216C75.9519 22.5517 74.1731 24.1678 73.6337 26.175C73.3156 27.3586 73.3192 33.4202 73.6386 34.6349C74.1296 36.5015 75.4768 37.8456 77.589 38.5755C78.98 39.0563 81.2913 39.066 82.6086 38.5964C83.7605 38.1857 84.8685 37.4869 85.5038 36.7703C86.1679 36.0212 86.6044 35.0112 86.4785 34.5147C86.3746 34.1048 85.7193 33.6705 85.2046 33.6705C84.8319 33.6705 84.0921 34.2353 84.0921 34.5197C84.0921 34.9099 83.0989 35.8609 82.3126 36.2236C81.677 36.5168 81.2784 36.5814 80.1 36.5826C78.4737 36.5843 77.6063 36.2682 76.6901 35.3402C76.0793 34.7214 75.8878 34.0767 75.8867 32.6354L75.8858 31.5236H80.9093H85.9328L86.3673 31.1528L86.8018 30.782L86.7931 28.5075C86.7849 26.3913 86.7563 26.1724 86.3806 25.3623C85.6193 23.7196 84.0042 22.4681 82.0793 22.0289C81.2609 21.8423 78.9858 21.838 78.2055 22.0216ZM91.1931 22.1556L90.8275 22.4486L90.7888 30.1681C90.7475 38.4102 90.7512 38.4547 91.506 38.8273C91.9433 39.0434 92.748 38.8563 93.034 38.4723C93.1808 38.2751 93.2277 36.8036 93.2281 32.3761C93.2286 26.74 93.2397 26.5218 93.5499 26.0179C93.9379 25.3874 94.3422 25.0301 95.163 24.5919C95.909 24.1936 98.0597 24.0347 99.0661 24.3037C99.9191 24.5317 100.958 25.3281 101.392 26.0869C101.733 26.6843 101.738 26.775 101.741 32.3968C101.744 38.089 101.744 38.1014 102.092 38.5016C102.588 39.073 103.374 39.0753 103.868 38.507L104.238 38.0815L104.19 32.1572L104.144 26.233L103.725 25.3482C102.98 23.7734 101.257 22.4482 99.4037 22.0252C97.7486 21.6472 95.2515 21.9196 93.8422 22.6317C93.3469 22.882 93.2275 22.8992 93.2275 22.7202C93.2275 22.3862 92.469 21.8625 91.9851 21.8625C91.7505 21.8625 91.3941 21.9944 91.1931 22.1556ZM38.435 24.6632C39.1942 25.0524 39.5152 25.3304 39.8807 25.9156L40.3507 26.6679L40.4002 30.0163C40.4587 33.9723 40.3247 34.705 39.3935 35.5145C38.4343 36.3487 37.7386 36.5769 36.1442 36.5808C35.0905 36.5832 34.5519 36.5099 34.0539 36.296C33.1936 35.9264 32.2629 34.9948 32.0543 34.2945C31.9534 33.9557 31.91 32.3405 31.9404 30.0551C31.9884 26.4436 31.9977 26.3512 32.3626 25.8242C33.1429 24.6974 34.3427 24.1793 36.1953 24.1695C37.3267 24.1636 37.5614 24.2152 38.435 24.6632ZM82.5863 24.6906C83.9079 25.4463 84.4644 26.5471 84.3739 28.2266L84.3244 29.1467L80.1051 29.1875L75.8858 29.2282V28.0708C75.8858 26.7791 76.1381 26.0113 76.7843 25.3376C77.6656 24.4186 78.4996 24.1591 80.376 24.2201C81.6488 24.2614 81.9466 24.3247 82.5863 24.6906Z" fill="#030712"/>
</svg>
