<svg width="86" height="69" viewBox="0 0 86 69" fill="none" xmlns="http://www.w3.org/2000/svg">
<path fill-rule="evenodd" clip-rule="evenodd" d="M36.1247 0.0602482C34.845 0.408892 34.2957 1.66429 34.7176 3.27622C34.7732 3.48866 34.9173 3.91518 35.0378 4.22408C35.2987 4.89286 36.3429 7.01017 36.4675 7.12298C36.6381 7.27748 36.716 7.19532 36.9307 6.63419C37.0433 6.33993 37.3685 5.62206 37.6533 5.039C38.4803 3.34607 38.6972 2.55529 38.539 1.81013C38.2727 0.555462 37.1893 -0.229778 36.1247 0.0602482ZM50.7192 3.88152C49.8591 4.20078 49.2742 5.12208 49.0317 6.53972C48.8835 7.4061 48.9612 9.32186 49.154 9.55429C49.2563 9.67771 49.3281 9.63592 49.6132 9.28718C50.1117 8.67745 50.6923 8.18516 51.7928 7.43927C52.4533 6.99159 52.7265 6.71893 52.9163 6.31818C53.0526 6.0304 53.0661 5.95791 53.0661 5.51538C53.0661 5.07772 53.0524 5.00207 52.9292 4.76137C52.6169 4.15082 52.1025 3.83068 51.389 3.80257C51.0686 3.78997 50.9182 3.80767 50.7192 3.88152ZM43.2866 4.66418C43.0011 4.72358 42.8389 4.81897 42.6109 5.06152C42.3435 5.346 42.2725 5.47024 42.1237 5.91379C41.8067 6.85864 41.9606 8.23668 42.5201 9.46537C42.6706 9.79587 42.6961 9.82588 42.8145 9.81173C42.9223 9.79884 42.9789 9.72893 43.1515 9.39537C43.4019 8.91154 43.5846 8.65804 44.1463 8.01461C44.7921 7.27509 45.0076 6.75658 44.9611 6.05413C44.9307 5.59453 44.7774 5.25163 44.4844 4.98801C44.1637 4.6995 43.7084 4.57642 43.2866 4.66418ZM28.9748 5.83465C27.8775 6.00778 27.4499 7.41733 28.1567 8.53142C28.2415 8.6652 28.547 9.02046 28.8355 9.32094C29.3148 9.82005 29.8004 10.4648 29.9557 10.808C30.0445 11.0042 30.238 10.9732 30.3502 10.7448C30.5064 10.4267 30.7285 9.67494 30.8066 9.19967C30.8988 8.63878 30.8742 7.76603 30.7536 7.31528C30.472 6.26283 29.801 5.70432 28.9748 5.83465ZM19.8801 6.6517C19.3613 6.82322 19.0057 7.12955 18.7987 7.58327C18.5137 8.20793 18.6122 8.90711 19.0669 9.48531C19.2754 9.75053 19.6509 9.98471 20.3499 10.2854C21.5954 10.8211 22.2416 11.1862 22.8171 11.6794C23.0079 11.843 23.1313 11.9141 23.206 11.9035C23.3132 11.8883 23.3152 11.8759 23.3106 11.2556C23.2986 9.65251 22.6681 7.94071 21.7949 7.14078C21.2318 6.6249 20.5151 6.44184 19.8801 6.6517ZM67.0107 7.87864C66.4763 7.93074 66.0043 8.11662 65.6184 8.42698C65.3603 8.63455 65.0301 9.14781 64.893 9.55444C64.8301 9.7409 64.7617 9.92089 64.7409 9.95431C64.663 10.0796 64.5245 10.0045 64.1481 9.63305C63.6774 9.16863 63.3755 8.9363 62.9895 8.74128C62.338 8.41219 61.7498 8.26596 60.9414 8.23205C59.892 8.18803 59.2518 8.38825 58.7168 8.92798C58.3087 9.33967 58.1556 9.69848 57.7548 11.1826C57.5633 11.8916 57.3745 12.5873 57.335 12.7285C57.2879 12.8974 57.222 13.0124 57.1425 13.0646C57.0728 13.1103 56.7092 13.1911 56.2835 13.2556C55.4648 13.3795 55.2193 13.4515 54.8857 13.6658C54.6227 13.8346 54.2172 14.2562 53.9456 14.6433C53.4799 15.3069 52.7051 15.512 51.7669 15.2202C50.67 14.879 49.6078 13.2266 49.2009 11.2284C49.1447 10.9524 49.0877 10.7087 49.0743 10.687C49.0063 10.577 48.8295 10.6923 48.3664 11.1484C46.4676 13.0188 44.2815 13.7909 42.1981 13.3267C40.2448 12.8915 38.4642 11.3301 37.1254 8.87846C36.7128 8.12284 36.6443 8.12455 36.3696 8.89753C35.8017 10.4962 35.0773 11.7191 34.0832 12.7577C31.5209 15.4344 27.847 15.6796 24.4899 13.3979C23.6614 12.8349 23.7005 12.8562 23.6193 12.9236C23.5657 12.9681 23.542 13.1836 23.5175 13.8455C23.4383 15.9915 23.0192 17.4287 22.2411 18.2233C21.8106 18.6628 21.4844 18.8236 20.956 18.8569C20.4947 18.8859 20.1434 18.8135 19.6899 18.596C19.0702 18.2989 18.7377 18.0157 17.0686 16.3645C15.4325 14.7458 15.1363 14.495 14.4678 14.162C14.1016 13.9796 13.5551 13.7923 13.0824 13.6871C12.5234 13.5628 11.0663 13.5358 10.3454 13.6363C6.66682 14.1492 3.92274 16.6632 3.28038 20.1091C3.15831 20.7639 3.15773 22.1573 3.27921 22.7734C3.57492 24.2727 4.26318 25.4997 5.60352 26.9169C6.18162 27.5282 6.17409 27.5908 5.51592 27.6434C4.77896 27.7022 3.87092 27.9993 3.31125 28.3648C3.13746 28.4783 2.84865 28.7195 2.66951 28.9007C1.93046 29.6482 1.1545 31.7195 0.978818 33.4137C0.79798 35.1581 1.19062 36.887 2.07644 38.2467C2.35217 38.6699 2.63169 38.9751 4.03353 40.3841C5.82174 42.1812 6.14929 42.454 7.0301 42.8795C7.64495 43.1764 8.132 43.3433 8.82561 43.4947C9.2446 43.5861 9.46506 43.6015 10.3601 43.6015C11.2634 43.6015 11.4745 43.5865 11.9157 43.4912C13.0219 43.2524 14.4235 42.6987 15.7768 41.966C16.5814 41.5303 16.6583 41.5209 16.6517 41.8596C16.6496 41.9634 16.6206 42.3406 16.5871 42.6977C16.4742 43.9007 16.6516 45.0175 17.1193 46.0498C17.4407 46.7589 18.0071 47.4226 18.5502 47.7263C18.9678 47.9598 18.9979 48.0332 18.9276 48.6482C18.2624 54.4731 18.0506 57.3114 18.0068 60.9883C17.9765 63.5318 17.9866 63.6759 18.2276 64.1335C18.4137 64.487 21.1224 67.1675 21.4914 67.3634C22.4033 67.8474 23.9234 67.8497 25.0885 67.3689C26.1219 66.9425 26.9084 66.0757 27.0752 65.1794C27.1026 65.0322 27.1385 64.4631 27.1549 63.9146C27.2137 61.9481 27.4394 57.8785 27.5009 57.6759C27.5357 57.5615 27.609 57.551 28.5654 57.523C29.1416 57.5061 29.517 57.4697 29.8051 57.4028C30.2744 57.2937 30.41 57.33 30.4647 57.5791C30.6928 58.6164 31.1204 59.6281 31.7044 60.512C31.9536 60.8893 32.3088 61.2728 33.6896 62.656C35.4211 64.3905 35.6914 64.6203 36.4407 64.9961C36.8703 65.2115 37.3935 65.3908 37.9234 65.5044C38.5369 65.6358 39.7655 65.6224 40.448 65.4767C42.4631 65.0467 44.065 63.7677 45.2677 61.6283C45.4106 61.3741 45.5502 61.15 45.578 61.1304C45.7215 61.0287 45.8723 61.1492 47.0102 62.275C48.4516 63.7009 48.824 63.9692 49.8219 64.3015C51.3767 64.8192 52.9958 64.5124 54.4516 63.4242C55.0051 63.0105 55.0261 63.0099 55.6037 63.3926C56.4182 63.9322 57.3864 64.1903 58.4135 64.142C58.8218 64.1227 59.0285 64.1319 59.1021 64.1726C59.16 64.2046 59.2954 64.3622 59.4029 64.5227C59.5144 64.6892 60.2624 65.4731 61.1449 66.3482C62.7978 67.9873 62.9315 68.0939 63.7123 68.3968C64.3869 68.6585 64.9229 68.7482 65.8026 68.7468C66.672 68.7453 67.0312 68.6865 67.8687 68.4086C69.8679 67.745 71.4885 66.0574 72.2582 63.8374C72.5931 62.8715 72.6829 62.3346 72.8272 60.4364C73.1014 56.8276 73.5353 53.2732 74.1455 49.6371C74.4662 47.7253 74.4769 47.5189 74.2846 46.9585C74.1312 46.5115 73.9255 46.2454 73.0644 45.3798C69.9389 42.238 69.7525 42.04 69.8135 41.9261C69.8625 41.8344 69.8979 41.8229 70.0488 41.8491C72.5671 42.2864 74.5291 42.258 76.4816 41.756C78.9239 41.1281 80.7947 39.6418 81.8918 37.4576C82.4712 36.304 82.6769 35.5698 82.9363 33.7299C83.4924 29.7856 84.2001 26.0076 85.0593 22.3955C85.3877 21.0153 85.4318 20.7584 85.3931 20.4501C85.3454 20.0692 85.1858 19.6301 84.9829 19.3215C84.7257 18.9301 82.1245 16.3546 81.7339 16.1045C81.3413 15.8532 80.8192 15.6367 80.2798 15.5016C79.9329 15.4147 79.7087 15.3941 79.0981 15.3926C78.398 15.391 78.3179 15.4003 77.9669 15.5244C77.7591 15.5979 77.5321 15.658 77.4624 15.658C77.3596 15.658 76.6843 15.0097 73.8877 12.2258C71.3621 9.71176 70.3504 8.73568 70.1058 8.57734C69.2823 8.04428 68.0846 7.77391 67.0107 7.87864ZM68.3354 9.41142C68.7505 9.49801 69.2897 9.74805 69.5449 9.97226C69.7413 10.1448 69.9075 10.449 69.9093 10.6393C69.9099 10.7017 69.7572 11.3089 69.5701 11.9887C69.3829 12.6684 69.2298 13.2572 69.2298 13.297C69.2298 13.4741 69.4121 13.502 70.2993 13.4609C71.3751 13.4111 71.5206 13.4285 71.6878 13.6274C71.8013 13.7624 71.8142 13.8132 71.7965 14.0569C71.7556 14.624 71.2381 15.3548 70.6756 15.6401C70.4389 15.7601 70.362 15.7713 69.5873 15.7989C68.6278 15.8331 68.5949 15.8469 68.4769 16.2625C68.4384 16.3983 68.2651 17.1551 68.0917 17.9444C67.1657 22.1616 66.6537 25.6978 66.655 27.8681C66.6555 28.6994 66.7001 28.8788 66.9735 29.1496C67.2147 29.3885 67.3628 29.4388 67.7508 29.4139C68.1681 29.3871 68.4168 29.2604 68.7483 28.9056C69.1808 28.443 69.3565 27.8953 69.4244 26.7979C69.6044 23.8944 69.9358 22.0219 70.6393 19.933C71.0888 18.5984 71.5435 17.6621 71.8898 17.3578C72.2319 17.0573 72.4407 16.9958 73.1188 16.9958C73.6294 16.9958 73.779 17.0139 74.0554 17.1095C74.4619 17.25 74.9037 17.5423 75.0584 17.7732C75.2751 18.0965 75.2554 18.295 74.8981 19.389C74.2664 21.3236 73.8413 22.9553 73.602 24.3656C73.4539 25.2377 73.418 26.6384 73.5295 27.1891C73.7194 28.1268 74.1554 28.5815 74.7595 28.4718C75.0317 28.4224 75.2678 28.2875 75.4656 28.0684C75.8184 27.6776 75.9407 27.3162 76.1097 26.1655C76.5368 23.2568 77.0899 20.4632 77.6458 18.4065C77.7833 17.8982 77.9361 17.402 77.9854 17.3039C78.0885 17.0989 78.2627 16.9629 78.5361 16.8741C78.7781 16.7955 79.6331 16.8385 80.0443 16.95C80.9624 17.1988 81.573 17.7332 81.5763 18.2908C81.5769 18.3877 81.4695 18.9131 81.3377 19.4583C80.4778 23.0142 79.6582 27.3603 79.1465 31.0787C78.9237 32.6969 78.7517 33.3596 78.3185 34.2681C77.9673 35.0049 77.5407 35.6083 76.9611 36.1887C75.821 37.3301 74.5395 37.8891 73.0628 37.8891C72.3885 37.8891 71.8856 37.7867 71.3931 37.5492C70.5216 37.1288 69.9863 36.2588 70.266 35.7175C70.3775 35.5017 70.5499 35.4548 71.0117 35.5143C71.4998 35.5773 72.1644 35.5354 72.6473 35.4112C73.9577 35.0741 74.9294 33.9191 75.3358 32.2157C75.4778 31.6208 75.3258 31.5511 74.8458 31.9908C74.1981 32.5842 73.5483 32.8544 72.7785 32.8506C72.0158 32.8468 71.4911 32.643 70.9575 32.1435C70.6301 31.8371 70.2732 31.3179 70.1251 30.9328C69.9501 30.4779 69.8578 30.4799 69.5428 30.9449C69.2259 31.4127 68.5136 32.1241 68.0721 32.4138C67.637 32.6992 67.0886 32.9354 66.6043 33.0458C66.1492 33.1496 65.4109 33.1526 65.037 33.0522C64.3388 32.8647 63.6942 32.3911 63.2717 31.7551C63.149 31.5704 63.0173 31.4192 62.9791 31.4192C62.9408 31.4192 62.8604 31.479 62.8005 31.5521C61.9069 32.6404 61.0114 33.2246 59.9041 33.4412C59.1451 33.5897 58.4831 33.4976 57.7669 33.1439C57.2155 32.8715 56.6642 32.3544 56.3952 31.8571C56.1527 31.4089 56.0874 31.4136 55.7439 31.904C54.8329 33.2051 53.6706 33.9016 52.4142 33.8994C51.4064 33.8977 50.5428 33.4552 49.9128 32.6176C49.7592 32.4133 49.617 32.2462 49.5969 32.2462C49.5277 32.2462 49.4092 32.3683 49.2552 32.5979C48.6964 33.4313 47.7281 34.1184 46.8307 34.3181C46.0801 34.4852 45.1131 34.3064 44.4748 33.8824C44.1096 33.6398 43.659 33.1505 43.4401 32.7589C43.2221 32.3687 43.1392 32.3547 42.9247 32.6719C42.1675 33.7918 41.1614 34.5644 40.1157 34.829C39.584 34.9636 38.8248 34.944 38.3871 34.7843C37.8723 34.5966 37.3412 34.1778 37.0653 33.7421C36.894 33.4714 36.8054 33.5018 36.4996 33.9367C35.8667 34.8369 34.9724 35.4906 34.083 35.7032C33.4758 35.8483 32.682 35.7511 32.044 35.4533C31.6242 35.2575 31.0164 34.6443 30.7697 34.1677C30.2157 33.0977 29.9306 31.5728 29.933 29.6923C29.9364 26.9826 30.5435 23.7539 31.485 21.4382C32.1068 19.9088 32.4209 19.6035 33.4174 19.5593C34.1955 19.5248 34.8596 19.7184 35.2862 20.104C35.6338 20.4183 35.7255 20.8008 35.5629 21.2583C35.3727 21.7936 34.8811 23.4544 34.6648 24.2926C33.9371 27.1128 33.7269 29.3542 34.0821 30.5051C34.2732 31.1243 34.5429 31.3713 35.0259 31.3695C35.5145 31.3678 35.9107 31.1262 36.2224 30.6402C36.4936 30.2172 36.5972 29.8153 36.781 28.4723C37.3015 24.6683 38.3486 19.7269 38.7558 19.1525C38.9225 18.9174 39.2091 18.82 39.7342 18.82C40.6419 18.82 41.449 19.0888 41.9166 19.5468C42.1161 19.7422 42.2083 19.8758 42.2486 20.0283C42.3136 20.2737 42.3493 20.0971 41.7956 22.2738C41.3556 24.0037 41.0015 25.6012 40.7227 27.1141C40.2773 29.5302 40.2767 30.4407 40.7201 30.8303C40.8946 30.9837 40.9731 31.0052 41.2776 30.9834C41.5122 30.9665 41.6619 30.8799 41.8972 30.6244C42.3574 30.1248 42.6228 29.3401 42.9526 27.5033C43.3804 25.1214 44.0559 23.2956 45.1755 21.4952C46.2676 19.739 47.5817 18.46 48.9764 17.7955C49.7035 17.4491 50.0788 17.3553 50.8543 17.3261C51.9045 17.2866 52.7118 17.4755 53.1777 17.8698C53.5011 18.1435 53.6464 18.62 53.5699 19.1563C53.5041 19.6179 53.5241 19.6587 53.8927 19.8154C54.1122 19.9088 54.2704 20.0186 54.4035 20.1699C54.778 20.5956 54.7863 20.941 54.448 22.0353C53.9453 23.6617 53.3583 26.1578 53.1641 27.4947C53.0696 28.1451 53.0597 28.8186 53.1409 29.067C53.5327 30.2659 55.0066 30.0554 55.687 28.7034C56.0552 27.9718 56.18 27.4309 56.3733 25.7277C56.6355 23.4178 57.054 20.7722 57.5161 18.5038C57.6524 17.8349 57.7887 17.1506 57.8191 16.9831C57.9074 16.4964 57.9573 16.5091 56.4953 16.6475C55.818 16.7116 55.2224 16.7532 55.1717 16.74C55.056 16.7096 54.9377 16.486 54.9377 16.2972C54.9377 16.0527 55.118 15.5578 55.3072 15.2829C55.6009 14.8562 55.7127 14.8141 57.0767 14.6164C58.1493 14.4609 58.2775 14.4324 58.367 14.3301C58.4283 14.2601 58.5384 13.9375 58.6538 13.49C58.7568 13.0905 58.9589 12.3258 59.1028 11.7907C59.5525 10.1191 59.6051 9.99755 59.961 9.80754C60.1383 9.71288 60.2362 9.69955 60.7469 9.70043C61.3895 9.70145 61.757 9.77675 62.2562 10.0096C62.7922 10.2596 63.1129 10.6303 63.114 11.0009C63.1143 11.1142 62.9592 11.7707 62.7693 12.4599C62.5794 13.149 62.4241 13.7428 62.4241 13.7795C62.4241 13.9641 62.5276 13.9702 63.8169 13.8613C64.5033 13.8033 65.1045 13.7346 65.1531 13.7086C65.2848 13.6381 65.3157 13.5577 65.5361 12.7126C65.9145 11.2611 66.2739 9.99196 66.3481 9.84524C66.518 9.50896 66.7172 9.38836 67.1825 9.34001C67.5788 9.29881 67.887 9.31792 68.3354 9.41142ZM12.9718 15.1658C14.3079 15.5034 15.2268 16.3501 15.6178 17.6039C15.7768 18.1135 15.7772 19.1874 15.6188 19.7641C15.2479 21.1136 14.4561 22.188 13.4723 22.6768C13.2181 22.8031 13.0869 22.8361 12.7918 22.8482C12.3627 22.8657 12.1434 22.7745 11.9913 22.5153C11.8854 22.3348 11.883 22.2621 11.9402 20.9811C11.9946 19.761 11.8645 19.1931 11.4436 18.8137C11.1861 18.5815 10.9563 18.5099 10.5692 18.541C10.108 18.578 9.71206 18.7907 9.32423 19.2099C8.78983 19.7875 8.51279 20.506 8.51279 21.3144C8.51279 22.3131 8.94296 22.8688 11.1379 24.7056C13.3533 26.5596 14.335 27.6919 14.9359 29.0868C15.3572 30.0648 15.5211 31.1203 15.4246 32.2348C15.3254 33.3801 15.085 34.2581 14.5822 35.3109C13.1642 38.28 10.2982 40.0701 7.4174 39.7862C5.97968 39.6445 4.86544 39.1506 3.96314 38.2551C3.50302 37.7985 3.23395 37.4146 2.94247 36.7989C2.25811 35.3532 2.21708 33.5857 2.82527 31.7518C3.09944 30.9251 3.45091 30.2089 3.7279 29.9126C3.98594 29.6365 4.5444 29.3334 5.03699 29.202C5.43041 29.0971 6.4189 29.0567 6.83196 29.1287C7.32193 29.2141 7.67359 29.3633 7.88641 29.5763C8.1357 29.8258 8.13482 29.9938 7.88082 30.635C7.44603 31.7326 7.27662 32.523 7.27467 33.4624C7.27351 34.0601 7.28989 34.2207 7.3822 34.5145C7.52216 34.9601 7.7557 35.2973 8.05155 35.4812C8.25086 35.605 8.34541 35.6298 8.67656 35.6449C9.16837 35.6672 9.51483 35.5915 9.94685 35.3674C11.0091 34.8162 11.7247 33.424 11.7262 31.9057C11.7267 31.369 11.6159 30.9417 11.3486 30.4497C10.94 29.6975 10.3218 29.0605 8.68293 27.7028C6.74494 26.0974 5.74328 25.0127 5.20733 23.9392C4.2852 22.092 4.47775 19.7842 5.7075 17.9444C6.20826 17.1953 7.28576 16.2523 8.12389 15.8297C8.7874 15.4952 9.67997 15.2138 10.4573 15.0941C11.0842 14.9976 12.4617 15.0369 12.9718 15.1658ZM62.9596 16.1284C61.9638 16.2003 61.8286 16.2366 61.7459 16.4543C61.585 16.8778 60.7353 21.0254 60.434 22.8576C60.0038 25.4747 59.75 28.3283 59.894 28.9292C60.0273 29.4853 60.4106 29.7857 60.99 29.7882C61.266 29.7893 61.3825 29.7639 61.6069 29.6537C62.1298 29.3967 62.5515 28.804 62.7849 27.9978C62.9159 27.5455 62.9368 27.3984 63.1312 25.5574C63.3711 23.2853 63.7713 20.7306 64.2817 18.2119C64.6973 16.1613 64.689 16.2135 64.6144 16.1235C64.5377 16.031 64.2999 16.0317 62.9596 16.1284ZM50.0354 20.8403C49.946 20.8792 49.7259 21.0589 49.5464 21.2397C48.2876 22.5075 46.9287 26.0746 46.836 28.3546C46.8016 29.2011 46.8427 29.3953 47.1201 29.6965C47.4292 30.032 47.9112 30.0993 48.3608 29.8699C48.802 29.6446 49.247 28.9555 49.418 28.2329C49.6247 27.3589 50.4769 23.3128 50.6372 22.4441C50.864 21.2149 50.8701 21.0352 50.6908 20.8808C50.5355 20.7471 50.2854 20.7317 50.0354 20.8403ZM24.6365 20.8666C26.3093 21.0958 27.5597 22.3929 28.1267 24.4872C28.6724 26.5028 28.5471 29.7189 27.8284 32.1429C27.6961 32.5894 27.6629 32.7652 27.7002 32.8239C27.7418 32.8894 27.8466 32.9029 28.3123 32.9029C28.8696 32.9029 28.8755 32.9042 29.0303 33.0489C29.2071 33.2143 29.42 33.6498 29.5178 34.0461C29.5554 34.1985 29.5825 34.5544 29.5808 34.8731C29.5755 35.8157 29.3561 36.2021 28.7787 36.2856C28.0896 36.3853 27.1999 36.3199 26.41 36.1117C25.8044 35.952 25.7242 35.9568 25.4718 36.1679C24.4357 37.0341 23.3503 37.4603 21.9934 37.5337C19.9622 37.6437 18.2971 36.7052 17.3676 34.9267C16.5359 33.3352 16.3238 31.1801 16.759 28.7437C17.1127 26.7639 17.8752 24.9921 18.9884 23.563C19.4062 23.0267 20.2267 22.2486 20.7227 21.9183C21.9627 21.0927 23.4229 20.7003 24.6365 20.8666ZM23.1801 24.4647C21.6669 24.843 20.3754 27.6865 20.3749 30.6409C20.3746 32.3661 20.838 33.5511 21.6497 33.9005C22.1084 34.098 22.9993 33.9674 22.9993 33.7027C22.9993 33.649 22.9471 33.5018 22.8833 33.3756C22.5004 32.6185 22.3015 31.7198 22.3262 30.8589C22.3417 30.3163 22.3548 30.2463 22.4889 29.9851C22.6732 29.6262 22.9151 29.4754 23.1501 29.5727C23.3373 29.6503 23.407 29.7578 23.5574 30.2004C23.7096 30.648 23.9535 31.0866 24.217 31.3861C24.5027 31.7108 24.5958 31.6883 24.7343 31.2611C25.0283 30.354 25.1953 29.0792 25.1977 27.7222C25.1997 26.5957 25.1066 25.9775 24.8496 25.4102C24.5189 24.6806 23.8444 24.2986 23.1801 24.4647ZM56.6344 36.6257C57.5749 36.8513 58.2928 37.4136 58.2917 37.9237C58.2916 37.9983 58.1819 38.5721 58.048 39.1987C57.9141 39.8253 57.8172 40.378 57.8327 40.4269C57.8759 40.5628 58.0056 40.5736 58.9496 40.5199C59.4303 40.4926 59.8783 40.4841 59.945 40.5011C60.2815 40.5868 60.409 40.8083 60.37 41.239C60.3335 41.6412 60.1279 42.0422 59.7782 42.3932C59.3997 42.773 59.2152 42.8329 58.3014 42.8734C57.5776 42.9054 57.4271 42.9402 57.3285 43.0983C57.2194 43.2732 56.6473 47.0405 56.4465 48.9074C56.177 51.4118 56.0615 53.6931 56.1399 54.9654C56.1834 55.6722 56.2043 55.7991 56.3122 56.0113C56.4616 56.305 56.5953 56.4348 56.8822 56.565C57.7845 56.9743 58.5985 56.1132 58.9017 54.4287C58.9437 54.1955 58.9956 53.4637 59.0207 52.7504C59.1007 50.4819 59.3959 48.5582 59.942 46.7483C60.3541 45.3824 60.6833 44.6394 60.9998 44.3606C61.2857 44.1087 61.5912 44.0183 62.1534 44.0192C63.1248 44.0208 63.9773 44.4146 64.2754 44.9994C64.4104 45.2642 64.3935 45.4447 64.151 46.3274C63.6399 48.1877 63.2531 49.8737 63.0736 51.0235C62.9551 51.7821 62.9506 53.6111 63.0659 54.1125C63.2508 54.9165 63.5478 55.3897 63.9417 55.5078C64.3552 55.6318 64.914 55.3968 65.2021 54.9778C65.5058 54.536 65.543 54.3385 65.7318 52.1667C65.9971 49.1145 66.6538 44.8858 66.9594 44.2617C67.1172 43.9393 67.3718 43.8239 67.9252 43.8239C69.0943 43.8239 70.2446 44.3559 70.5254 45.0263C70.6143 45.2387 70.608 45.4637 70.4959 46.0742C69.8895 49.3769 69.2998 54.1081 68.9877 58.1744C68.8731 59.6663 68.8072 60.0839 68.5663 60.842C68.0424 62.4912 66.968 63.7821 65.5596 64.4545C64.7769 64.8281 64.3991 64.9085 63.4206 64.9096C62.7583 64.9103 62.5314 64.8925 62.2782 64.82C61.4515 64.5831 60.7997 64.1091 60.5207 63.5419C60.324 63.1422 60.3056 62.8022 60.4716 62.6362C60.5763 62.5316 60.6112 62.5282 61.5869 62.5282C62.5665 62.5282 62.6052 62.5244 62.9961 62.3902C64.1713 61.9865 64.8932 61.0046 65.2425 59.3349C65.3416 58.861 65.3342 58.7781 65.1891 58.7319C65.1179 58.7094 65.0022 58.7893 64.7147 59.06C64.1 59.6387 63.5069 59.8948 62.7866 59.8927C62.2945 59.8912 61.9618 59.8149 61.5049 59.5986C61.0121 59.3654 60.4483 58.8014 60.1137 58.2069C59.832 57.7063 59.7728 57.6338 59.6765 57.6707C59.6374 57.6857 59.5247 57.8326 59.426 57.997C58.5257 59.4968 57.238 60.3187 55.7884 60.3186C55.0735 60.3186 54.3492 60.0817 53.8208 59.675C53.5401 59.4591 53.1275 59.0148 52.9397 58.7262C52.8196 58.5419 52.7046 58.4176 52.6539 58.4176C52.6057 58.4176 52.4634 58.5595 52.3245 58.746C51.6242 59.6864 50.6072 60.421 49.7119 60.6334C49.2851 60.7346 48.563 60.7233 48.1137 60.6083C47.4996 60.4511 47.0038 60.1625 46.5264 59.6842C46.0532 59.2103 45.8075 58.7932 45.6455 58.189C45.5503 57.8342 45.5435 57.6798 45.5403 55.8151C45.5383 54.628 45.5653 53.3283 45.607 52.6045C45.6455 51.9356 45.677 51.2242 45.677 51.0235C45.677 50.6871 45.6689 50.6575 45.5724 50.6437C45.5031 50.6338 45.38 50.7068 45.2078 50.8599C44.8162 51.208 44.2709 51.5393 43.7673 51.735C43.4235 51.8687 43.3006 51.941 43.2514 52.0386C43.2159 52.109 43.1724 52.4075 43.1547 52.7018C43.0166 55.0019 42.4096 57.2319 41.5009 58.7768C40.793 59.9805 39.9577 60.7944 38.9199 61.2917C38.1307 61.6699 37.7628 61.7471 36.7567 61.7459C35.9677 61.745 35.8743 61.7352 35.4708 61.611C32.6756 60.7507 31.2358 57.5329 31.7783 53.3585C32.1009 50.8764 33.0599 48.6994 34.4962 47.1891C35.7954 45.8229 37.2795 45.136 38.9275 45.1381C39.5997 45.1389 39.9893 45.218 40.4762 45.4523C41.5952 45.9909 42.4852 47.2099 42.8995 48.7716C42.9622 49.0081 43.0462 49.2158 43.0906 49.2437C43.1936 49.3088 43.6117 49.1691 44.0169 48.9341C44.4044 48.7096 45.0965 48.0257 45.3734 47.594C45.9407 46.7092 46.2273 45.8881 46.4254 44.5804C46.49 44.1535 46.5057 43.9222 46.4739 43.8629C46.4144 43.7516 46.3287 43.7523 45.244 43.873C44.1388 43.996 43.9777 43.9962 43.8568 43.8753C43.5583 43.5766 43.7918 42.5921 44.2553 42.1951C44.4341 42.0419 44.4812 42.0297 45.5672 41.854C46.1868 41.7537 46.7323 41.6476 46.7795 41.6182C46.9119 41.5354 46.9406 41.4269 47.2775 39.7377C47.7836 37.2001 47.7733 37.2308 48.1791 37.0257C48.3591 36.9347 48.4739 36.9164 48.8593 36.917C50.1863 36.9195 51.389 37.5782 51.389 38.3027C51.389 38.4126 51.2786 39.0259 51.1437 39.6656C51.0088 40.3053 50.9049 40.8842 50.9128 40.9521C50.9256 41.0615 50.9519 41.0769 51.1459 41.0881C51.2663 41.0951 51.8851 41.0488 52.5212 40.9853C53.946 40.8431 53.8629 40.8931 54.0145 40.0861C54.1764 39.2246 54.5403 37.5124 54.6282 37.1991C54.7153 36.8884 54.8867 36.6849 55.1379 36.594C55.403 36.498 56.1697 36.5143 56.6344 36.6257ZM28.4147 39.3778C30.6109 39.7356 32.0872 41.2332 32.5115 43.5339C32.6266 44.1583 32.6255 45.5799 32.5094 46.3535C31.9849 49.8454 30.3165 52.4355 28.003 53.3492C26.9168 53.7783 25.6606 53.8415 24.43 53.5291C23.8356 53.3782 23.8044 53.3958 23.7592 53.9074C23.634 55.3243 23.4216 59.0215 23.3395 61.2105C23.2826 62.7269 23.2626 62.8209 22.9252 63.1585C22.6558 63.4282 22.3441 63.6099 21.9055 63.7532C21.5763 63.8607 21.4234 63.8809 20.909 63.8852C20.2 63.8911 19.9238 63.8277 19.6584 63.5979L19.4749 63.4391L19.4769 61.2324C19.478 60.0187 19.5057 58.5988 19.5385 58.0771C19.7817 54.2083 20.1032 50.8751 20.5705 47.3792C20.7675 45.9052 20.7677 45.8184 20.5735 45.8184C20.5292 45.8184 20.3514 45.9614 20.1784 46.1362C19.7759 46.5427 19.5994 46.6053 19.2849 46.4529C19.0048 46.3173 18.7793 46.0554 18.5342 45.5811C18.2207 44.9747 18.0826 44.4691 18.0535 43.8215C18.0106 42.8657 18.1067 42.6809 18.9666 42.065C21.7537 40.0689 25.7243 38.9395 28.4147 39.3778ZM25.9647 42.6563C25.5327 42.712 25.2858 42.8039 25.1801 42.9483C25.0493 43.127 24.6506 45.5667 24.3358 48.116C24.1866 49.323 24.1875 49.3271 24.6639 49.5612C25.2924 49.8701 26.0416 49.9264 26.6656 49.7115C27.6185 49.3832 28.3621 48.3949 28.6854 47.0268C29.1283 45.1519 28.7935 43.6737 27.7725 42.997C27.3343 42.7066 26.6194 42.5719 25.9647 42.6563ZM52.7502 43.1981C52.4962 43.2165 51.9177 43.2595 51.4647 43.2935C50.3371 43.3784 50.4188 43.2908 50.1993 44.6509C49.6406 48.1127 49.3448 50.8009 49.2519 53.2612C49.2023 54.5745 49.2465 56.0012 49.3445 56.2529C49.4522 56.5295 49.6437 56.7508 49.8962 56.8905C50.2341 57.0775 50.7164 57.0875 51.0487 56.9145C51.7191 56.5655 52.1522 55.9144 52.3321 54.9851C52.3769 54.7536 52.4274 54.0437 52.4581 53.2125C52.5635 50.3581 52.837 47.4469 53.2891 44.3666C53.369 43.8223 53.4219 43.3376 53.4066 43.2894C53.369 43.1707 53.2867 43.1593 52.7502 43.1981ZM37.4668 49.2311C36.0286 50.7128 35.2983 54.7529 36.1519 56.5055C36.6475 57.523 37.6153 57.7605 38.3825 57.0528C39.042 56.4445 39.5705 55.0427 39.793 53.3116C39.9016 52.4668 39.9329 51.8262 39.8712 51.7108C39.841 51.6543 39.6912 51.5173 39.5383 51.4064C39.1484 51.1236 38.8726 50.8525 38.6267 50.5107C38.3747 50.1601 38.1006 49.6031 38.0142 49.2655C37.9131 48.8709 37.822 48.8652 37.4668 49.2311ZM72.4119 65.4891C71.7952 65.7765 71.5732 66.5275 71.9329 67.1096C72.2975 67.6998 73.0838 67.8279 73.6046 67.3818C73.9544 67.0821 74.0954 66.6734 73.9944 66.2518C73.8239 65.5409 73.0752 65.1801 72.4119 65.4891ZM73.14 65.5242C73.9892 65.7382 74.168 66.8626 73.432 67.3609C73.2055 67.5143 73.1718 67.5226 72.8428 67.5061C72.5398 67.4909 72.4696 67.4689 72.3081 67.3387C72.0305 67.115 71.9052 66.8634 71.9043 66.5274C71.903 66.06 72.1717 65.6748 72.5902 65.5441C72.8576 65.4607 72.8842 65.4597 73.14 65.5242ZM72.4139 67.0766H72.5476C72.6908 67.0766 72.6901 67.0777 72.7015 66.858C72.713 66.6362 72.8467 66.6455 73.001 66.8789C73.1108 67.045 73.1579 67.0766 73.2954 67.0766C73.3854 67.0766 73.4591 67.0642 73.4591 67.049C73.4591 67.0339 73.4002 66.9441 73.3281 66.8496L73.1971 66.6778L73.3051 66.5963C73.3667 66.5498 73.4254 66.4385 73.4418 66.3371C73.4658 66.1892 73.4497 66.1385 73.3455 66.0343C73.2312 65.9199 73.1856 65.9091 72.8172 65.9091H72.4139V67.0766ZM73.1382 66.2646C73.1811 66.3351 73.1724 66.3669 73.0945 66.4249C72.9613 66.5239 72.7037 66.4959 72.7117 66.3834C72.715 66.3365 72.7205 66.2641 72.7238 66.2224C72.7325 66.1135 73.067 66.1476 73.1382 66.2646Z" fill="#030712"/>
</svg>
