<svg width="136" height="33" viewBox="0 0 136 33" fill="none" xmlns="http://www.w3.org/2000/svg">
<path fill-rule="evenodd" clip-rule="evenodd" d="M0.519287 7.28451H8.92243V32.0656H16.6253V7.28451H25.0284V0.691383H0.519287V7.28451ZM27.5961 32.0656H35.8335C44.6829 32.0656 45.5492 31.9771 47.854 30.8397C49.4081 30.0726 50.9942 28.3411 51.6356 26.7113C52.2952 25.035 52.3718 21.8248 51.7887 20.2891C50.9783 18.155 49.3348 16.5499 47.121 15.7314L46.0461 15.334L46.7998 14.9153C48.0001 14.2482 49.0635 13.1715 49.7335 11.9452C50.2976 10.9128 50.3546 10.579 50.3546 8.30758C50.3546 5.46162 50.0516 4.64294 48.4487 3.15949C46.1217 1.00581 44.4551 0.700249 35.0072 0.695247L27.5961 0.691383V32.0656ZM50.9381 0.813924C50.9381 0.928735 51.6312 3.10287 56.1892 17.2879C57.1737 20.3514 58.6338 24.9041 59.4342 27.4049L60.8893 31.9519H68.0467L68.4538 30.4741C68.6776 29.6613 69.8791 25.2621 71.1234 20.6981C72.368 16.1341 73.4628 12.3217 73.5564 12.2262C73.65 12.1307 73.9154 12.8468 74.1462 13.8176C74.4786 15.2156 77.5959 27.0346 78.7343 31.213L78.9666 32.0656L86.0679 32.064L88.2719 25.0739C89.4843 21.2292 91.231 15.7817 92.1534 12.9682C93.9629 7.44979 95.9883 1.03059 95.9883 0.814608C95.9883 0.740946 94.1366 0.70889 91.8733 0.742992L87.7584 0.805057L86.7341 4.55632C85.1529 10.3476 82.6329 19.1974 82.5013 19.422C82.4361 19.5327 81.724 16.975 80.9189 13.7383C80.1136 10.5013 79.0394 6.26712 78.532 4.32897L77.609 0.805057L69.4323 0.681152L68.9554 2.44811C68.6928 3.42003 67.6083 7.66714 66.5453 11.8863C65.4821 16.1052 64.5391 19.4813 64.4497 19.3888C64.3603 19.296 63.688 17.0207 62.9558 14.3323C61.8926 10.4297 59.912 3.45186 59.1968 1.08924C59.088 0.730032 58.6812 0.691383 55.0074 0.691383C52.7693 0.691383 50.9381 0.746629 50.9381 0.813924ZM101.326 1.31659C101.187 1.66034 100.622 3.16949 100.07 4.66999C98.3897 9.23539 97.2822 12.2014 95.5696 16.7195C92.5885 24.5844 89.9194 31.7661 89.9194 31.9223C89.9194 32.0071 91.7225 32.0483 93.9267 32.0142L97.9339 31.9519L99.7646 26.6012L111.03 26.7229L112.712 31.9519L116.721 32.0142C119.159 32.0519 120.731 31.9912 120.731 31.8591C120.731 31.7395 120.003 29.7166 119.114 27.3635C118.224 25.0105 116.085 19.3511 114.36 14.787C112.636 10.223 110.723 5.18426 110.109 3.59008L108.993 0.691383H101.579L101.326 1.31659ZM40.5224 7.53186C42.3842 8.03544 43.2002 9.6885 42.384 11.3038C41.6984 12.6606 40.7785 13.0342 37.8309 13.1524L35.299 13.254V7.28451L37.4581 7.28587C38.6457 7.28655 40.0246 7.39727 40.5224 7.53186ZM107.049 15.0496C107.898 17.6323 108.593 19.8064 108.593 19.8808C108.593 19.9551 107.084 20.0161 105.24 20.0161H101.887L103.548 15.026C104.461 12.2814 105.275 10.1075 105.357 10.1948C105.439 10.2821 106.201 12.4669 107.049 15.0496ZM42.2383 19.5532C44.7868 20.6799 44.7868 23.8992 42.2383 25.0259C41.4328 25.3822 40.7038 25.4633 38.2751 25.4674L35.299 25.4724V19.1067L38.2751 19.1117C40.7038 19.1158 41.4328 19.1969 42.2383 19.5532Z" fill="#030712"/>
<path d="M116.996 0.691379H123.765L135.67 32.0656H128.901L116.996 0.691379Z" fill="#030712"/>
</svg>
